<svg width="20" height="20" viewBox="0 0 20 20" fill="none" xmlns="http://www.w3.org/2000/svg">
<path d="M2.08325 9.99992C2.08325 6.26797 2.08325 4.40199 3.24262 3.24262C4.40199 2.08325 6.26797 2.08325 9.99992 2.08325C13.7318 2.08325 15.5978 2.08325 16.7573 3.24262C17.9166 4.40199 17.9166 6.26797 17.9166 9.99992C17.9166 13.7318 17.9166 15.5978 16.7573 16.7573C15.5978 17.9166 13.7318 17.9166 9.99992 17.9166C6.26797 17.9166 4.40199 17.9166 3.24262 16.7573C2.08325 15.5978 2.08325 13.7318 2.08325 9.99992Z" stroke="#CCAB80" stroke-linejoin="round"/>
<path d="M14.1055 6.68921H11.6514C10.7816 6.68921 10.0746 7.39096 10.0682 8.26081L9.99707 17.8562M8.40173 11.6687H12.404" stroke="#CCAB80" stroke-linecap="round" stroke-linejoin="round"/>
</svg>
