<svg width="20" height="20" viewBox="0 0 20 20" fill="none" xmlns="http://www.w3.org/2000/svg">
<path d="M3.75 0.625C3.82812 0.611979 3.97135 0.608725 4.17969 0.615234C4.38802 0.621744 4.52474 0.63151 4.58984 0.644531C4.74609 0.696615 4.89258 0.755209 5.0293 0.820312C5.16602 0.885416 5.29297 0.970053 5.41016 1.07422C5.44922 1.10026 5.61523 1.25651 5.9082 1.54297C6.20117 1.82943 6.52995 2.16146 6.89453 2.53906C7.45443 3.09896 7.82878 3.47331 8.01758 3.66211C8.20638 3.85091 8.32031 3.98438 8.35938 4.0625C8.4375 4.16667 8.49935 4.27083 8.54492 4.375C8.5905 4.47917 8.6263 4.59635 8.65234 4.72656C8.67839 4.80469 8.69466 4.87305 8.70117 4.93164C8.70768 4.99023 8.71094 5.08464 8.71094 5.21484C8.71094 5.34505 8.70768 5.43945 8.70117 5.49805C8.69466 5.55664 8.67839 5.625 8.65234 5.70312C8.61328 5.88542 8.55143 6.04818 8.4668 6.19141C8.38216 6.33464 8.27474 6.47786 8.14453 6.62109C8.04036 6.7513 7.96875 6.85872 7.92969 6.94336C7.89062 7.028 7.87109 7.12891 7.87109 7.24609C7.87109 7.33724 7.88411 7.41536 7.91016 7.48047C7.9362 7.54557 7.96875 7.61719 8.00781 7.69531C8.03385 7.72135 8.25846 7.94922 8.68164 8.37891C9.10482 8.80859 9.60286 9.31641 10.1758 9.90234C11.0221 10.7357 11.5918 11.2956 11.8848 11.582C12.1777 11.8685 12.3503 12.0247 12.4023 12.0508C12.4674 12.0898 12.5488 12.1159 12.6465 12.1289C12.7441 12.1419 12.832 12.1419 12.9102 12.1289C12.9883 12.1029 13.0632 12.0703 13.1348 12.0312C13.2064 11.9922 13.2943 11.9271 13.3984 11.8359C13.6198 11.6536 13.8444 11.5202 14.0723 11.4355C14.3001 11.3509 14.5443 11.3086 14.8047 11.3086C15.026 11.3086 15.2441 11.3411 15.459 11.4062C15.6738 11.4714 15.8724 11.5755 16.0547 11.7188C16.0807 11.7448 16.2435 11.901 16.543 12.1875C16.8424 12.474 17.181 12.8125 17.5586 13.2031C18.1445 13.776 18.5319 14.1602 18.7207 14.3555C18.9095 14.5508 19.0234 14.6875 19.0625 14.7656C19.2969 15.1302 19.4141 15.5176 19.4141 15.9277C19.4141 16.3379 19.2904 16.7253 19.043 17.0898C18.9909 17.168 18.8118 17.3633 18.5059 17.6758C18.1999 17.9883 17.9818 18.1966 17.8516 18.3008C17.5 18.5872 17.1257 18.8184 16.7285 18.9941C16.3314 19.1699 15.8984 19.2969 15.4297 19.375C15.2604 19.401 15.0098 19.4141 14.6777 19.4141C14.3457 19.4141 14.0951 19.3945 13.9258 19.3555C13.6133 19.3034 13.3236 19.2318 13.0566 19.1406C12.7897 19.0495 12.5326 18.9323 12.2852 18.7891C12.1289 18.6979 11.8262 18.4961 11.377 18.1836C10.9277 17.8711 10.5143 17.5651 10.1367 17.2656C9.31641 16.6406 8.51562 15.9831 7.73438 15.293C6.96615 14.6029 6.22721 13.8835 5.51758 13.1348C4.80794 12.3861 4.1276 11.6081 3.47656 10.8008C2.8125 9.99349 2.1875 9.16667 1.60156 8.32031C1.44531 8.09896 1.33789 7.93294 1.2793 7.82227C1.2207 7.71159 1.15234 7.57812 1.07422 7.42188C0.957031 7.20052 0.859375 6.95312 0.78125 6.67969C0.703125 6.40625 0.651042 6.13281 0.625 5.85938C0.598958 5.70312 0.589193 5.49479 0.595703 5.23438C0.602214 4.97396 0.61849 4.75911 0.644531 4.58984C0.709635 4.14714 0.823568 3.73698 0.986328 3.35938C1.14909 2.98177 1.36719 2.61068 1.64062 2.24609C1.74479 2.11588 1.96289 1.88477 2.29492 1.55273C2.62695 1.2207 2.83854 1.02213 2.92969 0.957031C3.0599 0.878906 3.19336 0.810547 3.33008 0.751953C3.4668 0.693359 3.60677 0.651041 3.75 0.625ZM3.96484 1.85547C3.84766 1.88151 3.74674 1.92383 3.66211 1.98242C3.57747 2.04102 3.41797 2.19401 3.18359 2.44141C2.89714 2.72787 2.69206 2.95247 2.56836 3.11523C2.44466 3.27799 2.32422 3.47656 2.20703 3.71094C2.07682 3.98438 1.98568 4.24154 1.93359 4.48242C1.88151 4.72331 1.85547 5 1.85547 5.3125C1.85547 5.61198 1.87826 5.8724 1.92383 6.09375C1.9694 6.3151 2.05078 6.55599 2.16797 6.81641C2.23307 6.94661 2.29818 7.07031 2.36328 7.1875C2.42839 7.30469 2.54557 7.48047 2.71484 7.71484C3.35286 8.63932 4.04297 9.54427 4.78516 10.4297C5.51432 11.3021 6.28255 12.1419 7.08984 12.9492C7.89714 13.7565 8.73698 14.5247 9.60938 15.2539C10.4948 15.9831 11.3997 16.6732 12.3242 17.3242C12.5846 17.5065 12.7897 17.64 12.9395 17.7246C13.0892 17.8092 13.2487 17.8776 13.418 17.9297C13.6393 18.0078 13.8509 18.0664 14.0527 18.1055C14.2546 18.1445 14.4727 18.1641 14.707 18.1641C15.1107 18.1641 15.498 18.1022 15.8691 17.9785C16.2402 17.8548 16.5951 17.6693 16.9336 17.4219C17.0638 17.3307 17.2754 17.1354 17.5684 16.8359C17.8613 16.5365 18.0273 16.3607 18.0664 16.3086C18.1315 16.1784 18.1641 16.0449 18.1641 15.9082C18.1641 15.7715 18.1315 15.6445 18.0664 15.5273C18.0534 15.5013 17.9036 15.3385 17.6172 15.0391C17.3438 14.7526 17.0378 14.4401 16.6992 14.1016C16.3607 13.763 16.0417 13.4505 15.7422 13.1641C15.4557 12.8776 15.293 12.7214 15.2539 12.6953C15.1758 12.6432 15.1042 12.6074 15.0391 12.5879C14.974 12.5684 14.8958 12.5586 14.8047 12.5586C14.6745 12.5586 14.5671 12.5781 14.4824 12.6172C14.3978 12.6562 14.2969 12.7279 14.1797 12.832C14.0365 12.9492 13.8997 13.0469 13.7695 13.125C13.6393 13.2031 13.4961 13.2617 13.3398 13.3008C13.0273 13.3919 12.7116 13.4082 12.3926 13.3496C12.0736 13.291 11.7839 13.1641 11.5234 12.9688C11.4714 12.9297 11.2467 12.7148 10.8496 12.3242C10.4525 11.9336 9.90234 11.3932 9.19922 10.7031C8.37891 9.86979 7.8125 9.29362 7.5 8.97461C7.1875 8.6556 7.01172 8.46354 6.97266 8.39844C6.86849 8.24219 6.78711 8.07617 6.72852 7.90039C6.66992 7.72461 6.63411 7.53906 6.62109 7.34375C6.60807 7.05729 6.64714 6.79036 6.73828 6.54297C6.82943 6.29557 6.97917 6.05469 7.1875 5.82031C7.26562 5.74219 7.32096 5.67383 7.35352 5.61523C7.38607 5.55664 7.41536 5.48828 7.44141 5.41016C7.46745 5.31901 7.47396 5.22135 7.46094 5.11719C7.44792 5.01302 7.41536 4.91536 7.36328 4.82422C7.35026 4.78516 7.23633 4.65495 7.02148 4.43359C6.80664 4.21224 6.46484 3.8737 5.99609 3.41797C5.64453 3.05338 5.32878 2.73438 5.04883 2.46094C4.76888 2.1875 4.61589 2.03776 4.58984 2.01172C4.51172 1.94662 4.41732 1.90104 4.30664 1.875C4.19596 1.84896 4.08203 1.84245 3.96484 1.85547Z" fill="#CCAB80"/>
</svg>
