<svg width="20" height="19" viewBox="0 0 20 19" fill="none" xmlns="http://www.w3.org/2000/svg">
<g clip-path="url(#clip0_23_81)">
<g clip-path="url(#clip1_23_81)">
<path d="M9.38464 0V4.61538H10V0.615375H15.4108L16.7692 1.97383V4.61538H17.3846V1.71847L15.6662 0H9.38464Z" fill="#CCAB80"/>
<path d="M10.7769 2.46132H14.2692V1.84595H10.7769V2.46132Z" fill="#CCAB80"/>
<path d="M10.7769 3.69228H16.2077V3.0769H10.7769V3.69228Z" fill="#CCAB80"/>
<path d="M6.30772 18.4614H3.84617C2.6731 18.4614 2 17.9006 2 16.923V3.99989C2 3.02219 2.6731 2.46143 3.84617 2.46143H6.30772C7.36003 2.46143 8.15385 3.25524 8.15385 4.30755V16.6022C8.15385 17.6791 7.37695 18.4614 6.30772 18.4614ZM3.84617 3.0768C2.6154 3.0768 2.61542 3.74758 2.61542 3.99989V16.923C2.61542 17.1753 2.6154 17.846 3.84617 17.846H6.30772C7.03234 17.846 7.53847 17.3345 7.53847 16.6022V4.30755C7.53847 3.58294 7.03234 3.0768 6.30772 3.0768H3.84617Z" fill="#CCAB80"/>
<path d="M17.6923 16.6153H7.84619V15.9999H17.6923C18.1408 15.9999 18.6154 15.5253 18.6154 15.0768V5.73842C18.6154 5.45688 18.4231 4.92304 17.6923 4.92304H7.84619V4.30762H17.6923C18.8131 4.30762 19.2308 5.18611 19.2308 5.73842V15.0768C19.2308 15.8676 18.4831 16.6153 17.6923 16.6153Z" fill="#CCAB80"/>
<path d="M2.30769 16.9076H1.85232C1.56519 16.9072 1.28992 16.793 1.08689 16.59C0.883862 16.387 0.769633 16.1117 0.769226 15.8246V5.73765C0.76943 5.45039 0.883559 5.17495 1.08661 4.97175C1.28966 4.76856 1.56506 4.65422 1.85232 4.65381H2.30769V5.26918H1.85232C1.72827 5.26959 1.60943 5.3191 1.52179 5.40689C1.43415 5.49468 1.3848 5.6136 1.3846 5.73765V15.8246C1.38501 15.9485 1.4344 16.0672 1.52202 16.1549C1.60965 16.2425 1.7284 16.2919 1.85232 16.2923H2.30769V16.9076Z" fill="#CCAB80"/>
<path d="M10.6154 8.61546H16.1269V6.20776H10.6154V8.61546ZM11.2307 8.00008H15.5115V6.82314H11.2307V8.00008Z" fill="#CCAB80"/>
<path d="M3.53844 3.07692C3.45683 3.07692 3.37857 3.04448 3.32087 2.98678C3.26317 2.92908 3.23077 2.85082 3.23077 2.76921V0.307711C3.23077 0.226106 3.26317 0.147848 3.32087 0.0901442C3.37857 0.0324407 3.45683 0 3.53844 0C3.62004 0 3.6983 0.0324407 3.756 0.0901442C3.81371 0.147848 3.84615 0.226106 3.84615 0.307711V2.76921C3.84615 2.85082 3.81371 2.92908 3.756 2.98678C3.6983 3.04448 3.62004 3.07692 3.53844 3.07692Z" fill="#CCAB80"/>
<path d="M10.6154 10.4616H11.2307V9.84619H10.6154V10.4616Z" fill="#CCAB80"/>
<path d="M13.0769 10.4616H13.6923V9.84619H13.0769V10.4616Z" fill="#CCAB80"/>
<path d="M15.5385 10.4616H16.1538V9.84619H15.5385V10.4616Z" fill="#CCAB80"/>
<path d="M10.6154 12.3075H11.2307V11.6921H10.6154V12.3075Z" fill="#CCAB80"/>
<path d="M13.0769 12.3075H13.6923V11.6921H13.0769V12.3075Z" fill="#CCAB80"/>
<path d="M15.5385 12.3075H16.1538V11.6921H15.5385V12.3075Z" fill="#CCAB80"/>
<path d="M10.6154 14.154H11.2307V13.5386H10.6154V14.154Z" fill="#CCAB80"/>
<path d="M13.0769 14.154H13.6923V13.5386H13.0769V14.154Z" fill="#CCAB80"/>
<path d="M15.5385 14.154H16.1538V13.5386H15.5385V14.154Z" fill="#CCAB80"/>
</g>
</g>
<defs>
<clipPath id="clip0_23_81">
<rect width="20" height="18.4615" fill="white"/>
</clipPath>
<clipPath id="clip1_23_81">
<rect width="18.4615" height="18.4615" fill="white" transform="translate(0.769226)"/>
</clipPath>
</defs>
</svg>
