<svg width="16" height="19" viewBox="0 0 16 19" fill="none" xmlns="http://www.w3.org/2000/svg">
<path d="M7.229 0.0195312C7.30713 0.00650978 7.382 0 7.45361 0C7.52523 0 7.56755 0 7.58057 0C7.64567 0 7.81169 0.00650978 8.07861 0.0195312C8.34554 0.0325527 8.5376 0.0455723 8.65479 0.0585938C9.05843 0.110678 9.45231 0.195312 9.83643 0.3125C10.2205 0.429688 10.6014 0.579428 10.979 0.761719C11.7472 1.1263 12.4438 1.62109 13.0688 2.24609C13.6938 2.87109 14.1951 3.57422 14.5728 4.35547C14.7681 4.75911 14.9211 5.16927 15.0317 5.58594C15.1424 6.0026 15.2238 6.44531 15.2759 6.91406C15.3019 7.05729 15.3149 7.31771 15.3149 7.69531C15.3149 8.07292 15.3019 8.35286 15.2759 8.53516C15.2108 9.26432 15.0903 9.94792 14.9146 10.5859C14.7388 11.224 14.4881 11.8685 14.1626 12.5195C13.8501 13.1445 13.4953 13.7305 13.0981 14.2773C12.701 14.8242 12.2355 15.3711 11.7017 15.918C11.3892 16.2305 11.0929 16.5104 10.813 16.7578C10.533 17.0052 10.2173 17.2591 9.86572 17.5195C9.59229 17.7279 9.2863 17.9427 8.94775 18.1641C8.60921 18.3854 8.35531 18.5417 8.18604 18.6328C8.12093 18.6589 8.0363 18.6849 7.93213 18.7109C7.82796 18.737 7.73682 18.75 7.65869 18.75C7.58057 18.75 7.48942 18.737 7.38525 18.7109C7.28109 18.6849 7.19645 18.6589 7.13135 18.6328C6.96208 18.5547 6.71143 18.4049 6.37939 18.1836C6.04736 17.9622 5.74463 17.7474 5.47119 17.5391C5.10661 17.2656 4.78434 17.0085 4.50439 16.7676C4.22445 16.5267 3.92822 16.2435 3.61572 15.918C3.08187 15.3711 2.61637 14.8242 2.21924 14.2773C1.8221 13.7305 1.46729 13.1445 1.15479 12.5195C0.959473 12.1159 0.790202 11.7253 0.646973 11.3477C0.503743 10.9701 0.386556 10.5794 0.29541 10.1758C0.152181 9.60286 0.0610352 9.01042 0.0219727 8.39844C-0.0170898 7.78646 -0.00406901 7.22005 0.0610352 6.69922C0.113118 6.28255 0.204264 5.86263 0.334473 5.43945C0.464681 5.01628 0.620931 4.61589 0.803223 4.23828C1.11572 3.6263 1.49333 3.06641 1.93604 2.55859C2.39176 2.05078 2.89958 1.61458 3.45947 1.25C4.01937 0.885416 4.61833 0.598959 5.25635 0.390625C5.89437 0.182291 6.55192 0.0585938 7.229 0.0195312ZM7.13135 1.26953C6.84489 1.29557 6.55518 1.34115 6.26221 1.40625C5.96924 1.47135 5.67952 1.55599 5.39307 1.66016C5.26286 1.71224 5.06755 1.80338 4.80713 1.93359C4.54671 2.0638 4.35791 2.16797 4.24072 2.24609C3.49854 2.71484 2.87679 3.3138 2.37549 4.04297C1.87419 4.77214 1.5389 5.5599 1.36963 6.40625C1.30452 6.77083 1.26872 7.1582 1.26221 7.56836C1.2557 7.97852 1.27848 8.40495 1.33057 8.84766C1.42171 9.57682 1.59749 10.293 1.85791 10.9961C2.11833 11.6992 2.46338 12.3796 2.89307 13.0371C3.32275 13.6947 3.82406 14.3294 4.39697 14.9414C4.98291 15.5404 5.64046 16.1133 6.36963 16.6602C6.52588 16.7643 6.71143 16.888 6.92627 17.0312C7.14111 17.1745 7.32015 17.2852 7.46338 17.3633L7.65869 17.5L7.9126 17.3438C8.65479 16.888 9.37419 16.3542 10.0708 15.7422C10.7674 15.1302 11.3696 14.4857 11.8774 13.8086C12.255 13.3268 12.5806 12.832 12.854 12.3242C13.1274 11.8164 13.3553 11.2956 13.5376 10.7617C13.7199 10.2279 13.8566 9.6875 13.9478 9.14062C14.0259 8.59375 14.0584 8.04688 14.0454 7.5C14.0454 7.26562 14.0356 7.07031 14.0161 6.91406C13.9966 6.75781 13.9673 6.57552 13.9282 6.36719C13.759 5.52083 13.4237 4.73633 12.9224 4.01367C12.4211 3.29102 11.8058 2.70182 11.0767 2.24609C10.9465 2.16797 10.7544 2.0638 10.5005 1.93359C10.2466 1.80338 10.0545 1.71224 9.92432 1.66016C9.46859 1.50391 9.00309 1.38997 8.52783 1.31836C8.05257 1.24674 7.58708 1.23047 7.13135 1.26953ZM7.24854 3.53516C8.21208 3.44401 9.10075 3.66211 9.91455 4.18945C10.7284 4.7168 11.285 5.4362 11.5845 6.34766C11.7407 6.82943 11.8091 7.32422 11.7896 7.83203C11.77 8.33984 11.6626 8.82812 11.4673 9.29688C11.1808 9.96094 10.7479 10.5111 10.1685 10.9473C9.58903 11.3835 8.93473 11.6536 8.20557 11.7578C8.07536 11.7839 7.89307 11.7969 7.65869 11.7969C7.42432 11.7969 7.24202 11.7839 7.11182 11.7578C6.65609 11.6927 6.2264 11.5625 5.82275 11.3672C5.41911 11.1719 5.06104 10.918 4.74854 10.6055C4.18864 10.0456 3.81755 9.38477 3.63525 8.62305C3.45296 7.86133 3.48551 7.10286 3.73291 6.34766C3.98031 5.57943 4.42627 4.93815 5.0708 4.42383C5.71533 3.9095 6.44124 3.61328 7.24854 3.53516ZM7.34619 4.78516C7.15088 4.8112 6.9751 4.85026 6.81885 4.90234C6.6626 4.95443 6.51286 5.01302 6.36963 5.07812C5.93994 5.28646 5.58838 5.58594 5.31494 5.97656C5.0415 6.36719 4.87223 6.80339 4.80713 7.28516C4.78109 7.38932 4.77132 7.54883 4.77783 7.76367C4.78434 7.97852 4.80062 8.13802 4.82666 8.24219C4.89176 8.51562 4.98942 8.77604 5.11963 9.02344C5.24984 9.27083 5.41911 9.49219 5.62744 9.6875C5.87484 9.9349 6.15153 10.1302 6.45752 10.2734C6.76351 10.4167 7.09229 10.5013 7.44385 10.5273C7.86051 10.5664 8.26416 10.5111 8.65479 10.3613C9.04541 10.2116 9.39046 9.98698 9.68994 9.6875C9.89827 9.49219 10.0675 9.27083 10.1978 9.02344C10.328 8.77604 10.4256 8.51562 10.4907 8.24219C10.5168 8.13802 10.533 7.98177 10.5396 7.77344C10.5461 7.5651 10.5363 7.40234 10.5103 7.28516C10.4582 6.86849 10.3182 6.47786 10.0903 6.11328C9.86247 5.7487 9.55973 5.44922 9.18213 5.21484C9.06494 5.13672 8.91846 5.06185 8.74268 4.99023C8.56689 4.91862 8.40088 4.86328 8.24463 4.82422C8.15348 4.8112 8.00049 4.79818 7.78564 4.78516C7.5708 4.77214 7.42432 4.77214 7.34619 4.78516Z" fill="#CCAB80"/>
</svg>
