<svg width="16" height="16" viewBox="0 0 16 16" fill="none" xmlns="http://www.w3.org/2000/svg">
<path d="M15.5001 13.4969L15.5001 6.05556C15.5001 5.4983 15.2216 4.97791 14.7579 4.6688L8.92456 0.779916C8.36473 0.406694 7.63539 0.406694 7.07556 0.779915L1.24223 4.6688C0.778564 4.97791 0.500062 5.4983 0.500062 6.05555L0.500061 13.4969M15.5001 13.4969C15.5001 14.4174 14.7539 15.1636 13.8334 15.1636L2.16673 15.1636C1.24625 15.1636 0.500061 14.4174 0.500061 13.4969M15.5001 13.4969L9.87506 9.74692M0.500061 13.4969L6.12506 9.74691M15.5001 5.99692L9.87506 9.74692M0.500062 5.99691L6.12506 9.74691M6.12506 9.74691L7.07556 10.3806C7.63539 10.7538 8.36473 10.7538 8.92456 10.3806L9.87506 9.74692" stroke="#CCAB80" stroke-linecap="round" stroke-linejoin="round"/>
</svg>
