<svg width="24" height="22" viewBox="0 0 24 22" fill="none" xmlns="http://www.w3.org/2000/svg">
<path d="M14.952 3.06864C14.1532 3.46804 13.1171 3.74486 11.9624 3.74486C10.6851 3.74486 9.53039 3.42454 8.69203 2.94604C7.6164 4.78094 6.93622 7.4107 6.93622 9.80319C6.93622 11.7567 7.41472 13.5521 8.17398 14.9085C8.57339 15.6282 9.05189 16.2253 9.60948 16.6247H13.9555C14.4735 16.2253 14.952 15.6677 15.3514 14.9915C16.1503 13.6351 16.6288 11.8002 16.6288 9.7676C16.6288 7.4542 15.9921 4.90353 14.956 3.06864H14.952Z" fill="#2F324A"/>
<path d="M2.03261 6.49731C2.5902 6.49731 3.02915 6.93627 3.02915 7.49385C3.02915 8.05144 2.5902 8.49039 2.03261 8.49039C1.47502 8.49039 1.03607 8.0119 1.03607 7.49385C1.03607 6.93627 1.47502 6.49731 2.03261 6.49731Z" fill="#2F324A"/>
<path d="M21.9674 10.9659C22.525 10.9659 22.9639 11.4049 22.9639 11.9625C22.9639 12.5201 22.525 12.959 21.9674 12.959C21.4098 12.959 20.9708 12.5201 20.9708 11.9625C20.9708 11.4049 21.4098 10.9659 21.9674 10.9659Z" fill="#2F324A"/>
<path d="M19.9742 0.478516C20.8126 0.478516 21.4888 1.15869 21.4888 1.9931C21.4888 2.8275 20.8086 3.50768 19.9742 3.50768C19.1398 3.50768 18.4597 2.8275 18.4597 1.9931C18.4597 1.15869 19.1398 0.478516 19.9742 0.478516Z" fill="#2F324A"/>
<path d="M11.8003 8.73157C12.1206 8.73157 12.3974 9.01234 12.3974 9.3287C12.3974 9.68856 12.1166 9.92583 11.8003 9.92583C11.4839 9.92583 11.2031 9.64506 11.2031 9.3287C11.2031 9.01234 11.4839 8.73157 11.8003 8.73157Z" fill="#CCAB80"/>
<path d="M11.8003 6.77795C13.2318 6.77795 14.3905 7.93663 14.3905 9.36817C14.3905 10.7997 13.2318 11.9584 11.8003 11.9584C10.3688 11.9584 9.21008 10.7997 9.21008 9.36817C9.21008 7.93663 10.3688 6.77795 11.8003 6.77795Z" fill="#2F324A"/>
<path d="M13.9555 16.5852H9.64904L7.7746 19.816C8.6525 19.816 9.36827 20.5318 9.36827 21.4097C9.36827 20.0929 10.4439 18.9777 11.8003 18.9777C13.1567 18.9777 14.2323 20.0533 14.2323 21.4097C14.2323 20.5318 14.9481 19.816 15.826 19.816L13.9516 16.5852H13.9555Z" fill="#2F324A"/>
<path d="M8.21351 14.873L8.01579 14.9916L4.54767 14.1928L6.9797 9.7677C6.9797 11.7212 7.4582 13.5166 8.21747 14.873H8.21351Z" fill="#2F324A"/>
<path d="M16.6248 9.7677L19.0568 14.1928L15.5096 14.9916L15.3514 14.9521C16.1503 13.5957 16.6288 11.7608 16.6288 9.7677H16.6248Z" fill="#2F324A"/>
<path d="M14.9521 3.06878C14.1533 3.46819 13.1172 3.74501 11.9625 3.74501C10.6852 3.74501 9.53044 3.42469 8.69208 2.94619C9.53044 1.5107 10.6061 0.51416 11.7608 0.51416C12.9986 0.51416 14.1137 1.5107 14.9521 3.06483V3.06878Z" fill="#2F324A"/>
<path d="M19.9743 15.4701H18.9777V16.4666H19.9743V15.4701Z" fill="#CCAB80"/>
<path d="M19.9743 8.49426H18.9777V9.4908H19.9743V8.49426Z" fill="#CCAB80"/>
<path d="M19.9743 6.49731H18.9777V7.49385H19.9743V6.49731Z" fill="#CCAB80"/>
<path d="M18.9778 7.4978H17.9813V8.49434H18.9778V7.4978Z" fill="#CCAB80"/>
<path d="M18.9778 5.50073H17.9813V6.49727H18.9778V5.50073Z" fill="#CCAB80"/>
<path d="M6.01882 16.4666H5.02228V17.4631H6.01882V16.4666Z" fill="#CCAB80"/>
<path d="M4.02571 3.50769H3.02917V4.50423H4.02571V3.50769Z" fill="#CCAB80"/>
<path d="M4.02571 1.51465H3.02917V2.51119H4.02571V1.51465Z" fill="#CCAB80"/>
<path d="M3.02913 2.51111H2.03259V3.50765H3.02913V2.51111Z" fill="#CCAB80"/>
<path d="M3.02913 0.518066H2.03259V1.51461H3.02913V0.518066Z" fill="#CCAB80"/>
<path d="M2.55062 10.9659H1.55408V11.9625H2.55062V10.9659Z" fill="#CCAB80"/>
<path d="M15.4701 15.4701C15.2329 15.4701 15.0312 15.3119 14.9916 15.0707C14.9125 14.7899 15.1103 14.5527 15.3515 14.4736L18.262 13.7974L16.1899 10.0089C16.0712 9.77166 16.1503 9.45134 16.3876 9.3327C16.6288 9.21407 16.9452 9.29316 17.0638 9.53043L19.4958 13.9555C19.5749 14.0742 19.5749 14.2759 19.4958 14.3945C19.4167 14.5527 19.2981 14.6318 19.136 14.6753L15.5888 15.4741H15.4701V15.4701Z" fill="#CCAB80"/>
<path d="M8.01193 15.4702H7.89329L4.42518 14.6713C4.267 14.6318 4.14441 14.5527 4.06532 14.3906C3.98623 14.2324 4.02577 14.0703 4.06532 13.9516L6.49735 9.5265C6.61598 9.28528 6.9363 9.20619 7.17357 9.32878C7.41084 9.44741 7.49389 9.76773 7.3713 10.005L5.25958 13.8725L8.09102 14.5092C8.37179 14.5883 8.52997 14.8295 8.45088 15.1063C8.45088 15.3436 8.25316 15.4662 8.01193 15.4662V15.4702Z" fill="#CCAB80"/>
<path d="M13.9555 17.1033H9.649C9.53037 17.1033 9.40778 17.0638 9.32869 16.9847C8.73155 16.5062 8.21351 15.8695 7.77456 15.1103C6.9362 13.6352 6.4577 11.7212 6.4577 9.7677C6.4577 7.33566 7.13393 4.62286 8.2926 2.66933C8.41124 2.4281 8.73155 2.34901 8.96883 2.4716C9.2061 2.59024 9.28914 2.91055 9.16655 3.14782C8.13047 4.94318 7.49379 7.4543 7.49379 9.72815C7.49379 11.5235 7.89319 13.2754 8.64851 14.5922C9.00837 15.1893 9.40778 15.7074 9.84277 16.0673H13.7894C14.1888 15.7074 14.5882 15.2289 14.9046 14.6713C15.7034 13.3149 16.1423 11.563 16.1423 9.72815C16.1423 7.53734 15.5452 5.06181 14.5487 3.27041C14.43 3.02919 14.5091 2.71283 14.7464 2.59419C14.9837 2.47555 15.304 2.55465 15.4226 2.79192C16.4982 4.70591 17.1389 7.37521 17.1389 9.72815C17.1389 11.7608 16.6604 13.6748 15.7825 15.1893C15.3435 15.9051 14.865 16.5062 14.2679 16.9452C14.1888 17.0638 14.0702 17.1033 13.9476 17.1033H13.9555Z" fill="#CCAB80"/>
<path d="M11.9624 4.22738C10.6456 4.22738 9.41175 3.90707 8.45475 3.34948C8.21748 3.23084 8.13444 2.91053 8.29657 2.67326C9.29311 0.956994 10.5309 0 11.8042 0C13.0776 0 14.3944 0.99654 15.391 2.83144C15.4701 2.95007 15.4701 3.06871 15.4305 3.23084C15.391 3.34948 15.3119 3.46812 15.1893 3.51162C14.2719 3.95057 13.1567 4.22738 11.9585 4.22738H11.9624ZM9.40779 2.7128C10.1236 3.03312 11.041 3.23084 11.9585 3.23084C12.7573 3.23084 13.5521 3.11221 14.2323 2.83144C13.473 1.63717 12.5991 0.99654 11.8003 0.99654C11.0015 0.99654 10.1671 1.59367 9.40779 2.7128Z" fill="#CCAB80"/>
<path d="M11.8003 12.4805C10.0841 12.4805 8.69208 11.0846 8.69208 9.37229C8.69208 7.65998 10.088 6.26404 11.8003 6.26404C13.5126 6.26404 14.9086 7.65998 14.9086 9.37229C14.9086 11.0846 13.5126 12.4805 11.8003 12.4805ZM11.8003 7.25662C10.6456 7.25662 9.68862 8.21362 9.68862 9.36834C9.68862 10.5231 10.6456 11.4801 11.8003 11.4801C12.9551 11.4801 13.912 10.5231 13.912 9.36834C13.912 8.21362 12.9551 7.25662 11.8003 7.25662Z" fill="#CCAB80"/>
<path d="M11.8004 10.4873C11.2032 10.4873 10.6852 9.96927 10.6852 9.37213C10.6852 8.775 11.2032 8.25696 11.8004 8.25696C12.3975 8.25696 12.9155 8.775 12.9155 9.37213C12.9155 9.96927 12.3975 10.4873 11.8004 10.4873Z" fill="#CCAB80"/>
<path d="M9.36828 21.9279C9.08751 21.9279 8.85024 21.6906 8.85024 21.4098C8.85024 20.8127 8.33219 20.2946 7.73506 20.2946C7.13793 20.2946 6.61989 20.8127 6.61989 21.4098C6.61989 21.6906 6.38262 21.9279 6.10184 21.9279C5.82107 21.9279 5.5838 21.6906 5.5838 21.4098C5.5838 20.2551 6.5408 19.2981 7.69552 19.2981C8.85024 19.2981 9.80723 20.2551 9.80723 21.4098C9.88632 21.6906 9.64905 21.9279 9.36828 21.9279Z" fill="#CCAB80"/>
<path d="M6.18092 21.9278C5.90015 21.9278 5.66288 21.6906 5.66288 21.4098C5.66288 20.8127 5.14484 20.2946 4.54771 20.2946C4.26693 20.2946 4.02966 20.0574 4.02966 19.7766C4.02966 19.4958 4.26693 19.2585 4.54771 19.2585C5.70243 19.2585 6.65942 20.2155 6.65942 21.3703C6.65942 21.6906 6.46169 21.9278 6.18092 21.9278Z" fill="#CCAB80"/>
<path d="M17.4236 21.9279C17.1429 21.9279 16.9056 21.6906 16.9056 21.4098C16.9056 20.8127 16.3876 20.2946 15.7904 20.2946C15.1933 20.2946 14.6752 20.8127 14.6752 21.4098C14.6752 21.6906 14.438 21.9279 14.1572 21.9279C13.8764 21.9279 13.6392 21.6906 13.6392 21.4098C13.6392 20.2551 14.5962 19.2981 15.7509 19.2981C16.9056 19.2981 17.8626 20.2551 17.8626 21.4098C17.9417 21.6906 17.7044 21.9279 17.4236 21.9279Z" fill="#CCAB80"/>
<path d="M17.4236 21.9278C17.1428 21.9278 16.9056 21.6906 16.9056 21.4098C16.9056 20.7731 17.2654 20.0534 17.823 19.654C18.3411 19.2546 18.9777 19.1359 19.5788 19.3337C19.8596 19.4128 19.9782 19.6935 19.9387 19.9308C19.8596 20.2116 19.5788 20.3302 19.3416 20.2907C18.9422 20.172 18.6218 20.3302 18.4637 20.4488C18.1433 20.6861 17.9456 21.0855 17.9456 21.4058C17.9456 21.6866 17.7044 21.9239 17.4276 21.9239L17.4236 21.9278Z" fill="#CCAB80"/>
<path d="M14.2323 21.9278C13.9516 21.9278 13.7143 21.6906 13.7143 21.4098C13.7143 20.3342 12.8364 19.4958 11.8003 19.4958C10.7642 19.4958 9.88631 20.3737 9.88631 21.4098C9.88631 21.6906 9.64903 21.9278 9.36826 21.9278C9.08749 21.9278 8.85022 21.6906 8.85022 21.4098C8.85022 19.8161 10.1671 18.4993 11.7607 18.4993C13.3544 18.4993 14.6713 19.8161 14.6713 21.4098C14.7108 21.6906 14.4736 21.9278 14.2323 21.9278Z" fill="#CCAB80"/>
<path d="M15.8299 20.3342C15.6718 20.3342 15.4701 20.2551 15.391 20.097L13.5165 16.8661C13.3979 16.6288 13.477 16.3085 13.7143 16.1899C13.9515 16.0712 14.2719 16.1503 14.3905 16.3876L16.2649 19.6185C16.3836 19.8557 16.3045 20.176 16.0672 20.2947C15.9881 20.2947 15.909 20.3342 15.8299 20.3342Z" fill="#CCAB80"/>
<path d="M7.77463 20.3342C7.69554 20.3342 7.61645 20.2947 7.5334 20.2551C7.29613 20.1365 7.21308 19.8162 7.33567 19.5789L9.21012 16.348C9.32875 16.1068 9.64907 16.0277 9.88634 16.1503C10.1236 16.2689 10.2067 16.5893 10.0841 16.8265L8.20962 20.0574C8.13053 20.2156 7.92885 20.3382 7.77067 20.3382L7.77463 20.3342Z" fill="#CCAB80"/>
<path d="M11.8003 19.4563C11.5195 19.4563 11.2822 19.2151 11.2822 18.9382V13.9555C11.2822 13.6748 11.5195 13.4375 11.8003 13.4375C12.081 13.4375 12.3183 13.6787 12.3183 13.9555V18.9382C12.3183 19.219 12.081 19.4563 11.8003 19.4563Z" fill="#CCAB80"/>
<path d="M23.4819 20.4529C23.2012 20.4529 22.9639 20.2116 22.9639 19.9348C22.9639 19.0965 22.2877 18.4202 21.4493 18.4202C20.6109 18.4202 19.9347 19.0965 19.9347 19.9348C19.9347 20.2156 19.6935 20.4529 19.4167 20.4529C19.1399 20.4529 18.9777 20.2116 18.9777 19.9348C18.9777 18.5784 20.0929 17.4237 21.4888 17.4237C22.8848 17.4237 24 18.5389 24 19.9348C23.9604 20.2156 23.7192 20.4529 23.4819 20.4529Z" fill="#CCAB80"/>
<path d="M4.54375 20.4529C4.26298 20.4529 4.0257 20.2116 4.0257 19.9348C4.0257 19.0965 3.34948 18.4202 2.51112 18.4202C1.67276 18.4202 1.03609 19.0965 1.03609 19.9348C1.03609 20.2156 0.79486 20.4529 0.518043 20.4529C0.241226 20.4529 0 20.2116 0 19.9348C0 18.5784 1.11518 17.4237 2.51112 17.4237C3.90707 17.4237 5.02224 18.5784 5.02224 19.9348C5.02224 20.2156 4.78497 20.4529 4.54375 20.4529Z" fill="#CCAB80"/>
<path d="M2.03259 8.97277C1.19423 8.97277 0.518005 8.29655 0.518005 7.45819C0.518005 6.61983 1.19423 5.9436 2.03259 5.9436C2.87095 5.9436 3.54717 6.61983 3.54717 7.45819C3.54717 8.29655 2.87095 8.97277 2.03259 8.97277ZM2.03259 6.97573C1.75182 6.97573 1.51454 7.21301 1.51454 7.49378C1.51454 7.77455 1.75182 8.01182 2.03259 8.01182C2.31336 8.01182 2.55063 7.77455 2.55063 7.49378C2.55063 7.21301 2.31336 6.97573 2.03259 6.97573Z" fill="#CCAB80"/>
<path d="M21.9674 13.477C21.129 13.477 20.4528 12.8008 20.4528 11.9625C20.4528 11.1241 21.129 10.4479 21.9674 10.4479C22.8058 10.4479 23.482 11.1241 23.482 11.9625C23.482 12.8008 22.8058 13.477 21.9674 13.477ZM21.9674 11.484C21.6866 11.484 21.4494 11.7212 21.4494 12.002C21.4494 12.2828 21.6906 12.52 21.9674 12.52C22.2442 12.52 22.4854 12.2828 22.4854 12.002C22.4854 11.7212 22.2482 11.484 21.9674 11.484Z" fill="#CCAB80"/>
<path d="M19.9743 3.98616C18.8592 3.98616 17.9813 3.10825 17.9813 1.99308C17.9813 0.877904 18.8592 0 19.9743 0C21.0895 0 21.9674 0.877904 21.9674 1.99308C21.9674 3.10825 21.0895 3.98616 19.9743 3.98616ZM19.9743 0.99654C19.4168 0.99654 18.9778 1.43549 18.9778 1.99308C18.9778 2.55067 19.4168 2.98962 19.9743 2.98962C20.5319 2.98962 20.9709 2.55067 20.9709 1.99308C20.9709 1.43549 20.5319 0.99654 19.9743 0.99654Z" fill="#CCAB80"/>
</svg>
