<svg width="24" height="24" viewBox="0 0 24 24" fill="none" xmlns="http://www.w3.org/2000/svg">
<path d="M1.55064 1.55066C2.12149 1.55066 2.57088 2.00005 2.57088 2.5709C2.57088 3.14175 2.12149 3.59114 1.55064 3.59114C0.979788 3.59114 0.530396 3.14175 0.530396 2.5709C0.530396 2.00005 0.979788 1.55066 1.55064 1.55066Z" fill="#2F324A"/>
<path d="M18.8988 21.4291C19.4696 21.4291 19.919 21.8785 19.919 22.4493C19.919 23.0202 19.4696 23.4696 18.8988 23.4696C18.3279 23.4696 17.8785 23.0202 17.8785 22.4493C17.8785 21.8785 18.3279 21.4291 18.8988 21.4291Z" fill="#2F324A"/>
<path d="M21.9595 0.48584C22.8178 0.48584 23.5101 1.1822 23.5101 2.03645C23.5101 2.8907 22.8178 3.58705 21.9595 3.58705C21.1012 3.58705 20.4089 2.8907 20.4089 2.03645C20.4089 1.1822 21.1012 0.48584 21.9595 0.48584Z" fill="#2F324A"/>
<path d="M21.9595 10.4899V12.6114C21.9595 13.0608 21.6316 13.4292 21.1822 13.4292L19.6316 13.5507C19.4291 14.328 19.1417 15.0608 18.7328 15.7126L19.753 16.8948C20.0405 17.2227 19.9959 17.7126 19.7125 18.0365L18.1619 19.5466C17.834 19.8745 17.3441 19.8745 17.0202 19.5871L15.838 18.5668C15.1862 18.9758 14.4494 19.2592 13.6761 19.4656L13.5546 21.0162C13.5142 21.4656 13.1457 21.7936 12.7368 21.7936H10.6154C10.166 21.7936 9.79756 21.4656 9.79756 21.0162L9.6761 19.4251C8.90282 19.2227 8.16598 18.9353 7.51416 18.5264L6.33197 19.5466C6.00404 19.8341 5.51416 19.7936 5.19027 19.5061L3.63966 18.0365C3.31173 17.7085 3.31173 17.2187 3.59918 16.8948L4.61942 15.7126C4.21051 15.0608 3.92711 14.3239 3.72064 13.5507L2.17003 13.4292C1.72064 13.3887 1.3927 13.0203 1.3927 12.6114V10.4899C1.3927 10.0405 1.72064 9.67211 2.17003 9.67211L3.72064 9.55065C3.92306 8.77333 4.21051 8.04053 4.61942 7.38871L3.59918 6.20652C3.31173 5.87859 3.35626 5.38871 3.63966 5.06482L5.14979 3.5547C5.47772 3.22677 5.9676 3.22677 6.29149 3.51422L7.47367 4.53446C8.12549 4.12555 8.86234 3.84215 9.63561 3.63567L9.75707 2.08507C9.79756 1.63567 10.166 1.30774 10.5749 1.30774H12.6963C13.1457 1.30774 13.5142 1.63567 13.5142 2.08507L13.6356 3.63567C14.4089 3.8381 15.1457 4.12555 15.7976 4.53446L16.9797 3.51422C17.3077 3.22677 17.7976 3.2713 18.1214 3.5547L19.6316 5.06482C19.9595 5.39276 19.9595 5.88264 19.6721 6.20652L18.7328 7.34822C19.1417 8.00005 19.4251 8.73689 19.6316 9.51017L21.2227 9.63163C21.6316 9.67211 21.9555 10.0405 21.9555 10.4899H21.9595ZM12.8138 11.5507C12.8138 10.8583 12.2429 10.2834 11.5465 10.2834C10.8502 10.2834 10.2834 10.8543 10.2834 11.5507C10.2834 12.247 10.8542 12.8138 11.5465 12.8138C12.2389 12.8138 12.8138 12.243 12.8138 11.5507Z" fill="#2F324A"/>
<path d="M2.04051 21.4291H1.02026V22.4493H2.04051V21.4291Z" fill="#CCAB80"/>
<path d="M2.04051 19.3887H1.02026V20.4089H2.04051V19.3887Z" fill="#CCAB80"/>
<path d="M2.04051 17.3441H1.02026V18.3644H2.04051V17.3441Z" fill="#CCAB80"/>
<path d="M1.02024 22.4493H0V23.4696H1.02024V22.4493Z" fill="#CCAB80"/>
<path d="M1.02024 20.4088H0V21.4291H1.02024V20.4088Z" fill="#CCAB80"/>
<path d="M1.02024 18.3644H0V19.3846H1.02024V18.3644Z" fill="#CCAB80"/>
<path d="M12.7328 22.328H10.6114C9.91905 22.328 9.34415 21.7976 9.26318 21.1013L9.18221 19.8786C8.61135 19.7167 8.08099 19.4697 7.55062 19.2268L6.61135 20.0041C6.36844 20.2066 6.0405 20.3321 5.75305 20.3321C5.38463 20.3321 5.06075 20.2106 4.81378 19.9232L3.30366 18.413C2.81378 17.9232 2.7733 17.1053 3.22269 16.575L4.00002 15.6357C3.71257 15.1053 3.51014 14.575 3.3482 14.0041L2.12552 13.9232C1.43322 13.8827 0.898804 13.2713 0.898804 12.575V10.4535C0.898804 9.76121 1.42917 9.19036 2.12552 9.10534L3.3482 9.02437C3.51014 8.45352 3.7571 7.92315 4.00002 7.39279L3.22269 6.494C2.7733 5.96364 2.81378 5.14582 3.30366 4.65595L4.81378 3.14583C5.06075 2.90291 5.42512 2.73692 5.75305 2.73692C6.08099 2.73692 6.36439 2.85838 6.61135 3.06485L7.55062 3.83813C8.08099 3.55473 8.61135 3.34825 9.18221 3.18631L9.26318 1.96364C9.30366 1.27133 9.915 0.740967 10.6114 0.740967H12.7328C13.4251 0.740967 14 1.27133 14.081 1.96364L14.162 3.18631C14.7328 3.34825 15.2632 3.59522 15.7935 3.83813L16.7328 3.06485C16.9798 2.86242 17.3037 2.73692 17.5911 2.73692C17.9595 2.73692 18.2834 2.85838 18.5304 3.14583L20.0405 4.65595C20.5304 5.14582 20.5709 5.96364 20.1215 6.494L19.3441 7.43327C19.6316 7.96364 19.834 8.494 19.996 9.06485L21.2227 9.14583C21.915 9.18631 22.4454 9.79765 22.4454 10.494V12.6155C22.4454 13.3078 21.915 13.8827 21.2227 13.9636L19.996 14.0446C19.834 14.6155 19.5871 15.1458 19.3441 15.6762L20.1215 16.6155C20.5709 17.1458 20.5304 17.9636 20.0405 18.4535L18.5304 19.9636C18.2834 20.2066 17.9595 20.3725 17.5911 20.3725C17.2632 20.3725 16.9798 20.2511 16.7328 20.0446L15.7935 19.2673C15.2632 19.5547 14.7328 19.7572 14.162 19.9191L14.081 21.1458C14.0405 21.7976 13.4292 22.328 12.7328 22.328ZM7.46965 18.081C7.55063 18.081 7.6316 18.1215 7.71662 18.162C8.32795 18.5304 9.02431 18.8138 9.7571 18.9798C9.95953 19.0203 10.1255 19.2227 10.1255 19.4292L10.247 21.0203C10.247 21.1823 10.4089 21.3078 10.5749 21.3078H12.6964C12.8583 21.3078 13.0243 21.1863 13.0243 21.0203L13.1458 19.4697C13.1458 19.2673 13.3077 19.0608 13.5142 19.0203C14.247 18.8584 14.9029 18.5709 15.5547 18.2025C15.7571 18.081 15.9636 18.1215 16.1255 18.243L17.3077 19.2632C17.3887 19.3442 17.4697 19.3442 17.5101 19.3442C17.5911 19.3442 17.6721 19.3037 17.7531 19.2632L19.2632 17.7531C19.3846 17.6317 19.3846 17.4252 19.2632 17.3037L18.3239 16.0365C18.2024 15.8746 18.162 15.6276 18.2834 15.4657C18.6518 14.8543 18.9352 14.158 19.1417 13.4252C19.1822 13.2227 19.3887 13.0568 19.5911 13.0568L21.1417 12.9353C21.3037 12.9353 21.4292 12.7734 21.4292 12.6074V10.4859C21.4292 10.324 21.3077 10.158 21.1417 10.158L19.5506 10.0365C19.3482 10.0365 19.1417 9.87457 19.1012 9.66809C18.9393 8.93125 18.6518 8.27943 18.2429 7.62761C18.1215 7.42518 18.162 7.2187 18.2834 7.05676L19.3037 5.87457C19.4251 5.75311 19.3846 5.54663 19.3037 5.42518L17.7935 3.91506C17.7531 3.87457 17.6721 3.83408 17.5506 3.83408C17.5101 3.83408 17.4292 3.83408 17.3482 3.91506L16.166 4.9353C16.0041 5.05676 15.7571 5.09724 15.5952 4.97578C14.9433 4.60736 14.2875 4.32396 13.5547 4.11749C13.3522 4.077 13.1863 3.87052 13.1863 3.66809L13.0648 2.11748C13.0648 1.95554 12.9029 1.83004 12.7369 1.83004H10.6154C10.4535 1.83004 10.2875 1.95149 10.2875 2.11748L10.166 3.62761C10.166 3.83004 10.0041 4.03651 9.79759 4.077C9.10528 4.23894 8.40893 4.52639 7.7571 4.9353C7.55467 5.05676 7.3482 5.01627 7.18625 4.89481L6.00407 3.87457C5.92309 3.7936 5.84212 3.7936 5.80164 3.7936C5.72067 3.7936 5.63969 3.83408 5.55872 3.87457L4.0486 5.38469C3.92714 5.50615 3.92714 5.71263 4.0486 5.83408L5.06884 7.01627C5.1903 7.17821 5.23079 7.42518 5.10933 7.58712C4.74091 8.23894 4.45751 8.89481 4.25103 9.62761C4.21054 9.83004 4.00812 9.99603 3.80164 9.99603L2.21054 10.158C2.0486 10.158 1.9231 10.3199 1.9231 10.4859V12.6074C1.9231 12.7693 2.04455 12.9353 2.21054 12.9353L3.76115 13.0568C3.96358 13.0568 4.17006 13.2187 4.21054 13.4252C4.37249 14.1175 4.65994 14.8138 5.06884 15.4657C5.1903 15.6681 5.14982 15.8746 5.02836 16.0365L4.00812 17.2187C3.88666 17.3402 3.92714 17.5466 4.00812 17.6681L5.51824 19.1782C5.55872 19.2187 5.63969 19.2592 5.76115 19.2592C5.80164 19.2592 5.88261 19.2592 5.96358 19.1782L7.14577 18.158C7.26722 18.1175 7.3482 18.077 7.4737 18.077L7.46965 18.081Z" fill="#CCAB80"/>
<path d="M15.7126 8.69231C15.5506 8.69231 15.4251 8.61133 15.3036 8.48988C14.9352 8.04048 14.5263 7.67206 14.0364 7.38866C13.7935 7.22672 13.7085 6.93927 13.8745 6.69635C14.0364 6.45344 14.3239 6.36842 14.5668 6.53441C15.1377 6.90283 15.668 7.35223 16.1174 7.88259C16.2794 8.08502 16.2794 8.41295 16.0364 8.61538C15.915 8.65587 15.7895 8.69635 15.7085 8.69635L15.7126 8.69231Z" fill="#CCAB80"/>
<path d="M11.5506 17.3846C8.32793 17.3846 5.67206 14.7732 5.67206 11.506C5.67206 8.23882 8.28339 5.66797 11.5506 5.66797C11.838 5.66797 12.081 5.91493 12.081 6.19833C12.081 6.48173 11.838 6.7287 11.5506 6.7287C8.89878 6.7287 6.6923 8.89064 6.6923 11.587C6.6923 14.2834 8.85424 16.4453 11.5506 16.4453C12.8583 16.4453 14.0405 15.9554 14.9798 15.0161C15.919 14.0769 16.4089 12.8947 16.4089 11.587C16.4089 11.2995 16.6559 11.0566 16.9393 11.0566C17.2227 11.0566 17.4696 11.2995 17.4696 11.587C17.4696 13.1376 16.8583 14.6072 15.7571 15.7489C14.5749 16.7692 13.1053 17.3805 11.5547 17.3805L11.5506 17.3846Z" fill="#CCAB80"/>
<path d="M11.5506 15.3441C11.2632 15.3441 11.0203 15.1012 11.0203 14.8138C11.0203 14.5263 11.2672 14.2834 11.5506 14.2834C13.1012 14.2834 14.3685 13.0202 14.3685 11.4656C14.3685 9.91092 13.1053 8.64777 11.5506 8.64777C9.99599 8.64777 8.73283 9.91092 8.73283 11.4656C8.73283 12.2024 9.01623 12.8947 9.55064 13.4251C9.75307 13.6275 9.75307 13.9555 9.55064 14.1579C9.34821 14.3603 9.02028 14.3603 8.8138 14.1579C8.12149 13.5061 7.71259 12.5668 7.71259 11.5466C7.71259 9.4251 9.42514 7.7085 11.5506 7.7085C13.6761 7.7085 15.3887 9.42105 15.3887 11.5466C15.3887 13.6721 13.6357 15.3441 11.5506 15.3441Z" fill="#CCAB80"/>
<path d="M11.5506 13.3036C10.5709 13.3036 9.75305 12.4858 9.75305 11.5061C9.75305 10.5263 10.5709 9.7085 11.5506 9.7085C12.5304 9.7085 13.3482 10.5263 13.3482 11.5061C13.3077 12.5263 12.5304 13.3036 11.5506 13.3036ZM11.5506 10.7733C11.1417 10.7733 10.7773 11.1012 10.7773 11.5506C10.7773 11.9595 11.1053 12.3279 11.5506 12.3279C11.9595 12.3279 12.328 12 12.328 11.5506C12.328 11.1012 11.9595 10.7733 11.5506 10.7733Z" fill="#CCAB80"/>
<path d="M1.55061 4.08095C0.692308 4.08095 0 3.38864 0 2.53034C0 1.67204 0.692308 0.979736 1.55061 0.979736C2.40891 0.979736 3.10121 1.67204 3.10121 2.53034C3.10121 3.38864 2.36842 4.08095 1.55061 4.08095ZM1.55061 2.04046C1.26316 2.04046 1.02024 2.28338 1.02024 2.57083C1.02024 2.85828 1.26316 3.10119 1.55061 3.10119C1.83806 3.10119 2.08097 2.85423 2.08097 2.57083C2.04049 2.28338 1.83806 2.04046 1.55061 2.04046Z" fill="#CCAB80"/>
<path d="M18.8988 24C18.0405 24 17.3481 23.3077 17.3481 22.4494C17.3481 21.5911 18.0405 20.8988 18.8988 20.8988C19.7571 20.8988 20.4494 21.5911 20.4494 22.4494C20.4494 23.3077 19.7166 24 18.8988 24ZM18.8988 21.9595C18.6113 21.9595 18.3684 22.2024 18.3684 22.4899C18.3684 22.7773 18.6113 23.0203 18.8988 23.0203C19.1862 23.0203 19.4291 22.7733 19.4291 22.4899C19.3886 22.162 19.1862 21.9595 18.8988 21.9595Z" fill="#CCAB80"/>
<path d="M21.9596 4.08097C20.8179 4.08097 19.9191 3.18219 19.9191 2.04049C19.9191 0.898785 20.8179 0 21.9596 0C23.1013 0 24 0.898785 24 2.04049C24 3.18219 23.0608 4.08097 21.9596 4.08097ZM21.9596 1.02024C21.3887 1.02024 20.9393 1.46964 20.9393 2.04049C20.9393 2.61134 21.3887 3.06073 21.9596 3.06073C22.5304 3.06073 22.9798 2.61134 22.9798 2.04049C22.9798 1.46964 22.5304 1.02024 21.9596 1.02024Z" fill="#CCAB80"/>
</svg>
