<svg width="24" height="24" viewBox="0 0 24 24" fill="none" xmlns="http://www.w3.org/2000/svg">
<path d="M16.9847 6.49723L12.9985 7.97227V4.50415L16.9847 6.49723Z" fill="#2F324A"/>
<path d="M18.8986 15.826L21.9673 22.9244H5.02221H2.03259L3.66976 15.5097L5.02221 9.48694H11.5234L12.3183 11.5591L12.52 11.48H12.9985H16.9846L18.8986 15.826Z" fill="#2F324A"/>
<path d="M2.03265 23.4424H1.91401C1.63324 23.4028 1.47506 23.1221 1.55415 22.8452L3.18737 15.391L4.54377 9.37219C4.58332 9.13096 4.78104 8.97278 5.02227 8.97278H11.5195C11.7173 8.97278 11.919 9.09141 11.998 9.2931L15.5057 18.2659C15.6243 18.5032 15.4662 18.8235 15.2289 18.9026C14.9877 19.0212 14.6713 18.863 14.5922 18.6218L11.2427 9.96932H5.42168L4.18786 15.5927L2.55465 23.0469C2.47556 23.2842 2.27387 23.4463 2.0366 23.4463L2.03265 23.4424Z" fill="#CCAB80"/>
<path d="M21.9674 23.4425C21.7697 23.4425 21.6075 23.3239 21.5284 23.1222L16.6644 11.9586H12.5161C12.2353 11.9586 11.998 11.7173 11.998 11.4405C11.998 11.1637 12.2353 10.9225 12.5161 10.9225H16.9807C17.1785 10.9225 17.3406 11.0411 17.4197 11.2428L19.3337 15.5888L22.4024 22.6872C22.521 22.9245 22.4024 23.2448 22.1651 23.3239C22.086 23.403 22.0465 23.4425 21.9674 23.4425Z" fill="#CCAB80"/>
<path d="M23.482 23.4423H0.557593C0.276822 23.4423 0.0395508 23.2051 0.0395508 22.9243C0.0395508 22.6435 0.280776 22.4062 0.557593 22.4062H23.482C23.7627 22.4062 24 22.6435 24 22.9243C23.9605 23.2051 23.7192 23.4423 23.482 23.4423Z" fill="#CCAB80"/>
<path d="M12.9985 11.9585C12.7177 11.9585 12.4805 11.7173 12.4805 11.4405V7.93284C12.4805 7.65207 12.7177 7.41479 12.9985 7.41479C13.2793 7.41479 13.5166 7.65207 13.5166 7.93284V11.4405C13.5166 11.7608 13.2793 11.9585 12.9985 11.9585Z" fill="#CCAB80"/>
<path d="M12.9985 4.98272C12.7177 4.98272 12.4805 4.74545 12.4805 4.50422V3.98618C12.4805 3.70541 12.7177 3.46814 12.9985 3.46814C13.2793 3.46814 13.5166 3.70541 13.5166 3.98618V4.50422C13.5166 4.785 13.2793 4.98272 12.9985 4.98272Z" fill="#CCAB80"/>
<path d="M12.9985 8.49039C12.8799 8.49039 12.8008 8.45084 12.7177 8.4113C12.5991 8.33221 12.52 8.17403 12.52 8.01189V4.50423C12.52 4.34605 12.5991 4.18391 12.7573 4.06528C12.9155 3.98619 13.0776 3.98619 13.2358 4.02573L17.2219 6.01881C17.3801 6.0979 17.5027 6.29958 17.5027 6.49731C17.5027 6.69503 17.3841 6.85717 17.1824 6.93626L13.1962 8.45084C13.1172 8.45084 13.0381 8.49039 12.9985 8.49039ZM13.5166 5.29909V7.25262L15.7509 6.41426L13.5166 5.29909Z" fill="#CCAB80"/>
<path d="M5.02227 23.4424H4.90364C4.62287 23.4029 4.46469 23.1221 4.54378 22.8453L6.53686 13.8764C6.5764 13.5956 6.85717 13.4375 7.13399 13.5166C7.41476 13.5561 7.57294 13.8369 7.49385 14.1137L5.50077 23.0825C5.46123 23.2803 5.25954 23.4424 5.02227 23.4424Z" fill="#CCAB80"/>
<path d="M3.1082 15.7074C3.06866 15.6283 3.02911 15.5492 3.02911 15.4266C3.02911 15.2684 3.1082 15.1063 3.26639 14.9876C3.50366 14.8295 3.82397 14.9086 3.94261 15.1458C3.98215 15.2249 4.0217 15.304 4.0217 15.4266C4.0217 15.5848 3.94261 15.7469 3.78047 15.8655C3.70138 15.9051 3.62229 15.9446 3.4997 15.9446C3.34152 15.9446 3.17939 15.8655 3.1003 15.7034L3.1082 15.7074ZM19.4562 15.1498C19.298 15.0707 19.2189 14.869 19.2189 14.7108C19.2189 14.6317 19.2585 14.5526 19.298 14.4736C19.4167 14.2323 19.737 14.1532 19.9742 14.2758C20.1324 14.3549 20.2155 14.5566 20.2155 14.7148C20.2155 14.7939 20.1759 14.873 20.1364 14.956C20.0573 15.1142 19.8556 15.1933 19.6974 15.1933C19.6183 15.1933 19.5392 15.1933 19.4562 15.1537V15.1498ZM2.43198 14.4301C2.39244 14.351 2.39244 14.3114 2.39244 14.2323C2.39244 14.0346 2.51107 13.8329 2.71275 13.7538C2.95002 13.6352 3.27034 13.7538 3.34943 14.0346C3.38898 14.1137 3.38898 14.1532 3.38898 14.2323C3.38898 14.4301 3.27034 14.6317 3.06866 14.6713C3.02911 14.7108 2.95002 14.7108 2.87093 14.7108C2.67321 14.7108 2.51107 14.5922 2.43198 14.4301ZM20.1324 13.912C19.9347 13.8329 19.8121 13.6312 19.8121 13.4335C19.8121 13.3544 19.8121 13.3149 19.8517 13.2358C19.9703 12.9985 20.2511 12.8364 20.4883 12.955C20.6861 13.0341 20.8087 13.2358 20.8087 13.4335C20.8087 13.5126 20.8087 13.5522 20.7691 13.6312C20.69 13.829 20.4883 13.9516 20.2906 13.9516C20.2511 13.9516 20.172 13.9516 20.1324 13.912ZM1.95348 13.0341V12.9155C1.95348 12.6782 2.11166 12.4765 2.31335 12.437C2.59412 12.3579 2.87093 12.5161 2.91048 12.7968V12.9155C2.91048 13.1132 2.7523 13.3544 2.55062 13.394H2.43198C2.23425 13.394 2.03257 13.2358 1.95348 13.0341ZM20.6109 12.5952C20.3737 12.5556 20.2115 12.3579 20.2115 12.1167V11.998C20.2906 11.7173 20.5318 11.5591 20.8087 11.6382C21.0499 11.6777 21.2081 11.8754 21.2081 12.1167V12.2353C21.1685 12.4765 20.9668 12.6347 20.7296 12.6347C20.69 12.6347 20.6505 12.5952 20.6109 12.5952ZM1.67271 11.5986V11.5195C1.67271 11.2783 1.83089 11.041 2.11166 11.041C2.39244 11.0015 2.62971 11.1992 2.66925 11.48V11.5591C2.66925 11.8003 2.47153 11.998 2.2303 12.0376H2.15121C1.91394 12.0376 1.67271 11.8398 1.67271 11.5986ZM20.8917 11.2427C20.6109 11.2032 20.4132 11.0054 20.4527 10.7247V10.6851C20.4923 10.4044 20.7335 10.2066 20.9708 10.2462C21.2516 10.2857 21.4493 10.4874 21.4493 10.7642V10.8038C21.4097 11.0845 21.212 11.2823 20.9708 11.2823C20.9444 11.2559 20.9181 11.2427 20.8917 11.2427ZM1.55408 10.1671C1.55408 9.88631 1.7518 9.64904 2.03257 9.64904C2.31335 9.64904 2.55062 9.84676 2.55062 10.1275C2.55062 10.4083 2.35289 10.606 2.07212 10.6456C1.7518 10.6456 1.55408 10.4083 1.55408 10.1671ZM20.4527 9.36826C20.4527 9.08749 20.6505 8.85022 20.9312 8.85022C21.212 8.85022 21.4493 9.04795 21.4493 9.32872V9.36826C21.4493 9.64904 21.2516 9.84676 20.9708 9.84676H20.9312C20.694 9.84676 20.4527 9.64904 20.4527 9.36826ZM2.03257 9.24963C1.79135 9.21008 1.59362 9.01236 1.59362 8.77113V8.69204C1.63317 8.41127 1.87439 8.21354 2.15121 8.25309C2.39244 8.29263 2.59016 8.49036 2.59016 8.73159V8.81068C2.55062 9.0519 2.34894 9.24963 2.11166 9.24963H2.03257ZM20.255 8.09095V7.97232C20.255 7.73505 20.4132 7.53337 20.6544 7.49382C20.9352 7.45428 21.1725 7.61246 21.2516 7.89323V8.01186C21.2516 8.24913 21.0934 8.45082 20.8521 8.49036H20.7335C20.5358 8.45082 20.3341 8.29263 20.255 8.09095ZM2.2738 7.85368C2.07607 7.77459 1.91394 7.57291 1.91394 7.37518V7.25655C1.99303 6.97578 2.2738 6.85714 2.51107 6.89669C2.7088 6.97578 2.87093 7.17746 2.87093 7.37518V7.49382C2.79184 7.73505 2.59016 7.85368 2.39244 7.85368C2.35289 7.89323 2.31335 7.89323 2.2738 7.85368ZM19.8952 6.8176C19.8556 6.77805 19.8556 6.69896 19.8556 6.65942C19.8556 6.46169 19.9742 6.26001 20.1759 6.18092C20.4172 6.10183 20.7335 6.22046 20.8126 6.46169C20.8521 6.50124 20.8521 6.58033 20.8521 6.61987C20.8521 6.8176 20.7335 7.01928 20.5318 7.09837C20.4923 7.13791 20.4132 7.13791 20.3737 7.13791C20.1759 7.13791 19.9742 7.01928 19.8952 6.8176ZM2.66925 6.53683C2.47153 6.45774 2.38848 6.25605 2.38848 6.09787C2.38848 6.01878 2.38848 5.97924 2.42803 5.90015C2.54666 5.65892 2.82743 5.54029 3.10425 5.65892C3.30198 5.73801 3.38502 5.93969 3.38502 6.09787C3.38502 6.17696 3.38502 6.21651 3.34548 6.2956C3.26639 6.49333 3.0647 6.57637 2.90652 6.57637C2.78789 6.57637 2.74834 6.57637 2.6653 6.53683H2.66925ZM19.3376 5.61938C19.298 5.54029 19.2585 5.4612 19.2585 5.38211C19.2585 5.22393 19.3376 5.02224 19.4957 4.94315C19.737 4.82452 20.0533 4.90361 20.172 5.14088C20.2115 5.21997 20.2511 5.29906 20.2511 5.38211C20.2511 5.54029 20.172 5.74197 20.0098 5.82106C19.9307 5.8606 19.8517 5.90015 19.7726 5.90015C19.6144 5.8606 19.4127 5.78151 19.3336 5.61938H19.3376ZM3.27034 5.25952C3.11216 5.18042 3.03307 5.01829 3.03307 4.82056C3.03307 4.74147 3.07261 4.62284 3.11216 4.53979C3.27034 4.29857 3.55111 4.25902 3.78838 4.38161C3.94656 4.4607 4.02961 4.61888 4.02961 4.82056C4.02961 4.89965 3.99006 5.01829 3.95052 5.10133C3.87143 5.25951 3.71325 5.33861 3.51157 5.33861C3.43248 5.33861 3.35339 5.33861 3.27429 5.25952H3.27034ZM18.6178 4.5042C18.5388 4.42511 18.4992 4.30648 18.4992 4.18389C18.4992 4.0257 18.5783 3.90311 18.6969 3.78448C18.8947 3.6263 19.215 3.66584 19.4127 3.86357C19.4918 3.94266 19.5313 4.0613 19.5313 4.18389C19.5313 4.34207 19.4522 4.46466 19.3336 4.58329C19.2545 4.66238 19.1359 4.70193 19.0133 4.70193C18.8551 4.70193 18.693 4.62284 18.6139 4.5042H18.6178ZM4.0652 4.10479C3.94656 4.0257 3.90702 3.86357 3.90702 3.74493C3.90702 3.6263 3.94656 3.50371 4.02565 3.42462C4.22338 3.22689 4.50415 3.18339 4.74142 3.38507C4.86006 3.46416 4.8996 3.62234 4.8996 3.74493C4.8996 3.86357 4.86006 3.9822 4.78097 4.06525C4.70188 4.18388 4.5437 4.22343 4.42111 4.22343C4.26293 4.22343 4.14034 4.18389 4.06124 4.10479H4.0652ZM17.7439 3.50766C17.6253 3.42857 17.5857 3.27039 17.5857 3.1478C17.5857 3.02916 17.6253 2.91053 17.7439 2.78794C17.9416 2.59021 18.2619 2.59021 18.4597 2.78794C18.5783 2.86703 18.6178 3.02521 18.6178 3.1478C18.6178 3.26644 18.5783 3.38903 18.4597 3.50766C18.3806 3.6263 18.2224 3.66584 18.0998 3.66584C17.9416 3.66584 17.819 3.6263 17.7399 3.50766H17.7439ZM4.98265 3.06871C4.90356 2.98962 4.86401 2.87098 4.86401 2.74839C4.86401 2.59021 4.90356 2.46762 5.02219 2.34899C5.21992 2.19081 5.54024 2.19081 5.73796 2.38853C5.81705 2.46762 5.8566 2.58626 5.8566 2.70885C5.8566 2.86703 5.81705 2.98962 5.69842 3.10825C5.61933 3.18735 5.50069 3.22689 5.3781 3.22689C5.21992 3.26644 5.09733 3.18735 4.97869 3.06871H4.98265ZM16.7039 2.6693C16.5852 2.59021 16.5061 2.43203 16.5061 2.2699C16.5061 2.15126 16.5457 2.07217 16.5852 1.98912C16.7434 1.75185 17.0637 1.70835 17.2614 1.87049C17.3801 1.94958 17.4592 2.11172 17.4592 2.2699C17.4592 2.38853 17.4196 2.46762 17.3801 2.55067C17.301 2.6693 17.1389 2.74839 16.9807 2.74839C16.9016 2.78794 16.8225 2.74839 16.6999 2.6693H16.7039ZM6.05828 2.19081C6.01873 2.11171 5.97919 2.03262 5.97919 1.91003C5.97919 1.75185 6.05828 1.58972 6.22041 1.47108C6.45769 1.3129 6.778 1.39199 6.89664 1.62926C6.93618 1.70835 6.97573 1.78744 6.97573 1.91003C6.97573 2.06822 6.89664 2.23035 6.73846 2.34899C6.65937 2.38853 6.58028 2.42808 6.45769 2.42808C6.33905 2.42808 6.18087 2.34899 6.05828 2.18685V2.19081ZM15.5887 1.99308C15.4305 1.91399 15.3079 1.71231 15.3079 1.55413C15.3079 1.47504 15.3079 1.39595 15.3475 1.31686C15.4661 1.07958 15.7864 0.956995 16.0237 1.11913C16.1819 1.19822 16.3044 1.3999 16.3044 1.55808C16.3044 1.63717 16.3044 1.71626 16.2649 1.79931C16.1858 1.95749 15.9841 2.08008 15.826 2.08008C15.7469 2.04053 15.6678 2.04053 15.5887 2.00099V1.99308ZM7.2565 1.47504C7.21695 1.39595 7.21695 1.3564 7.21695 1.27731C7.21695 1.07958 7.33559 0.917449 7.53727 0.838358C7.77454 0.719723 8.09486 0.838359 8.17395 1.07958C8.21349 1.15868 8.21349 1.23777 8.21349 1.27731C8.21349 1.47504 8.09486 1.63717 7.89318 1.71626C7.81409 1.75581 7.77454 1.75581 7.69545 1.75581C7.53727 1.79535 7.33559 1.67672 7.2565 1.47504ZM14.3944 1.47504C14.1967 1.39595 14.0741 1.19427 14.0741 0.99654C14.0741 0.956995 14.0741 0.877904 14.1136 0.838358C14.1927 0.557587 14.4735 0.438952 14.7503 0.518042C14.948 0.597133 15.0706 0.798814 15.0706 0.99654C15.0706 1.03609 15.0706 1.11518 15.0311 1.15472C14.952 1.35245 14.7503 1.51458 14.5526 1.51458C14.4735 1.51458 14.434 1.47504 14.3944 1.47504ZM8.57336 0.956995V0.838358C8.57336 0.601087 8.73154 0.399407 8.93322 0.359862C9.21399 0.280771 9.4908 0.438952 9.53035 0.719723V0.838358C9.53035 1.07958 9.37217 1.27731 9.17049 1.31686H9.05185C8.81458 1.31686 8.6129 1.19822 8.57336 0.956995ZM13.1171 1.15472C12.8759 1.11518 12.7177 0.917449 12.7177 0.676223V0.597133C12.7572 0.316362 13.038 0.158181 13.3148 0.197726C13.5521 0.237271 13.7142 0.438952 13.7142 0.676223V0.755314C13.6747 0.992585 13.477 1.15472 13.2357 1.15472H13.1171ZM9.9258 0.636678V0.597133C9.9258 0.355907 10.1235 0.118635 10.3648 0.118635C10.6455 0.0790902 10.8828 0.276817 10.9223 0.557588V0.597133C10.9223 0.834404 10.7246 1.07563 10.4834 1.07563H10.4438C10.1631 1.07563 9.9258 0.877904 9.9258 0.636678ZM11.8002 0.99654C11.5195 0.99654 11.3217 0.759268 11.3217 0.478497C11.3217 0.197726 11.559 0 11.8398 0C12.1206 0 12.3183 0.237271 12.3183 0.518042C12.2787 0.798813 12.0771 0.99654 11.8002 0.99654Z" fill="#CCAB80"/>
<path d="M4.0257 1.5146H0.518043C0.237272 1.5146 0 1.27733 0 0.996559C0 0.715788 0.241226 0.478516 0.518043 0.478516H4.0257C4.30648 0.478516 4.54375 0.715788 4.54375 0.996559C4.54375 1.27733 4.30252 1.5146 4.0257 1.5146Z" fill="#CCAB80"/>
<path d="M3.54721 2.98958H2.03263C1.75186 2.98958 1.51459 2.75231 1.51459 2.47153C1.51459 2.19076 1.75581 1.95349 2.03263 1.95349H3.54721C3.82403 1.95349 4.06525 2.19076 4.06525 2.47153C4.02571 2.79185 3.78448 2.98958 3.54721 2.98958Z" fill="#CCAB80"/>
<path d="M23.482 3.50764H20.4923C20.2116 3.50764 19.9743 3.27037 19.9743 2.9896C19.9743 2.70883 20.2155 2.47156 20.4923 2.47156H23.482C23.7627 2.47156 24 2.70883 24 2.9896C23.9605 3.27037 23.7192 3.50764 23.482 3.50764Z" fill="#CCAB80"/>
<path d="M22.4854 4.98275H21.4889C21.2081 4.98275 20.9708 4.74547 20.9708 4.50425C20.9708 4.22743 21.2121 3.98621 21.4889 3.98621H22.4854C22.7662 3.98621 23.0035 4.22743 23.0035 4.50425C22.9639 4.78502 22.7227 4.98275 22.4854 4.98275Z" fill="#CCAB80"/>
</svg>
