<svg width="24" height="26" viewBox="0 0 24 26" fill="none" xmlns="http://www.w3.org/2000/svg">
<path d="M15.6953 2.28101H11.7262H7.71188H3.74281H0.592896V25.0953H18.8452V2.28101H15.6953Z" fill="#2F324A"/>
<path d="M23.4071 21.0808H21.1262V22.8142H23.4071V21.0808Z" fill="#2F324A"/>
<path d="M23.4071 22.8142V23.9547C23.4071 24.5928 22.9048 25.0952 22.2666 25.0952C21.6285 25.0952 21.1262 24.5928 21.1262 23.9547V22.8142H23.4071Z" fill="#2F324A"/>
<path d="M23.4071 7.98347V21.081H21.1262V7.98347L22.2666 5.10962L23.4071 7.98347Z" fill="#2F324A"/>
<path d="M3.74278 3.96912C4.19988 3.96912 4.61173 4.3357 4.61173 4.83806C4.61173 5.34042 4.24514 5.707 3.74278 5.707C3.24043 5.707 2.87384 5.29516 2.87384 4.83806C2.87384 4.38096 3.24043 3.96912 3.74278 3.96912Z" fill="#2F324A"/>
<path d="M7.71186 3.96912C8.16896 3.96912 8.5808 4.3357 8.5808 4.83806C8.5808 5.34042 8.21422 5.707 7.71186 5.707C7.2095 5.707 6.8927 5.29516 6.8927 4.83806C6.8927 4.38096 7.25929 3.96912 7.71186 3.96912Z" fill="#2F324A"/>
<path d="M15.6953 3.96912C16.1524 3.96912 16.5642 4.3357 16.5642 4.83806C16.5642 5.34042 16.1976 5.707 15.6953 5.707C15.1929 5.707 14.8761 5.29516 14.8761 4.83806C14.8761 4.38096 15.2427 3.96912 15.6953 3.96912Z" fill="#2F324A"/>
<path d="M11.7262 3.96912C12.1833 3.96912 12.5951 4.3357 12.5951 4.83806C12.5951 5.34042 12.2285 5.707 11.7262 5.707C11.2238 5.707 10.8572 5.29516 10.8572 4.83806C10.8572 4.38096 11.2238 3.96912 11.7262 3.96912Z" fill="#2F324A"/>
<path d="M18.8452 25.6428H0.592873C0.271545 25.6428 0 25.3668 0 25.05V2.23569C0 1.91437 0.271545 1.64282 0.592873 1.64282H18.8452C19.1665 1.64282 19.4381 1.91437 19.4381 2.23569V25.05C19.4381 25.4165 19.1665 25.6428 18.8452 25.6428ZM1.18574 24.5023H18.2976V2.82857H1.18574V24.5023Z" fill="#CCAB80"/>
<path d="M15.6952 6.25011C14.9213 6.25011 14.2787 5.61198 14.2787 4.83355C14.2787 4.05512 14.9168 3.41699 15.6952 3.41699C16.4737 3.41699 17.1118 4.05512 17.1118 4.83355C17.1118 5.61198 16.4737 6.25011 15.6952 6.25011ZM15.6952 4.562C15.5595 4.562 15.4237 4.69778 15.4237 4.83355C15.4237 4.96932 15.5595 5.10962 15.6952 5.10962C15.831 5.10962 15.9668 4.97385 15.9668 4.83355C16.012 4.69778 15.8763 4.562 15.6952 4.562Z" fill="#CCAB80"/>
<path d="M15.6953 4.56195C15.374 4.56195 15.1024 4.2904 15.1024 3.96907V1.64284C15.1024 0.728644 15.8311 0 16.7453 0H17.1118C17.4332 0 17.7047 0.27607 17.7047 0.592872C17.7047 0.909674 17.4332 1.18574 17.1118 1.18574H16.7905C16.519 1.18574 16.2882 1.41203 16.2882 1.6881V4.05959C16.2882 4.28588 16.0166 4.56195 15.6953 4.56195Z" fill="#CCAB80"/>
<path d="M11.7262 6.25011C10.9523 6.25011 10.3097 5.61198 10.3097 4.83355C10.3097 4.05512 10.9478 3.41699 11.7262 3.41699C12.5047 3.41699 13.1428 4.05512 13.1428 4.83355C13.1428 5.61198 12.5047 6.25011 11.7262 6.25011ZM11.7262 4.562C11.5905 4.562 11.4547 4.69778 11.4547 4.83355C11.4547 4.96932 11.5905 5.10962 11.7262 5.10962C11.862 5.10962 11.9978 4.97385 11.9978 4.83355C11.9978 4.69325 11.862 4.562 11.7262 4.562Z" fill="#CCAB80"/>
<path d="M11.7262 4.56195C11.4048 4.56195 11.1333 4.2904 11.1333 3.96907V1.64284C11.1333 0.728644 11.8619 0 12.7761 0H13.1427C13.4641 0 13.7356 0.27607 13.7356 0.592872C13.7356 0.909674 13.4641 1.18574 13.1427 1.18574H12.7761C12.5046 1.18574 12.2738 1.41203 12.2738 1.6881V4.05959C12.2738 4.28588 12.0475 4.56195 11.7262 4.56195Z" fill="#CCAB80"/>
<path d="M7.71185 6.25011C6.93794 6.25011 6.29529 5.61198 6.29529 4.83355C6.29529 4.05512 6.93342 3.41699 7.71185 3.41699C8.49027 3.41699 9.1284 4.05512 9.1284 4.83355C9.1284 5.61198 8.49027 6.25011 7.71185 6.25011ZM7.71185 4.562C7.57607 4.562 7.43577 4.69778 7.43577 4.83355C7.43577 4.96932 7.57155 5.10962 7.71185 5.10962C7.85214 5.10962 7.98339 4.97385 7.98339 4.83355C8.02865 4.69778 7.89287 4.562 7.71185 4.562Z" fill="#CCAB80"/>
<path d="M7.71189 4.56195C7.39056 4.56195 7.11902 4.2904 7.11902 3.96907V1.64284C7.11902 0.728644 7.84766 0 8.76186 0H9.12845C9.44978 0 9.72132 0.27607 9.72132 0.592872C9.72132 0.909674 9.44525 1.18574 9.12845 1.18574H8.76186C8.49032 1.18574 8.25951 1.41203 8.25951 1.6881V4.05959C8.30476 4.28588 8.03322 4.56195 7.71189 4.56195Z" fill="#CCAB80"/>
<path d="M3.74279 6.25011C2.96889 6.25011 2.32623 5.61198 2.32623 4.83355C2.32623 4.05512 2.96436 3.41699 3.74279 3.41699C4.52122 3.41699 5.15935 4.05512 5.15935 4.83355C5.15935 5.61198 4.52122 6.25011 3.74279 6.25011ZM3.74279 4.562C3.60702 4.562 3.47124 4.69778 3.47124 4.83355C3.47124 4.96932 3.60702 5.10962 3.74279 5.10962C3.87856 5.10962 4.01433 4.97385 4.01433 4.83355C4.01433 4.69325 3.87856 4.562 3.74279 4.562Z" fill="#CCAB80"/>
<path d="M3.74277 4.56195C3.42145 4.56195 3.1499 4.2904 3.1499 3.96907V1.64284C3.1499 0.728644 3.87855 0 4.79275 0H5.15933C5.48066 0 5.7522 0.27607 5.7522 0.592872C5.7522 0.909674 5.48066 1.18574 5.15933 1.18574H4.79275C4.5212 1.18574 4.29039 1.41203 4.29039 1.6881V4.05959C4.29039 4.28588 4.0641 4.56195 3.74277 4.56195Z" fill="#CCAB80"/>
<path d="M16.5642 8.53108H2.87382C2.55249 8.53108 2.28094 8.25954 2.28094 7.93821C2.28094 7.61688 2.55249 7.34534 2.87382 7.34534H16.5642C16.8855 7.34534 17.1571 7.61688 17.1571 7.93821C17.1571 8.30479 16.8855 8.53108 16.5642 8.53108Z" fill="#CCAB80"/>
<path d="M16.5642 10.2645H6.29978C5.97845 10.2645 5.70691 9.98841 5.70691 9.67161C5.70691 9.35481 5.97845 9.07874 6.29978 9.07874H16.5642C16.8855 9.07874 17.157 9.35028 17.157 9.67161C17.157 9.99294 16.8855 10.2645 16.5642 10.2645Z" fill="#CCAB80"/>
<path d="M11.4547 11.9525H2.87839C2.55707 11.9525 2.28552 11.6809 2.28552 11.3596C2.28552 11.0383 2.55707 10.7667 2.87839 10.7667H11.4547C11.776 10.7667 12.0475 11.0383 12.0475 11.3596C12.0023 11.7262 11.7262 11.9525 11.4547 11.9525Z" fill="#CCAB80"/>
<path d="M16.5642 13.6857H8.58079C8.25946 13.6857 7.98792 13.4142 7.98792 13.0929C7.98792 12.7715 8.25946 12.5 8.58079 12.5H16.5642C16.8855 12.5 17.1571 12.7761 17.1571 13.0929C17.1571 13.4097 16.8855 13.6857 16.5642 13.6857Z" fill="#CCAB80"/>
<path d="M13.1427 15.374H2.87382C2.55249 15.374 2.28094 15.1024 2.28094 14.7811C2.28094 14.4598 2.55249 14.1882 2.87382 14.1882H13.1427C13.464 14.1882 13.7356 14.4598 13.7356 14.7811C13.7356 15.1024 13.464 15.374 13.1427 15.374Z" fill="#CCAB80"/>
<path d="M16.5642 17.1074H2.87382C2.55249 17.1074 2.28094 16.8358 2.28094 16.5145C2.28094 16.1932 2.55249 15.9216 2.87382 15.9216H16.5642C16.8855 15.9216 17.1571 16.1932 17.1571 16.5145C17.1571 16.8358 16.8855 17.1074 16.5642 17.1074Z" fill="#CCAB80"/>
<path d="M16.5641 23.362H11.4546C11.1332 23.362 10.8617 23.0905 10.8617 22.7691C10.8617 22.4478 11.1332 22.1763 11.4546 22.1763H16.6094C16.9307 22.1763 17.2023 22.4478 17.2023 22.7691C17.157 23.1357 16.8809 23.362 16.5641 23.362Z" fill="#CCAB80"/>
<path d="M16.5642 21.6738H8.03318C7.71185 21.6738 7.44031 21.4022 7.44031 21.0809C7.44031 20.7596 7.71638 20.488 8.03318 20.488H16.6095C16.9308 20.488 17.2023 20.7596 17.2023 21.0809C17.1571 21.4022 16.881 21.6738 16.5642 21.6738Z" fill="#CCAB80"/>
<path d="M22.2667 25.6428C21.3072 25.6428 20.5333 24.8689 20.5333 23.9095V7.93815C20.5333 7.84764 20.5333 7.80238 20.5786 7.71187L21.7191 4.83802C21.8096 4.61173 21.9906 4.47144 22.2667 4.47144C22.5428 4.47144 22.7238 4.60721 22.8143 4.83802L23.9548 7.71187C24 7.75712 24 7.84764 24 7.93815V23.9095C24 24.8689 23.2261 25.6428 22.2667 25.6428ZM21.7191 8.07392V23.9547C21.7191 24.2761 21.9906 24.5476 22.3119 24.5476C22.6333 24.5476 22.9048 24.2761 22.9048 23.9547V8.07392L22.2667 6.65737L21.7191 8.07392Z" fill="#CCAB80"/>
<path d="M23.4072 23.362H21.1262C20.8049 23.362 20.5333 23.0905 20.5333 22.7691C20.5333 22.4478 20.8049 22.1763 21.1262 22.1763H23.4072C23.7285 22.1763 24 22.4478 24 22.7691C24 23.1357 23.7285 23.362 23.4072 23.362Z" fill="#CCAB80"/>
<path d="M23.4072 21.6738H21.1262C20.8049 21.6738 20.5333 21.4022 20.5333 21.0809C20.5333 20.7596 20.8049 20.488 21.1262 20.488H23.4072C23.7285 20.488 24 20.7596 24 21.0809C24 21.4022 23.7285 21.6738 23.4072 21.6738Z" fill="#CCAB80"/>
<path d="M4.0143 10.2645H2.87382C2.55249 10.2645 2.28094 9.98841 2.28094 9.67161C2.28094 9.35481 2.55249 9.07874 2.87382 9.07874H4.0143C4.33563 9.07874 4.60718 9.35028 4.60718 9.67161C4.60718 9.99294 4.33563 10.2645 4.0143 10.2645Z" fill="#CCAB80"/>
<path d="M14.2833 11.9525H13.1428C12.8215 11.9525 12.5499 11.6809 12.5499 11.3596C12.5499 11.0383 12.8215 10.7667 13.1428 10.7667H14.2833C14.6046 10.7667 14.8762 11.0383 14.8762 11.3596C14.8762 11.7262 14.6046 11.9525 14.2833 11.9525Z" fill="#CCAB80"/>
<path d="M16.5643 11.9525H15.9714C15.6501 11.9525 15.3785 11.6809 15.3785 11.3596C15.3785 11.0383 15.6546 10.7667 15.9714 10.7667H16.5643C16.8856 10.7667 17.1572 11.0383 17.1572 11.3596C17.1572 11.7262 16.8856 11.9525 16.5643 11.9525Z" fill="#CCAB80"/>
<path d="M5.74766 13.6857H2.87382C2.55249 13.6857 2.28094 13.4142 2.28094 13.0929C2.28094 12.7715 2.55249 12.5 2.87382 12.5H5.74766C6.06899 12.5 6.34053 12.7761 6.34053 13.0929C6.29528 13.4142 6.01921 13.6857 5.74766 13.6857Z" fill="#CCAB80"/>
<path d="M16.5642 15.374H14.8308C14.5095 15.374 14.238 15.1024 14.238 14.7811C14.238 14.4598 14.5095 14.1882 14.8308 14.1882H16.5642C16.8855 14.1882 17.1571 14.4598 17.1571 14.7811C17.1571 15.1024 16.8855 15.374 16.5642 15.374Z" fill="#CCAB80"/>
</svg>
