<svg width="30" height="27" viewBox="0 0 30 27" fill="none" xmlns="http://www.w3.org/2000/svg">
<path d="M29.3524 26.861H2.54077C2.18981 26.861 1.89322 26.5644 1.89322 26.2135V1.29501C1.89322 0.94405 2.18981 0.647461 2.54077 0.647461C2.89174 0.647461 3.18833 0.948993 3.18833 1.29501V25.6153H29.3524C29.7034 25.6153 30 25.9119 30 26.2629C29.9506 26.5595 29.649 26.861 29.3524 26.861Z" fill="#CCAB80"/>
<path d="M2.54078 4.43378H0.647554C0.29659 4.43378 0 4.13225 0 3.78622C0 3.4402 0.29659 3.13867 0.647554 3.13867H2.54078C2.89175 3.13867 3.18833 3.43526 3.18833 3.78622C3.18833 4.13719 2.89175 4.43378 2.54078 4.43378Z" fill="#CCAB80"/>
<path d="M2.54078 6.27802H0.647554C0.29659 6.27802 0 5.97648 0 5.63046C0 5.28444 0.29659 4.98291 0.647554 4.98291H2.54078C2.89175 4.98291 3.18833 5.28444 3.18833 5.63046C3.18833 5.97648 2.89175 6.27802 2.54078 6.27802Z" fill="#CCAB80"/>
<path d="M2.54078 8.17108H0.647554C0.29659 8.17108 0 7.86955 0 7.52353C0 7.17751 0.29659 6.87598 0.647554 6.87598H2.54078C2.89175 6.87598 3.18833 7.17257 3.18833 7.52353C3.18833 7.87449 2.89175 8.17108 2.54078 8.17108Z" fill="#CCAB80"/>
<path d="M2.54078 10.0148H0.647554C0.29659 10.0148 0 9.7133 0 9.36728C0 9.02126 0.29659 8.71973 0.647554 8.71973H2.54078C2.89175 8.71973 3.18833 9.01631 3.18833 9.36728C3.18833 9.76767 2.89175 10.0148 2.54078 10.0148Z" fill="#CCAB80"/>
<path d="M2.54078 11.9079H0.647554C0.29659 11.9079 0 11.6113 0 11.2603C0 10.9094 0.29659 10.6128 0.647554 10.6128H2.54078C2.89175 10.6128 3.18833 10.9094 3.18833 11.2603C3.18833 11.6113 2.89175 11.9079 2.54078 11.9079Z" fill="#CCAB80"/>
<path d="M2.54078 13.7516H0.647554C0.29659 13.7516 0 13.4501 0 13.1041C0 12.7581 0.29659 12.4565 0.647554 12.4565H2.54078C2.89175 12.4565 3.18833 12.7531 3.18833 13.1041C3.18833 13.5045 2.89175 13.7516 2.54078 13.7516Z" fill="#CCAB80"/>
<path d="M2.54078 15.6452H0.647554C0.29659 15.6452 0 15.3486 0 14.9976C0 14.6467 0.29659 14.3501 0.647554 14.3501H2.54078C2.89175 14.3501 3.18833 14.6467 3.18833 14.9976C3.18833 15.3486 2.89175 15.6452 2.54078 15.6452Z" fill="#CCAB80"/>
<path d="M2.54078 17.489H0.647554C0.29659 17.489 0 17.1924 0 16.8414C0 16.4904 0.29659 16.1938 0.647554 16.1938H2.54078C2.89175 16.1938 3.18833 16.4904 3.18833 16.8414C3.18833 17.1924 2.89175 17.489 2.54078 17.489Z" fill="#CCAB80"/>
<path d="M2.54078 19.382H0.647554C0.29659 19.382 0 19.0854 0 18.7345C0 18.3835 0.29659 18.0869 0.647554 18.0869H2.54078C2.89175 18.0869 3.18833 18.3835 3.18833 18.7345C3.18833 19.0854 2.89175 19.382 2.54078 19.382Z" fill="#CCAB80"/>
<path d="M2.54078 21.2258H0.647554C0.29659 21.2258 0 20.9292 0 20.5782C0 20.2273 0.29659 19.9307 0.647554 19.9307H2.54078C2.89175 19.9307 3.18833 20.2273 3.18833 20.5782C3.18833 20.9786 2.89175 21.2258 2.54078 21.2258Z" fill="#CCAB80"/>
<path d="M2.54078 23.1242H0.647554C0.29659 23.1242 0 22.8276 0 22.4767C0 22.1257 0.29659 21.8291 0.647554 21.8291H2.54078C2.89175 21.8291 3.18833 22.1257 3.18833 22.4767C3.18833 22.8276 2.89175 23.1242 2.54078 23.1242Z" fill="#CCAB80"/>
<path d="M28.0574 2.98552C27.9091 2.58512 27.4592 1.14172 27.4098 1.09229C27.3109 0.894564 27.1132 0.691895 26.9105 0.691895H24.9679C24.6169 0.691895 24.3203 0.988483 24.3203 1.33945C24.3203 1.69041 24.6169 1.987 24.9679 1.987H25.6649L22.872 6.17385L18.9867 4.52778C18.7395 4.42892 18.4874 4.47835 18.2897 4.67608L14.4538 8.51196L10.519 3.47983C10.2225 3.13381 9.67377 3.18324 9.4711 3.5787L5.28425 11.2554H3.13892C2.78795 11.2554 2.49136 11.552 2.49136 11.903C2.49136 12.2539 2.78795 12.5505 3.13892 12.5505H5.63027C5.87742 12.5505 6.08009 12.4022 6.17896 12.1996L10.0643 4.92323L13.8507 9.75764C13.9496 9.90593 14.1473 10.0048 14.3006 10.0048C14.4983 10.0048 14.6515 9.95536 14.7998 9.80707L18.8878 5.71908L22.8769 7.41458C23.1735 7.51345 23.475 7.41458 23.6233 7.16743L26.6634 2.63455L26.8611 3.28211C26.96 3.63307 27.3109 3.78137 27.657 3.6825C28.0079 3.63307 28.1562 3.28211 28.0574 2.98552Z" fill="#CCAB80"/>
<path d="M28.1068 24.3698H2.54077C2.18981 24.3698 1.89322 24.0732 1.89322 23.7223C1.89322 23.3713 2.18981 23.0747 2.54077 23.0747H28.1068C28.4577 23.0747 28.7543 23.3762 28.7543 23.7223C28.7049 24.0732 28.4033 24.3698 28.1068 24.3698Z" fill="#CCAB80"/>
<path d="M23.1241 11.9079C22.9758 11.9079 22.7731 11.8585 22.6743 11.7102C22.5754 11.6113 22.4765 11.4136 22.4765 11.2603C22.4765 11.1071 22.526 10.9094 22.6743 10.8105C22.7731 10.7117 22.9708 10.6128 23.1241 10.6128C23.2773 10.6128 23.475 10.6622 23.5739 10.8105C23.6728 10.9094 23.7716 11.1071 23.7716 11.2603C23.7716 11.4136 23.7222 11.6113 23.5739 11.7102C23.4256 11.809 23.2773 11.9079 23.1241 11.9079Z" fill="#CCAB80"/>
<path d="M22.4765 11.2603C22.4765 10.9094 22.7731 10.6128 23.1241 10.6128C23.475 10.6128 23.7716 10.9094 23.7716 11.2603C23.7716 11.6113 23.475 11.9079 23.1241 11.9079C22.7731 11.9079 22.4765 11.6113 22.4765 11.2603Z" fill="#CCAB80"/>
<path d="M22.4765 23.7221C22.4765 23.3761 22.7731 23.0746 23.1241 23.0746C23.475 23.0746 23.7716 23.3761 23.7716 23.7221C23.7716 24.0731 23.475 24.3697 23.1241 24.3697C22.7731 24.3697 22.4765 24.0731 22.4765 23.7221ZM22.4765 21.9772C22.4765 21.6262 22.7731 21.3296 23.1241 21.3296C23.475 21.3296 23.7716 21.6262 23.7716 21.9772C23.7716 22.3281 23.475 22.6247 23.1241 22.6247C22.7731 22.5753 22.4765 22.2738 22.4765 21.9772ZM22.4765 20.1828C22.4765 19.8318 22.7731 19.5353 23.1241 19.5353C23.475 19.5353 23.7716 19.8318 23.7716 20.1828C23.7716 20.5338 23.475 20.8304 23.1241 20.8304C22.7731 20.7809 22.4765 20.5338 22.4765 20.1828ZM22.4765 18.3884C22.4765 18.0375 22.7731 17.7409 23.1241 17.7409C23.475 17.7409 23.7716 18.0424 23.7716 18.3884C23.7716 18.7394 23.475 19.036 23.1241 19.036C22.7731 19.036 22.4765 18.7345 22.4765 18.3884ZM22.4765 16.5941C22.4765 16.2431 22.7731 15.9465 23.1241 15.9465C23.475 15.9465 23.7716 16.2431 23.7716 16.5941C23.7716 16.945 23.475 17.2416 23.1241 17.2416C22.7731 17.2416 22.4765 16.9401 22.4765 16.5941ZM22.4765 14.8491C22.4765 14.4982 22.7731 14.2016 23.1241 14.2016C23.475 14.2016 23.7716 14.5031 23.7716 14.8491C23.7716 15.2001 23.475 15.4967 23.1241 15.4967C22.7731 15.4473 22.4765 15.2001 22.4765 14.8491ZM22.4765 13.0548C22.4765 12.7038 22.7731 12.4072 23.1241 12.4072C23.475 12.4072 23.7716 12.7088 23.7716 13.0548C23.7716 13.4057 23.475 13.7023 23.1241 13.7023C22.7731 13.6529 22.4765 13.4008 22.4765 13.0548Z" fill="#CCAB80"/>
<path d="M23.1241 24.3698C22.9758 24.3698 22.7731 24.3204 22.6743 24.1721C22.5754 24.0732 22.4765 23.8706 22.4765 23.7223C22.4765 23.574 22.526 23.3762 22.6743 23.2724C22.7731 23.1736 22.9708 23.0747 23.1241 23.0747C23.2773 23.0747 23.475 23.1241 23.5739 23.2724C23.6728 23.3713 23.7716 23.574 23.7716 23.7223C23.7716 23.8706 23.7222 24.0732 23.5739 24.1721C23.4256 24.2709 23.2773 24.3698 23.1241 24.3698Z" fill="#CCAB80"/>
<path d="M18.7395 10.0148C18.5912 10.0148 18.3885 9.9654 18.2897 9.81711C18.1908 9.71824 18.0919 9.51557 18.0919 9.36728C18.0919 9.21898 18.1414 9.01631 18.2897 8.91745C18.3885 8.81859 18.5863 8.71973 18.7395 8.71973C18.8927 8.71973 19.0905 8.76916 19.1893 8.91745C19.2882 9.01631 19.3871 9.21404 19.3871 9.36728C19.3871 9.52052 19.3376 9.71824 19.1893 9.81711C19.0905 9.9654 18.8927 10.0148 18.7395 10.0148Z" fill="#CCAB80"/>
<path d="M18.1414 9.4166C18.1414 9.06563 18.4379 8.76904 18.7889 8.76904C19.1399 8.76904 19.4365 9.06563 19.4365 9.4166C19.4365 9.76756 19.1399 10.0641 18.7889 10.0641C18.3885 10.0147 18.1414 9.76756 18.1414 9.4166Z" fill="#CCAB80"/>
<path d="M18.1414 23.7222C18.1414 23.3761 18.4379 23.0746 18.7889 23.0746C19.1399 23.0746 19.4365 23.3761 19.4365 23.7222C19.4365 24.0731 19.1399 24.3697 18.7889 24.3697C18.3885 24.3697 18.1414 24.0731 18.1414 23.7222ZM18.1414 21.9278C18.1414 21.5768 18.4379 21.2802 18.7889 21.2802C19.1399 21.2802 19.4365 21.5768 19.4365 21.9278C19.4365 22.2788 19.1399 22.5753 18.7889 22.5753C18.3885 22.5753 18.1414 22.2738 18.1414 21.9278ZM18.1414 20.1334C18.1414 19.7825 18.4379 19.4859 18.7889 19.4859C19.1399 19.4859 19.4365 19.7825 19.4365 20.1334C19.4365 20.4844 19.1399 20.781 18.7889 20.781C18.3885 20.781 18.1414 20.4844 18.1414 20.1334ZM18.1414 18.3391C18.1414 17.9881 18.4379 17.6915 18.7889 17.6915C19.1399 17.6915 19.4365 17.993 19.4365 18.3391C19.4365 18.69 19.1399 18.9866 18.7889 18.9866C18.3885 18.9866 18.1414 18.69 18.1414 18.3391ZM18.1414 16.5941C18.1414 16.2432 18.4379 15.9466 18.7889 15.9466C19.1399 15.9466 19.4365 16.2432 19.4365 16.5941C19.4365 16.9451 19.1399 17.2417 18.7889 17.2417C18.3885 17.1922 18.1414 16.8907 18.1414 16.5941ZM18.1414 14.7998C18.1414 14.4488 18.4379 14.1522 18.7889 14.1522C19.1399 14.1522 19.4365 14.4488 19.4365 14.7998C19.4365 15.1507 19.1399 15.4473 18.7889 15.4473C18.3885 15.3979 18.1414 15.0963 18.1414 14.7998ZM18.1414 13.0054C18.1414 12.6544 18.4379 12.3578 18.7889 12.3578C19.1399 12.3578 19.4365 12.6594 19.4365 13.0054C19.4365 13.3564 19.1399 13.6529 18.7889 13.6529C18.3885 13.6035 18.1414 13.3564 18.1414 13.0054ZM18.1414 11.211C18.1414 10.8601 18.4379 10.5635 18.7889 10.5635C19.1399 10.5635 19.4365 10.8601 19.4365 11.211C19.4365 11.562 19.1399 11.8586 18.7889 11.8586C18.3885 11.8092 18.1414 11.557 18.1414 11.211Z" fill="#CCAB80"/>
<path d="M18.7395 24.3698C18.5912 24.3698 18.3885 24.3204 18.2897 24.1721C18.1908 24.0732 18.0919 23.8706 18.0919 23.7223C18.0919 23.574 18.1414 23.3762 18.2897 23.2724C18.3885 23.1736 18.5863 23.0747 18.7395 23.0747C18.8927 23.0747 19.0905 23.1241 19.1893 23.2724C19.2882 23.3713 19.3871 23.574 19.3871 23.7223C19.3871 23.8706 19.3376 24.0732 19.1893 24.1721C19.0905 24.2709 18.8927 24.3698 18.7395 24.3698Z" fill="#CCAB80"/>
<path d="M14.4044 13.1535C14.2561 13.1535 14.0534 13.1041 13.9545 12.9558C13.8062 12.8569 13.7568 12.7086 13.7568 12.506C13.7568 12.3033 13.8062 12.155 13.9545 12.0561C14.0534 11.9573 14.2511 11.8584 14.4044 11.8584C14.5576 11.8584 14.7553 11.9078 14.8542 12.0561C14.953 12.155 15.0519 12.3527 15.0519 12.506C15.0519 12.6592 15.0025 12.8569 14.8542 12.9558C14.7059 13.0546 14.5576 13.1535 14.4044 13.1535Z" fill="#CCAB80"/>
<path d="M13.7568 12.506C13.7568 12.155 14.0534 11.8584 14.4044 11.8584C14.7553 11.8584 15.0519 12.155 15.0519 12.506C15.0519 12.8569 14.7553 13.1535 14.4044 13.1535C14.0534 13.1535 13.7568 12.8569 13.7568 12.506Z" fill="#CCAB80"/>
<path d="M13.7568 23.7223C13.7568 23.3763 14.0534 23.0747 14.4044 23.0747C14.7553 23.0747 15.0519 23.3763 15.0519 23.7223C15.0519 24.0733 14.7553 24.3698 14.4044 24.3698C14.0534 24.3698 13.7568 24.0733 13.7568 23.7223ZM13.7568 21.8785C13.7568 21.5275 14.0534 21.2309 14.4044 21.2309C14.7553 21.2309 15.0519 21.5325 15.0519 21.8785C15.0519 22.2295 14.7553 22.5261 14.4044 22.5261C14.0534 22.4766 13.7568 22.2295 13.7568 21.8785ZM13.7568 19.9803C13.7568 19.6294 14.0534 19.3328 14.4044 19.3328C14.7553 19.3328 15.0519 19.6343 15.0519 19.9803C15.0519 20.3313 14.7553 20.6279 14.4044 20.6279C14.0534 20.6279 13.7568 20.3313 13.7568 19.9803ZM13.7568 18.1365C13.7568 17.7856 14.0534 17.489 14.4044 17.489C14.7553 17.489 15.0519 17.7856 15.0519 18.1365C15.0519 18.4875 14.7553 18.7841 14.4044 18.7841C14.0534 18.7347 13.7568 18.4875 13.7568 18.1365ZM13.7568 16.2433C13.7568 15.8923 14.0534 15.5958 14.4044 15.5958C14.7553 15.5958 15.0519 15.8923 15.0519 16.2433C15.0519 16.5943 14.7553 16.8909 14.4044 16.8909C14.0534 16.8909 13.7568 16.5943 13.7568 16.2433ZM13.7568 14.3995C13.7568 14.0485 14.0534 13.752 14.4044 13.752C14.7553 13.752 15.0519 14.0485 15.0519 14.3995C15.0519 14.7505 14.7553 15.0471 14.4044 15.0471C14.0534 14.9976 13.7568 14.7505 13.7568 14.3995Z" fill="#CCAB80"/>
<path d="M14.4044 24.3698C14.2561 24.3698 14.0534 24.3204 13.9545 24.1721C13.8557 24.0732 13.7568 23.8706 13.7568 23.7223C13.7568 23.574 13.8062 23.3762 13.9545 23.2724C14.0534 23.1736 14.2511 23.0747 14.4044 23.0747C14.5576 23.0747 14.7553 23.1241 14.8542 23.2724C14.953 23.3713 15.0519 23.574 15.0519 23.7223C15.0519 23.8706 15.0025 24.0732 14.8542 24.1721C14.7059 24.2709 14.5576 24.3698 14.4044 24.3698Z" fill="#CCAB80"/>
<path d="M10.0148 10.0148C9.86654 10.0148 9.66387 9.9654 9.56501 9.81711C9.46614 9.66881 9.36728 9.51557 9.36728 9.36728C9.36728 9.21898 9.41671 9.01631 9.56501 8.91745C9.66387 8.81859 9.8616 8.71973 10.0148 8.71973C10.1681 8.71973 10.3658 8.76916 10.4647 8.91745C10.5635 9.01631 10.6624 9.21404 10.6624 9.36728C10.6624 9.52052 10.613 9.71824 10.4647 9.81711C10.3164 9.91597 10.1681 10.0148 10.0148 10.0148Z" fill="#CCAB80"/>
<path d="M9.41672 9.4166C9.41672 9.06563 9.71331 8.76904 10.0643 8.76904C10.4152 8.76904 10.7118 9.06563 10.7118 9.4166C10.7118 9.76756 10.4152 10.0641 10.0643 10.0641C9.66387 10.0147 9.41672 9.76756 9.41672 9.4166Z" fill="#CCAB80"/>
<path d="M9.41672 23.7222C9.41672 23.3761 9.71331 23.0746 10.0643 23.0746C10.4152 23.0746 10.7118 23.3761 10.7118 23.7222C10.7118 24.0731 10.4152 24.3697 10.0643 24.3697C9.66387 24.3697 9.41672 24.0731 9.41672 23.7222ZM9.41672 21.9278C9.41672 21.5768 9.71331 21.2802 10.0643 21.2802C10.4152 21.2802 10.7118 21.5768 10.7118 21.9278C10.7118 22.2788 10.4152 22.5753 10.0643 22.5753C9.66387 22.5753 9.41672 22.2738 9.41672 21.9278ZM9.41672 20.1334C9.41672 19.7825 9.71331 19.4859 10.0643 19.4859C10.4152 19.4859 10.7118 19.7825 10.7118 20.1334C10.7118 20.4844 10.4152 20.781 10.0643 20.781C9.66387 20.781 9.41672 20.4844 9.41672 20.1334ZM9.41672 18.3391C9.41672 17.9881 9.71331 17.6915 10.0643 17.6915C10.4152 17.6915 10.7118 17.993 10.7118 18.3391C10.7118 18.69 10.4152 18.9866 10.0643 18.9866C9.66387 18.9866 9.41672 18.69 9.41672 18.3391ZM9.41672 16.5941C9.41672 16.2432 9.71331 15.9466 10.0643 15.9466C10.4152 15.9466 10.7118 16.2432 10.7118 16.5941C10.7118 16.9451 10.4152 17.2417 10.0643 17.2417C9.66387 17.1922 9.41672 16.8907 9.41672 16.5941ZM9.41672 14.7998C9.41672 14.4488 9.71331 14.1522 10.0643 14.1522C10.4152 14.1522 10.7118 14.4488 10.7118 14.7998C10.7118 15.1507 10.4152 15.4473 10.0643 15.4473C9.66387 15.3979 9.41672 15.0963 9.41672 14.7998ZM9.41672 13.0054C9.41672 12.6544 9.71331 12.3578 10.0643 12.3578C10.4152 12.3578 10.7118 12.6594 10.7118 13.0054C10.7118 13.3564 10.4152 13.6529 10.0643 13.6529C9.66387 13.6035 9.41672 13.3564 9.41672 13.0054ZM9.41672 11.211C9.41672 10.8601 9.71331 10.5635 10.0643 10.5635C10.4152 10.5635 10.7118 10.8601 10.7118 11.211C10.7118 11.562 10.4152 11.8586 10.0643 11.8586C9.66387 11.8092 9.41672 11.557 9.41672 11.211Z" fill="#CCAB80"/>
<path d="M10.0148 24.3698C9.86654 24.3698 9.66387 24.3204 9.56501 24.1721C9.46614 24.0732 9.36728 23.8706 9.36728 23.7223C9.36728 23.574 9.41671 23.3762 9.56501 23.2724C9.66387 23.1736 9.8616 23.0747 10.0148 23.0747C10.1681 23.0747 10.3658 23.1241 10.4647 23.2724C10.5635 23.3713 10.6624 23.574 10.6624 23.7223C10.6624 23.8706 10.613 24.0732 10.4647 24.1721C10.3658 24.2709 10.1681 24.3698 10.0148 24.3698Z" fill="#CCAB80"/>
<path d="M5.67969 15.6452C5.53139 15.6452 5.32872 15.5958 5.22986 15.4475C5.131 15.3486 5.03214 15.1509 5.03214 14.9976C5.03214 14.8444 5.08157 14.6467 5.22986 14.5478C5.32872 14.449 5.52645 14.3501 5.67969 14.3501C5.83293 14.3501 6.03065 14.3995 6.12951 14.5478C6.22838 14.6467 6.32724 14.8444 6.32724 14.9976C6.32724 15.1509 6.27781 15.3486 6.12951 15.4475C5.98122 15.5463 5.83293 15.6452 5.67969 15.6452Z" fill="#CCAB80"/>
<path d="M5.03214 14.9976C5.03214 14.6467 5.32872 14.3501 5.67969 14.3501C6.03065 14.3501 6.32724 14.6467 6.32724 14.9976C6.32724 15.3486 6.03065 15.6452 5.67969 15.6452C5.32872 15.6452 5.03214 15.3486 5.03214 14.9976Z" fill="#CCAB80"/>
<path d="M5.03214 23.722C5.03214 23.376 5.32872 23.0745 5.67969 23.0745C6.03065 23.0745 6.32724 23.376 6.32724 23.722C6.32724 24.073 6.03065 24.3696 5.67969 24.3696C5.32872 24.3696 5.03214 24.073 5.03214 23.722ZM5.03214 21.9771C5.03214 21.6261 5.32872 21.3295 5.67969 21.3295C6.03065 21.3295 6.32724 21.6261 6.32724 21.9771C6.32724 22.328 6.03065 22.6246 5.67969 22.6246C5.32872 22.6246 5.03214 22.328 5.03214 21.9771ZM5.03214 20.2321C5.03214 19.8812 5.32872 19.5846 5.67969 19.5846C6.03065 19.5846 6.32724 19.8861 6.32724 20.2321C6.32724 20.5831 6.03065 20.8797 5.67969 20.8797C5.32872 20.8797 5.03214 20.5782 5.03214 20.2321ZM5.03214 18.4872C5.03214 18.1362 5.32872 17.8397 5.67969 17.8397C6.03065 17.8397 6.32724 18.1362 6.32724 18.4872C6.32724 18.8382 6.03065 19.1348 5.67969 19.1348C5.32872 19.1348 5.03214 18.8382 5.03214 18.4872ZM5.03214 16.7423C5.03214 16.3913 5.32872 16.0947 5.67969 16.0947C6.03065 16.0947 6.32724 16.3963 6.32724 16.7423C6.32724 17.0932 6.03065 17.3898 5.67969 17.3898C5.32872 17.3898 5.03214 17.0883 5.03214 16.7423Z" fill="#CCAB80"/>
<path d="M5.67969 24.3698C5.53139 24.3698 5.32872 24.3204 5.22986 24.1721C5.131 24.0732 5.03214 23.8706 5.03214 23.7223C5.03214 23.574 5.08157 23.3762 5.22986 23.2724C5.32872 23.1736 5.52645 23.0747 5.67969 23.0747C5.83293 23.0747 6.03065 23.1241 6.12951 23.2724C6.22838 23.3713 6.32724 23.574 6.32724 23.7223C6.32724 23.8706 6.27781 24.0732 6.12951 24.1721C5.98122 24.2709 5.83293 24.3698 5.67969 24.3698Z" fill="#CCAB80"/>
<path d="M11.913 1.29511H5.03708C4.68612 1.29511 4.38953 0.993574 4.38953 0.647553C4.38953 0.301532 4.68612 0 5.03708 0H11.913C12.264 0 12.5606 0.301532 12.5606 0.647553C12.5606 0.993574 12.2096 1.29511 11.913 1.29511Z" fill="#CCAB80"/>
<path d="M14.4043 3.18817H11.913C11.562 3.18817 11.2654 2.88664 11.2654 2.54062C11.2654 2.1946 11.562 1.89307 11.913 1.89307H14.4043C14.7553 1.89307 15.0519 2.18966 15.0519 2.54062C15.0025 2.89158 14.7009 3.18817 14.4043 3.18817Z" fill="#CCAB80"/>
<path d="M28.1068 11.2607H26.8611V12.5064H28.1068V11.2607Z" fill="#CCAB80"/>
<path d="M29.3525 10.0146H28.1068V11.2603H29.3525V10.0146Z" fill="#CCAB80"/>
<path d="M28.1068 8.76904H26.8611V10.0147H28.1068V8.76904Z" fill="#CCAB80"/>
<path d="M29.3525 7.52344H28.1068V8.76911H29.3525V7.52344Z" fill="#CCAB80"/>
<path d="M28.1068 6.27783H26.8611V7.52351H28.1068V6.27783Z" fill="#CCAB80"/>
</svg>
