<svg width="24" height="27" viewBox="0 0 24 27" fill="none" xmlns="http://www.w3.org/2000/svg">
<path d="M9.33105 8.24983C9.74016 7.16185 10.7832 6.39307 12.006 6.39307C13.2289 6.39307 14.227 7.11689 14.6361 8.15991C14.5462 8.24983 14.4562 8.29479 14.3618 8.3847C14.2719 8.42966 14.182 8.51957 14.0426 8.56453C13.9977 8.60949 13.9527 8.60949 13.9078 8.65445C13.8628 8.65445 13.8628 8.69941 13.8178 8.69941C13.7729 8.69941 13.7729 8.74436 13.7279 8.74436C13.683 8.74436 13.683 8.78932 13.638 8.78932C13.5931 8.78932 13.5931 8.83428 13.5481 8.83428C13.5031 8.83428 13.5031 8.83428 13.4582 8.87924C13.4282 8.87924 13.3982 8.89422 13.3683 8.9242C13.3383 8.95417 13.3083 8.96915 13.2784 8.96915C13.2484 8.96915 13.2184 8.98414 13.1884 9.01411C13.1435 9.01411 13.0536 9.05907 13.0086 9.05907H12.9187C12.7838 9.10403 12.6939 9.10403 12.5545 9.14898H12.4646C12.3747 9.14898 12.2848 9.14899 12.1904 9.19394H10.7382C10.7083 9.19394 10.6783 9.17896 10.6483 9.14898C10.5134 9.10403 10.3336 9.05907 10.1942 9.01411C10.1493 9.01411 10.1043 8.96915 10.0594 8.9242C10.0594 8.9242 10.0144 8.9242 10.0144 8.87924H9.96945C9.92449 8.83428 9.87953 8.83428 9.83458 8.78932C9.78962 8.78932 9.78962 8.74436 9.74466 8.74436C9.6997 8.74436 9.6997 8.69941 9.65474 8.69941C9.60979 8.65445 9.56483 8.65445 9.51987 8.60949C9.47491 8.60949 9.47491 8.56453 9.42995 8.56453C9.385 8.56453 9.385 8.51958 9.34004 8.51958C9.29508 8.51958 9.29508 8.47462 9.25012 8.47462C9.385 8.29478 9.385 8.24983 9.34004 8.24983H9.33105Z" fill="#2F324A"/>
<path d="M4.93411 23.4814C6.11201 23.4814 7.15503 24.2053 7.56415 25.2483C6.84033 25.8372 5.88722 26.2014 4.88916 26.2014C3.89109 26.2014 2.98294 25.8822 2.30408 25.3382C2.66824 24.2502 3.70676 23.4814 4.93411 23.4814Z" fill="#2F324A"/>
<path d="M19.2127 23.4814C20.3906 23.4814 21.4337 24.2053 21.8428 25.2483C21.119 25.8372 20.1658 26.2014 19.1678 26.2014C18.1697 26.2014 17.2661 25.8822 16.5827 25.3382C16.9469 24.2502 17.9854 23.4814 19.2127 23.4814Z" fill="#2F324A"/>
<path d="M11.9611 3.58313C12.7299 3.58313 13.3683 4.21704 13.3683 4.99031C13.3683 5.76359 12.7344 6.39749 11.9611 6.39749C11.1878 6.39749 10.5584 5.76359 10.5584 4.99031C10.5584 4.21704 11.1923 3.58313 11.9611 3.58313Z" fill="#2F324A"/>
<path d="M4.88923 20.6718C5.65801 20.6718 6.29192 21.3057 6.29192 22.0789C6.29192 22.8522 5.65801 23.4861 4.88923 23.4861C4.12045 23.4861 3.48205 22.8522 3.48205 22.0789C3.43709 21.3102 4.071 20.6718 4.88923 20.6718Z" fill="#2F324A"/>
<path d="M19.1228 20.6718C19.8916 20.6718 20.53 21.3057 20.53 22.0789C20.53 22.8522 19.8961 23.4861 19.1228 23.4861C18.3495 23.4861 17.7201 22.8522 17.7201 22.0789C17.7201 21.3057 18.354 20.6718 19.1228 20.6718Z" fill="#2F324A"/>
<path d="M19.1228 23.4815C19.8916 23.4815 20.53 22.8476 20.53 22.0743C20.53 21.301 19.8961 20.6671 19.1228 20.6671C18.3496 20.6671 17.7202 21.301 17.7202 22.0743C17.7202 22.8476 18.3541 23.4815 19.1228 23.4815ZM21.8428 25.2933C21.4337 24.2502 20.3907 23.5264 19.2128 23.5264C18.0349 23.5264 16.9469 24.2952 16.5378 25.3832C15.4947 24.6144 14.8608 23.3421 14.8608 21.9394C14.8608 19.5836 16.7626 17.6774 19.0779 17.6324C19.8916 17.6324 20.7099 17.8572 21.4337 18.3563V18.3113C23.9244 19.8983 24.1536 23.432 21.8428 25.2933Z" fill="#2F324A"/>
<path d="M4.88918 23.4816C5.65796 23.4816 6.29187 22.8477 6.29187 22.0744C6.29187 21.3012 5.65796 20.6673 4.88918 20.6673C4.1204 20.6673 3.482 21.3012 3.482 22.0744C3.43704 22.8432 4.07095 23.4816 4.88918 23.4816ZM7.56418 25.2934C7.15506 24.2504 6.11204 23.5266 4.93414 23.5266C3.75624 23.5266 2.66826 24.2954 2.25914 25.3833C1.21612 24.6146 0.582214 23.3423 0.582214 21.9396C0.582214 20.3526 1.44091 18.9004 2.84809 18.1766C4.70485 17.2235 6.7909 17.6326 8.10817 19.0847C8.37792 19.4039 8.65216 19.7636 8.78703 20.0828L8.83199 20.1727C8.87695 20.2177 8.9219 20.3526 8.9219 20.3975C9.42094 21.7103 9.28606 23.1624 8.51279 24.3403C8.51279 24.3853 8.46783 24.3853 8.46783 24.4302C8.19359 24.7 7.87888 25.0192 7.55968 25.2934H7.56418Z" fill="#2F324A"/>
<path d="M12.006 6.39309C10.7831 6.39309 9.74011 7.16187 9.33099 8.24985C8.4723 7.61594 7.92831 6.7078 7.74398 5.75469C7.15503 3.07969 9.19612 0.544067 11.961 0.544067C14.7259 0.544067 16.767 3.08419 16.1781 5.75469C15.9533 6.75275 15.4093 7.61145 14.681 8.2004C14.2269 7.11242 13.1839 6.38859 12.006 6.38859V6.39309ZM10.5538 4.98591C10.5538 5.75469 11.1878 6.39309 11.9565 6.39309C12.7253 6.39309 13.3637 5.75918 13.3637 4.98591C13.3637 4.21263 12.7298 3.57873 11.9565 3.57873C11.1833 3.57873 10.5538 4.21263 10.5538 4.98591Z" fill="#2F324A"/>
<path d="M3.482 1.31742H1.80507C1.48587 1.31742 1.21613 1.04768 1.21613 0.728476C1.21613 0.409274 1.48587 0.139526 1.80507 0.139526H3.52696C3.84616 0.139526 4.11591 0.409274 4.11591 0.728476C4.11591 1.04768 3.79671 1.31742 3.482 1.31742Z" fill="#CCAB80"/>
<path d="M4.07095 2.99418H1.80507C1.48587 2.99418 1.21613 2.71994 1.21613 2.40523C1.21613 2.09053 1.48587 1.81628 1.80507 1.81628H4.07095C4.39015 1.81628 4.6599 2.09053 4.6599 2.40523C4.6599 2.71994 4.39015 2.99418 4.07095 2.99418Z" fill="#CCAB80"/>
<path d="M4.61494 4.7161H1.80507C1.48587 4.7161 1.21613 4.44636 1.21613 4.12716C1.21613 3.80796 1.48587 3.53821 1.80507 3.53821H4.6599C4.9791 3.53821 5.24885 3.80796 5.24885 4.12716C5.24885 4.44636 4.92965 4.7161 4.61494 4.7161Z" fill="#CCAB80"/>
<path d="M22.2024 1.31742H20.4806C20.1614 1.31742 19.8916 1.04768 19.8916 0.728476C19.8916 0.409274 20.1658 0.139526 20.4806 0.139526H22.2024C22.5216 0.139526 22.7914 0.409274 22.7914 0.728476C22.7914 1.04768 22.5216 1.31742 22.2024 1.31742Z" fill="#CCAB80"/>
<path d="M22.2025 2.99418H19.9366C19.6174 2.99418 19.3477 2.71994 19.3477 2.40523C19.3477 2.09053 19.6174 1.81628 19.9366 1.81628H22.2025C22.5217 1.81628 22.7914 2.09053 22.7914 2.40523C22.7914 2.71994 22.5217 2.99418 22.2025 2.99418Z" fill="#CCAB80"/>
<path d="M22.2024 4.7161H19.3476C19.0284 4.7161 18.7587 4.44636 18.7587 4.12716C18.7587 3.80796 19.0284 3.53821 19.3476 3.53821H22.2024C22.5216 3.53821 22.7914 3.80796 22.7914 4.12716C22.7914 4.44636 22.5216 4.7161 22.2024 4.7161Z" fill="#CCAB80"/>
<path d="M22.1125 18.0866C23.6546 13.1007 21.3887 7.75074 16.7626 5.43991C17.1267 2.58508 14.8608 0 11.9116 0C8.96236 0 6.74593 2.54012 7.06064 5.43991C2.43897 7.7957 0.218046 13.1907 1.80056 18.1315C-0.55523 20.0332 -0.690104 23.7962 1.93544 25.7924C4.02148 27.3794 6.96623 27.0152 8.64316 25.0236C10.8641 25.7474 13.2648 25.7024 15.3958 24.9786C17.0728 27.0197 20.1119 27.3794 22.1935 25.7024C24.6392 23.7513 24.5942 19.9928 22.1036 18.0866H22.1125ZM11.9611 1.08798C14.0021 1.08798 15.6791 2.76491 15.6791 4.806C15.6791 5.34999 15.5892 5.84902 15.3599 6.34806C15.2999 6.46794 15.255 6.54287 15.225 6.57285C15.18 6.66276 15.0901 6.75268 15.0901 6.75268C15.0901 6.79764 15.0002 6.84259 15.0002 6.88755C14.9103 6.97747 14.8204 7.11234 14.7305 7.25171C14.4113 6.79764 13.9617 6.43797 13.4626 6.16373C13.7369 5.84453 13.8718 5.39495 13.8718 4.94087C13.8718 3.85289 12.9636 2.94474 11.8756 2.94474C10.7876 2.94474 9.97391 3.89785 9.97391 4.98583C9.97391 5.43991 10.1537 5.89398 10.428 6.25364C9.92895 6.52339 9.51984 6.88755 9.20513 7.34163C8.88593 6.97747 8.61618 6.57285 8.48131 6.11877C8.39139 5.89398 8.39139 5.75461 8.34644 5.61974C7.80244 3.3089 9.56929 1.08798 11.9745 1.08798H11.9611ZM10.0548 8.06994C10.464 7.39108 11.1878 6.98196 12.0015 6.98196C12.7703 6.98196 13.4986 7.39108 13.9077 8.02499C12.8647 8.65889 11.5519 8.79377 10.374 8.24977C10.3291 8.24977 10.3291 8.20482 10.2841 8.20482C10.3291 8.15986 10.1942 8.1149 10.0593 8.06994H10.0548ZM11.0979 4.98583C11.0979 4.53176 11.462 4.12264 11.9611 4.12264C12.4601 4.12264 12.8242 4.4868 12.8242 4.98583C12.8242 5.48486 12.4601 5.84902 11.9611 5.84902C11.462 5.84902 11.0979 5.43991 11.0979 4.98583ZM2.98296 25.1584C3.39207 24.4796 4.1159 24.0705 4.93413 24.0705C5.70291 24.0705 6.43123 24.4796 6.83585 25.1135C5.65795 25.8373 4.16085 25.8373 2.98296 25.1584ZM4.88917 22.9375C4.4351 22.9375 4.02598 22.5734 4.02598 22.0743C4.02598 21.6203 4.39014 21.2111 4.88917 21.2111C5.38821 21.2111 5.75236 21.5753 5.75236 22.0743C5.70741 22.5284 5.34325 22.9375 4.88917 22.9375ZM7.69904 24.3447C7.37984 23.8906 6.93026 23.531 6.43123 23.2567C6.70098 22.9375 6.84034 22.4879 6.84034 22.0339C6.84034 20.9459 5.9322 20.0377 4.84421 20.0377C3.75623 20.0377 2.84808 20.9459 2.84808 22.0339C2.84808 22.4879 3.02791 22.942 3.30216 23.3017C2.80313 23.5759 2.39401 23.9356 2.0793 24.3897C0.582205 22.7577 0.856448 20.0827 2.75817 18.7699C3.75623 18.0911 5.11396 17.9562 6.2469 18.4058C6.38177 18.4507 6.5661 18.5406 6.70098 18.6306C6.70098 18.6306 6.88081 18.7205 7.11009 18.9003C8.87694 20.3075 9.06127 22.7532 7.69904 24.3402V24.3447ZM14.6316 24.0255C12.8647 24.5245 11.0034 24.5245 9.2366 24.0255C9.82555 22.8026 9.87051 21.3505 9.37148 20.0827C9.28156 19.8579 9.10173 19.4937 8.9174 19.2195C8.5982 18.7205 8.00925 18.1315 7.51471 17.8123C6.15249 16.9042 4.29573 16.7243 2.75367 17.4931C1.53082 13.2311 3.43254 8.6544 7.33039 6.52339C7.64509 7.33713 8.18908 8.06545 8.9174 8.6544C9.37148 9.01856 10.0503 9.33326 10.6842 9.51759C10.8641 9.56255 11.0934 9.6075 11.2282 9.6075C11.453 9.65246 11.9521 9.65246 12.1364 9.65246C13.1794 9.6075 14.1775 9.19839 14.9463 8.60944C15.6251 8.06545 16.1691 7.34163 16.4434 6.52339C20.3412 8.6544 22.2474 13.1862 21.065 17.4482C20.3862 17.1784 19.7073 16.9941 18.979 17.039C17.7561 17.039 16.4838 17.4931 15.5352 18.4462C14.0831 19.9433 13.7684 22.2092 14.6271 24.021L14.6316 24.0255ZM17.2616 25.1584C17.6707 24.4796 18.3945 24.0705 19.2083 24.0705C19.977 24.0705 20.7054 24.4796 21.11 25.1135C19.9321 25.8373 18.435 25.8373 17.2571 25.1584H17.2616ZM19.1228 22.9375C18.6688 22.9375 18.2642 22.5734 18.2642 22.0743C18.2642 21.6203 18.6283 21.2111 19.1228 21.2111C19.5769 21.2111 19.986 21.5753 19.986 22.0743C19.986 22.5284 19.6219 22.9375 19.1228 22.9375ZM21.9777 24.3447C21.6585 23.8906 21.2089 23.531 20.7099 23.2567C20.9796 22.9375 21.119 22.4879 21.119 22.0339C21.119 20.9459 20.2108 20.0377 19.1228 20.0377C18.0349 20.0377 17.1267 20.9459 17.1267 22.0339C17.1267 22.4879 17.3065 22.942 17.5808 23.3017C17.0818 23.5759 16.6726 23.9356 16.3579 24.3897C15.724 23.7108 15.4048 22.8027 15.4048 21.8945C15.4048 19.8984 17.0368 18.1765 19.0779 18.1765C19.8017 18.1765 20.4851 18.4013 21.119 18.8104C21.2089 18.8553 21.2539 18.9003 21.3438 18.9003C23.1106 20.2131 23.3849 22.7082 21.9777 24.3402V24.3447Z" fill="#CCAB80"/>
<path d="M11.8666 19.4039C11.5474 19.4039 11.3226 19.1341 11.3226 18.8149C11.3226 18.4957 11.5924 18.2709 11.9116 18.2709C12.2308 18.2709 12.4556 18.5407 12.4556 18.8599C12.4556 19.1791 12.1813 19.4039 11.8666 19.4039ZM12.9096 18.8149C12.8647 18.725 12.8647 18.68 12.8647 18.5901C12.8647 18.3653 12.9995 18.1361 13.2288 18.0461C13.4986 17.9113 13.8627 18.0911 13.9527 18.3653C13.9976 18.4103 13.9976 18.5002 13.9976 18.5901C13.9976 18.8149 13.8627 19.0442 13.6335 19.1341C13.5885 19.1791 13.4986 19.1791 13.4087 19.1791C13.2288 19.1791 12.9995 19.0442 12.9096 18.8149ZM10.0998 18.9947C9.87497 18.9048 9.78056 18.6755 9.78056 18.4957C9.78056 18.4058 9.78056 18.3608 9.82552 18.2709C9.9604 17.9967 10.2796 17.8618 10.5943 17.9967C10.8191 18.0866 10.9135 18.3159 10.9135 18.4957C10.9135 18.5856 10.9135 18.6306 10.8685 18.7205C10.7786 18.9453 10.5538 19.0397 10.3695 19.0397C10.2796 19.0847 10.1897 19.0397 10.0953 18.9947H10.0998ZM14.3618 18.1316C14.2719 18.0416 14.1819 17.8573 14.1819 17.7224C14.1819 17.5876 14.2269 17.4032 14.3618 17.3133C14.5866 17.0885 14.9507 17.0885 15.1755 17.3133C15.2654 17.4032 15.3553 17.5831 15.3553 17.7224C15.3553 17.8573 15.3104 17.9922 15.1755 18.1316C15.0856 18.2215 14.9058 18.3114 14.7664 18.3114C14.6315 18.3114 14.4517 18.2664 14.3573 18.1316H14.3618ZM8.65212 17.9517C8.5622 17.8618 8.51725 17.7269 8.51725 17.5876C8.51725 17.4527 8.5622 17.2684 8.69708 17.1784C8.92187 16.9537 9.28603 16.9986 9.51082 17.2234C9.60073 17.3133 9.64569 17.4482 9.64569 17.5876C9.64569 17.7224 9.60073 17.9068 9.46586 17.9967C9.37594 18.0866 9.24107 18.1316 9.1017 18.1316C8.92187 18.1316 8.7825 18.0866 8.64762 17.9517H8.65212ZM15.4498 16.9537C15.225 16.8637 15.0856 16.6345 15.0856 16.4097C15.0856 16.3198 15.0856 16.2748 15.1306 16.1849C15.2654 15.9151 15.5846 15.7758 15.8544 15.8657C16.0792 15.9556 16.2185 16.1849 16.2185 16.4097C16.2185 16.4996 16.2185 16.5445 16.1736 16.6345C16.0837 16.8592 15.8544 16.9986 15.6296 16.9986C15.5846 16.9986 15.4947 16.9986 15.4498 16.9537ZM7.74397 16.4097C7.74397 16.3647 7.69901 16.2748 7.69901 16.2298C7.69901 16.005 7.83389 15.7758 8.06317 15.6858C8.38237 15.5959 8.69708 15.7308 8.78699 16.05C8.78699 16.095 8.83195 16.1849 8.83195 16.2298C8.83195 16.4546 8.69708 16.6839 8.46779 16.7738C8.42283 16.7738 8.33292 16.8188 8.28796 16.8188C8.01372 16.7738 7.83389 16.639 7.74397 16.4097ZM15.4048 14.9171C15.4048 14.6428 15.5846 14.418 15.8589 14.3731C15.5846 14.3731 15.3598 14.2382 15.2699 13.964C15.2699 13.919 15.225 13.874 15.225 13.7841C15.225 13.5593 15.4048 13.3301 15.6341 13.2401C15.9488 13.1502 16.268 13.33 16.3579 13.6043C16.3579 13.6493 16.4029 13.6942 16.3579 13.7841C16.3579 14.0089 16.1781 14.2382 15.9488 14.3281C16.268 14.3281 16.5377 14.5979 16.5377 14.9171C16.5377 15.2363 16.2635 15.506 15.9488 15.506C15.679 15.4611 15.4048 15.1868 15.4048 14.9171ZM8.01372 15.2318C7.69452 15.2318 7.46973 14.9575 7.46973 14.6428V14.5979C7.46973 14.2787 7.74397 14.0539 8.05868 14.0539C8.37788 14.0539 8.60267 14.3236 8.60267 14.6428V14.6878C8.60267 15.007 8.33292 15.2318 8.01372 15.2318ZM8.19804 13.6448C8.01821 13.5548 7.87884 13.3256 7.87884 13.1457C7.87884 13.0558 7.87884 12.9659 7.9238 12.8715C8.05868 12.6017 8.42283 12.4624 8.69258 12.6017C8.87241 12.6916 9.01178 12.9209 9.01178 13.1008C9.01178 13.1907 9.01178 13.2806 8.96683 13.3705C8.87691 13.5503 8.64762 13.6897 8.46779 13.6897C8.37788 13.6897 8.28796 13.6897 8.19355 13.6448H8.19804ZM14.6315 12.7411C14.5416 12.6512 14.4966 12.5163 14.4966 12.3769C14.4966 12.1971 14.5866 12.0577 14.7214 11.9229C14.9462 11.743 15.3104 11.743 15.5352 12.0128C15.6251 12.1027 15.67 12.2376 15.67 12.3769C15.67 12.5568 15.5801 12.6961 15.4453 12.831C15.3553 12.9209 15.2205 12.9659 15.0811 12.9659C14.9013 12.9659 14.7619 12.876 14.627 12.7411H14.6315ZM8.96683 12.287C8.87691 12.1971 8.83195 12.0622 8.83195 11.9229C8.83195 11.743 8.87691 11.6037 9.01178 11.5138C9.23657 11.289 9.60073 11.3339 9.82552 11.5587C9.91544 11.6486 9.96039 11.7835 9.96039 11.9229C9.96039 12.1027 9.91544 12.2421 9.78056 12.332C9.69065 12.4219 9.55577 12.4669 9.4164 12.4669C9.23657 12.4669 9.0972 12.3769 8.96233 12.287H8.96683ZM13.593 11.8779C13.4132 11.788 13.2738 11.5587 13.2738 11.3789C13.2738 11.289 13.2738 11.199 13.3188 11.1091C13.4536 10.8394 13.8178 10.745 14.0875 10.8843C14.2674 10.9743 14.4067 11.2035 14.4067 11.3834C14.4067 11.4733 14.4067 11.5632 14.3618 11.6531C14.2719 11.833 14.0426 11.9723 13.8627 11.9723C13.7728 11.9723 13.6829 11.9274 13.593 11.8824V11.8779ZM10.2346 11.289C10.2346 11.244 10.1897 11.1541 10.1897 11.1091C10.1897 10.8843 10.3246 10.6551 10.5988 10.5651C10.918 10.4752 11.2327 10.6101 11.3226 10.9293C11.3226 10.9743 11.3676 11.0642 11.3676 11.1091C11.3676 11.3339 11.2327 11.5632 10.9585 11.6531C10.9135 11.6531 10.8236 11.6981 10.7786 11.6981C10.5538 11.6981 10.3246 11.5182 10.2346 11.289ZM12.2757 11.5138C11.9565 11.4688 11.7767 11.244 11.7767 10.9698V10.9248C11.8217 10.6056 12.0959 10.3808 12.4106 10.4258C12.7298 10.4707 12.9096 10.6955 12.9096 10.9698V11.0147C12.8647 11.3339 12.6399 11.5138 12.3656 11.5138H12.2757Z" fill="#CCAB80"/>
</svg>
