<svg width="24" height="22" viewBox="0 0 24 22" fill="none" xmlns="http://www.w3.org/2000/svg">
<path d="M20.4924 6.99976H17.9813V21.4733H20.4924V6.99976Z" fill="#2F324A"/>
<path d="M11.5235 11.069H9.01233V21.4733H11.5235V11.069Z" fill="#2F324A"/>
<path d="M16.0276 13.3824H13.5165V21.4774H16.0276V13.3824Z" fill="#2F324A"/>
<path d="M7.05489 13.3824H4.54376V21.4774H7.05489V13.3824Z" fill="#2F324A"/>
<path d="M7.01531 21.9519C6.73454 21.9519 6.49727 21.7147 6.49727 21.4339V13.857H5.02223V21.4734C5.02223 21.7542 4.781 21.9915 4.50419 21.9915C4.22737 21.9915 3.98615 21.7502 3.98615 21.4734V13.3785C3.98615 13.0977 4.22737 12.8605 4.50419 12.8605H7.01531C7.29608 12.8605 7.53335 13.1017 7.53335 13.3785V21.4734C7.53335 21.7147 7.29213 21.9519 7.01531 21.9519Z" fill="#CCAB80"/>
<path d="M11.5235 21.9519C11.2427 21.9519 11.0054 21.7146 11.0054 21.4339V11.5476H9.49086V21.4339C9.49086 21.7146 9.24963 21.9519 8.97282 21.9519C8.696 21.9519 8.45477 21.7146 8.45477 21.4339V11.0691C8.45477 10.7883 8.696 10.5906 8.97282 10.5906H11.4839C11.7647 10.5906 12.002 10.8278 12.002 11.0691V21.4734C12.002 21.7146 11.7647 21.9519 11.5235 21.9519Z" fill="#CCAB80"/>
<path d="M15.9882 21.9519C15.7074 21.9519 15.4701 21.7147 15.4701 21.4339V13.857H13.9555V21.4734C13.9555 21.7542 13.7143 21.9915 13.4375 21.9915C13.1607 21.9915 12.9985 21.7107 12.9985 21.4734V13.3785C12.9985 13.0977 13.2358 12.8605 13.5166 12.8605H16.0277C16.3085 12.8605 16.5457 13.1017 16.5457 13.3785V21.4734C16.5062 21.7147 16.2689 21.9519 15.9882 21.9519Z" fill="#CCAB80"/>
<path d="M20.4924 21.9519C20.2116 21.9519 19.9743 21.7146 19.9743 21.4339V7.47835H18.4597V21.4339C18.4597 21.7146 18.2225 21.9519 17.9417 21.9519C17.6609 21.9519 17.4236 21.7146 17.4236 21.4339V6.99985C17.4236 6.71908 17.6609 6.48181 17.9417 6.48181H20.4528C20.7336 6.48181 20.9709 6.71908 20.9709 6.99985V21.4734C20.9709 21.7146 20.7336 21.9519 20.4924 21.9519Z" fill="#CCAB80"/>
<path d="M23.4819 21.9518H2.03257C1.7518 21.9518 1.51453 21.7145 1.51453 21.4338V1.499C1.51453 1.21823 1.75575 0.980957 2.03257 0.980957C2.30939 0.980957 2.55061 1.22218 2.55061 1.499V20.9553H23.4819C23.7627 20.9553 23.9999 21.1965 23.9999 21.4733C23.9604 21.7145 23.7192 21.9518 23.4819 21.9518Z" fill="#CCAB80"/>
<path d="M2.03263 4.01021H0.518043C0.237272 4.01021 0 3.77294 0 3.49216C0 3.21139 0.241226 2.97412 0.518043 2.97412H2.03263C2.3134 2.97412 2.55067 3.21139 2.55067 3.49216C2.55067 3.77294 2.30944 4.01021 2.03263 4.01021Z" fill="#CCAB80"/>
<path d="M2.03263 5.52473H0.518043C0.237272 5.52473 0 5.28746 0 5.00669C0 4.72592 0.241226 4.48865 0.518043 4.48865H2.03263C2.3134 4.48865 2.55067 4.72592 2.55067 5.00669C2.55067 5.28746 2.30944 5.52473 2.03263 5.52473Z" fill="#CCAB80"/>
<path d="M2.03263 6.99983H0.518043C0.237272 6.99983 0 6.76256 0 6.48179C0 6.20102 0.241226 5.96375 0.518043 5.96375H2.03263C2.3134 5.96375 2.55067 6.20102 2.55067 6.48179C2.55067 6.76256 2.30944 6.99983 2.03263 6.99983Z" fill="#CCAB80"/>
<path d="M2.03263 8.51838H0.518043C0.237272 8.51838 0 8.28111 0 8.00034C0 7.71957 0.241226 7.4823 0.518043 7.4823H2.03263C2.3134 7.4823 2.55067 7.71957 2.55067 8.00034C2.55067 8.28111 2.30944 8.51838 2.03263 8.51838Z" fill="#CCAB80"/>
<path d="M2.03263 9.99336H0.518043C0.237272 9.99336 0 9.75214 0 9.47532C0 9.1985 0.241226 8.95728 0.518043 8.95728H2.03263C2.3134 8.95728 2.55067 9.19455 2.55067 9.47532C2.55067 9.75609 2.30944 9.99336 2.03263 9.99336Z" fill="#CCAB80"/>
<path d="M2.03263 11.508H0.518043C0.237272 11.508 0 11.2707 0 10.99C0 10.7092 0.241226 10.4719 0.518043 10.4719H2.03263C2.3134 10.4719 2.55067 10.7092 2.55067 10.99C2.55067 11.2707 2.30944 11.508 2.03263 11.508Z" fill="#CCAB80"/>
<path d="M2.03263 12.983H0.518043C0.237272 12.983 0 12.7457 0 12.4649C0 12.1842 0.241226 11.9469 0.518043 11.9469H2.03263C2.3134 11.9469 2.55067 12.1881 2.55067 12.4649C2.55067 12.7418 2.30944 12.983 2.03263 12.983Z" fill="#CCAB80"/>
<path d="M2.03263 14.4976H0.518043C0.237272 14.4976 0 14.2564 0 13.9796C0 13.7028 0.241226 13.4615 0.518043 13.4615H2.03263C2.3134 13.4615 2.55067 13.7028 2.55067 13.9796C2.55067 14.2564 2.30944 14.4976 2.03263 14.4976Z" fill="#CCAB80"/>
<path d="M2.03263 15.9726H0.518043C0.237272 15.9726 0 15.7353 0 15.4546C0 15.1738 0.241226 14.9365 0.518043 14.9365H2.03263C2.3134 14.9365 2.55067 15.1777 2.55067 15.4546C2.55067 15.7314 2.30944 15.9726 2.03263 15.9726Z" fill="#CCAB80"/>
<path d="M2.03263 17.4871H0.518043C0.237272 17.4871 0 17.2499 0 16.9691C0 16.6883 0.241226 16.451 0.518043 16.451H2.03263C2.3134 16.451 2.55067 16.6883 2.55067 16.9691C2.55067 17.2499 2.30944 17.4871 2.03263 17.4871Z" fill="#CCAB80"/>
<path d="M2.03263 18.9622H0.518043C0.237272 18.9622 0 18.725 0 18.4442C0 18.1634 0.241226 17.9261 0.518043 17.9261H2.03263C2.3134 17.9261 2.55067 18.1634 2.55067 18.4442C2.55067 18.725 2.30944 18.9622 2.03263 18.9622Z" fill="#CCAB80"/>
<path d="M4.54371 10.5114H2.55064C2.26986 10.5114 2.03259 10.2741 2.03259 9.99333C2.03259 9.71256 2.26986 9.47529 2.55064 9.47529H4.2234L7.09438 3.29436C7.17347 3.13618 7.33561 3.01359 7.49379 3.01359C7.65197 3.01359 7.85365 3.05314 7.93274 3.21132L11.0015 7.15793L13.1132 4.20786C13.1923 4.08922 13.3109 4.01013 13.473 4.01013C13.6352 4.01013 13.7538 4.04968 13.8724 4.16831L14.9876 5.28349L18.4557 1.0561H18.0168C17.736 1.0561 17.4987 0.814878 17.4987 0.538062C17.4987 0.261245 17.74 0.0200195 18.0168 0.0200195H19.5314C19.7291 0.0200195 19.8912 0.138655 19.9703 0.30079C20.0494 0.458971 20.0099 0.700198 19.8912 0.818833L15.387 6.31957C15.3079 6.43821 15.1497 6.47776 15.0272 6.5173C14.869 6.5173 14.7464 6.47776 14.6673 6.35912L13.5917 5.28349L11.3969 8.27311C11.3178 8.39175 11.1596 8.47084 10.9975 8.47084C10.8354 8.47084 10.6772 8.39175 10.5981 8.27311L7.60847 4.44513L4.97871 10.1871C4.89962 10.3848 4.69794 10.5074 4.53976 10.5074L4.54371 10.5114Z" fill="#CCAB80"/>
<path d="M19.9743 2.53514C19.7766 2.53514 19.5749 2.41651 19.4958 2.17528L18.9778 0.660698C18.8987 0.379927 19.0173 0.10311 19.2981 0.0240199C19.5788 -0.0550706 19.8557 0.0635649 19.9347 0.344336L20.4528 1.85892C20.5319 2.13969 20.4132 2.41651 20.1325 2.4956C20.0929 2.4956 20.0138 2.53514 19.9743 2.53514Z" fill="#CCAB80"/>
</svg>
