<svg width="42" height="12" viewBox="0 0 42 12" fill="none" xmlns="http://www.w3.org/2000/svg">
<path d="M39.1173 11.8131V9.9905L38.9992 9.60236V6.41285C38.9992 5.79407 38.8135 5.31593 38.4423 4.97841C38.071 4.62965 37.5085 4.45527 36.7547 4.45527C36.2484 4.45527 35.7478 4.53402 35.2528 4.69153C34.769 4.84903 34.3584 5.06842 34.0208 5.34968L33.1939 3.81399C33.6777 3.44273 34.2515 3.16709 34.9153 2.98708C35.5903 2.79582 36.2878 2.7002 37.0078 2.7002C38.3129 2.7002 39.3198 3.01521 40.0286 3.64523C40.7486 4.26401 41.1086 5.22593 41.1086 6.53098V11.8131H39.1173ZM36.2822 11.9312C35.6072 11.9312 35.0165 11.8187 34.5102 11.5937C34.004 11.3574 33.6102 11.0368 33.3289 10.6318C33.0589 10.2155 32.9239 9.74861 32.9239 9.23109C32.9239 8.72482 33.0421 8.26918 33.2783 7.86416C33.5258 7.45914 33.9252 7.1385 34.4765 6.90225C35.0278 6.66599 35.759 6.54786 36.6703 6.54786H39.2861V7.94854H36.8222C36.1022 7.94854 35.6184 8.06667 35.3709 8.30293C35.1234 8.52794 34.9996 8.8092 34.9996 9.14671C34.9996 9.52923 35.1515 9.83299 35.4553 10.058C35.759 10.283 36.1809 10.3955 36.721 10.3955C37.2385 10.3955 37.6997 10.2774 38.1048 10.0411C38.521 9.80487 38.8192 9.4561 38.9992 8.99483L39.3536 10.2605C39.1511 10.7893 38.7854 11.1999 38.2566 11.4924C37.7391 11.7849 37.081 11.9312 36.2822 11.9312Z" fill="#E5E7EB"/>
<path d="M29.8049 11.9311C28.8149 11.9311 28.0498 11.678 27.5098 11.1717C26.9698 10.6542 26.6998 9.89481 26.6998 8.89352V0.810059H28.8092V8.84289C28.8092 9.27041 28.9161 9.6023 29.1299 9.83856C29.3549 10.0748 29.6643 10.1929 30.058 10.1929C30.5306 10.1929 30.9243 10.0692 31.2393 9.82168L31.83 11.3236C31.5825 11.5261 31.2787 11.678 30.9187 11.7793C30.5587 11.8805 30.1874 11.9311 29.8049 11.9311ZM25.2147 4.55646V2.86889H31.2225V4.55646H25.2147Z" fill="#E5E7EB"/>
<path d="M20.1508 11.9312C19.1495 11.9312 18.272 11.7343 17.5182 11.3406C16.7757 10.9355 16.1963 10.3843 15.78 9.68674C15.375 8.98921 15.1725 8.19605 15.1725 7.30726C15.1725 6.40723 15.3694 5.61407 15.7632 4.92779C16.1682 4.23026 16.7194 3.68461 17.417 3.29085C18.1257 2.89708 18.9302 2.7002 19.8302 2.7002C20.7077 2.7002 21.4896 2.89145 22.1759 3.27397C22.8622 3.65648 23.4022 4.19651 23.796 4.89404C24.1898 5.59157 24.3866 6.41285 24.3866 7.35789C24.3866 7.44789 24.381 7.54915 24.3698 7.66165C24.3698 7.77416 24.3641 7.88104 24.3529 7.98229H16.8432V6.58161H23.2391L22.4122 7.02038C22.4234 6.50285 22.3165 6.04721 22.0915 5.65344C21.8665 5.25968 21.5571 4.95029 21.1634 4.72528C20.7809 4.50027 20.3365 4.38777 19.8302 4.38777C19.3127 4.38777 18.857 4.50027 18.4633 4.72528C18.0807 4.95029 17.777 5.2653 17.552 5.67032C17.3382 6.06409 17.2313 6.53098 17.2313 7.071V7.40852C17.2313 7.94854 17.3551 8.42668 17.6026 8.84295C17.8501 9.25922 18.1989 9.57986 18.6489 9.80487C19.0989 10.0299 19.6164 10.1424 20.2015 10.1424C20.7077 10.1424 21.1634 10.0636 21.5684 9.90612C21.9734 9.74861 22.3334 9.5011 22.6484 9.16359L23.7791 10.463C23.3741 10.9355 22.8622 11.3012 22.2434 11.5599C21.6359 11.8074 20.9384 11.9312 20.1508 11.9312Z" fill="#E5E7EB"/>
<path d="M0 11.813V0H1.8057L6.96966 8.62348H6.02463L11.1042 0H12.9099L12.9268 11.813H10.8511L10.8342 3.25701H11.273L6.95279 10.4629H5.974L1.58632 3.25701H2.09259V11.813H0Z" fill="#E5E7EB"/>
</svg>
