<svg width="30" height="34" viewBox="0 0 30 34" fill="none" xmlns="http://www.w3.org/2000/svg">
<path d="M11.6638 10.3124C12.1752 8.95243 13.479 7.99146 15.0075 7.99146C16.5361 7.99146 17.7837 8.89623 18.2951 10.2C18.1827 10.3124 18.0703 10.3686 17.9523 10.481C17.8399 10.5372 17.7275 10.6496 17.5533 10.7058C17.4971 10.762 17.4409 10.762 17.3847 10.8182C17.3285 10.8182 17.3285 10.8744 17.2723 10.8744C17.2161 10.8744 17.2161 10.9306 17.1599 10.9306C17.1037 10.9306 17.1037 10.9868 17.0475 10.9868C16.9913 10.9868 16.9913 11.043 16.9351 11.043C16.8789 11.043 16.8789 11.043 16.8227 11.0992C16.7852 11.0992 16.7478 11.1179 16.7103 11.1554C16.6728 11.1928 16.6354 11.2116 16.5979 11.2116C16.5604 11.2116 16.523 11.2303 16.4855 11.2678C16.4293 11.2678 16.3169 11.324 16.2607 11.324H16.1483C15.9797 11.3802 15.8673 11.3802 15.6931 11.4364H15.5807C15.4683 11.4364 15.3559 11.4364 15.2379 11.4926H13.4228C13.3853 11.4926 13.3478 11.4738 13.3104 11.4364C13.1418 11.3802 12.917 11.324 12.7428 11.2678C12.6866 11.2678 12.6304 11.2116 12.5742 11.1554C12.5742 11.1554 12.518 11.1554 12.518 11.0992H12.4618C12.4056 11.043 12.3494 11.043 12.2932 10.9868C12.237 10.9868 12.237 10.9306 12.1808 10.9306C12.1246 10.9306 12.1246 10.8744 12.0684 10.8744C12.0122 10.8182 11.956 10.8182 11.8998 10.762C11.8436 10.762 11.8436 10.7058 11.7874 10.7058C11.7312 10.7058 11.7312 10.6496 11.675 10.6496C11.6188 10.6496 11.6188 10.5934 11.5626 10.5934C11.7312 10.3686 11.7312 10.3124 11.675 10.3124H11.6638Z" fill="white"/>
<path d="M6.16767 29.3518C7.64005 29.3518 8.94382 30.2566 9.45522 31.5604C8.55044 32.2965 7.35906 32.7517 6.11148 32.7517C4.8639 32.7517 3.72871 32.3527 2.88013 31.6728C3.33533 30.3128 4.63349 29.3518 6.16767 29.3518Z" fill="white"/>
<path d="M24.016 29.3518C25.4883 29.3518 26.7921 30.2566 27.3035 31.5604C26.3987 32.2965 25.2074 32.7517 23.9598 32.7517C22.7122 32.7517 21.5826 32.3527 20.7284 31.6728C21.1836 30.3128 22.4818 29.3518 24.016 29.3518Z" fill="white"/>
<path d="M14.9513 4.479C15.9123 4.479 16.7103 5.27139 16.7103 6.23798C16.7103 7.20458 15.9179 7.99696 14.9513 7.99696C13.9847 7.99696 13.198 7.20458 13.198 6.23798C13.198 5.27139 13.9904 4.479 14.9513 4.479Z" fill="white"/>
<path d="M6.11146 25.8396C7.07244 25.8396 7.86482 26.632 7.86482 27.5986C7.86482 28.5652 7.07244 29.3576 6.11146 29.3576C5.15049 29.3576 4.35248 28.5652 4.35248 27.5986C4.29629 26.6376 5.08867 25.8396 6.11146 25.8396Z" fill="white"/>
<path d="M23.9036 25.8396C24.8645 25.8396 25.6625 26.632 25.6625 27.5986C25.6625 28.5652 24.8702 29.3576 23.9036 29.3576C22.937 29.3576 22.1502 28.5652 22.1502 27.5986C22.1502 26.632 22.9426 25.8396 23.9036 25.8396Z" fill="white"/>
<path d="M23.9036 29.3518C24.8645 29.3518 25.6625 28.5594 25.6625 27.5928C25.6625 26.6262 24.8702 25.8338 23.9036 25.8338C22.937 25.8338 22.1502 26.6262 22.1502 27.5928C22.1502 28.5594 22.9426 29.3518 23.9036 29.3518ZM27.3035 31.6166C26.7921 30.3128 25.4883 29.408 24.016 29.408C22.5436 29.408 21.1836 30.369 20.6722 31.729C19.3684 30.768 18.576 29.1776 18.576 27.4242C18.576 24.4795 20.9532 22.0967 23.8474 22.0405C24.8645 22.0405 25.8873 22.3215 26.7921 22.9453V22.8891C29.9054 24.8729 30.192 29.29 27.3035 31.6166Z" fill="white"/>
<path d="M6.11146 29.3521C7.07244 29.3521 7.86482 28.5597 7.86482 27.5931C7.86482 26.6265 7.07244 25.8341 6.11146 25.8341C5.15049 25.8341 4.35248 26.6265 4.35248 27.5931C4.29629 28.5541 5.08867 29.3521 6.11146 29.3521ZM9.4552 31.6168C8.94381 30.3131 7.64003 29.4083 6.16766 29.4083C4.69529 29.4083 3.33531 30.3693 2.82391 31.7292C1.52014 30.7683 0.727753 29.1779 0.727753 27.4245C0.727753 25.4408 1.80112 23.6256 3.5601 22.7208C5.88105 21.5294 8.48861 22.0408 10.1352 23.856C10.4724 24.255 10.8152 24.7046 10.9838 25.1036L11.04 25.216C11.0962 25.2722 11.1524 25.4408 11.1524 25.497C11.7762 27.1379 11.6076 28.9531 10.641 30.4255C10.641 30.4817 10.5848 30.4817 10.5848 30.5379C10.242 30.875 9.84859 31.274 9.44959 31.6168H9.4552Z" fill="white"/>
<path d="M15.0075 7.99121C13.4789 7.99121 12.1752 8.95218 11.6638 10.3122C10.5904 9.51978 9.91041 8.38459 9.68 7.19321C8.94382 3.84946 11.4952 0.679932 14.9513 0.679932C18.4075 0.679932 20.9588 3.85508 20.2226 7.19321C19.9416 8.44079 19.2617 9.51416 18.3513 10.2503C17.7837 8.89037 16.4799 7.98559 15.0075 7.98559V7.99121ZM13.1923 6.23223C13.1923 7.19321 13.9847 7.99121 14.9457 7.99121C15.9067 7.99121 16.7047 7.19883 16.7047 6.23223C16.7047 5.26564 15.9123 4.47325 14.9457 4.47325C13.9791 4.47325 13.1923 5.26564 13.1923 6.23223Z" fill="white"/>
<path d="M4.35249 1.64669H2.25633C1.85733 1.64669 1.52014 1.3095 1.52014 0.910503C1.52014 0.511502 1.85733 0.174316 2.25633 0.174316H4.40869C4.80769 0.174316 5.14487 0.511502 5.14487 0.910503C5.14487 1.3095 4.74587 1.64669 4.35249 1.64669Z" fill="#CCAB80"/>
<path d="M5.08867 3.74263H2.25633C1.85733 3.74263 1.52014 3.39983 1.52014 3.00645C1.52014 2.61307 1.85733 2.27026 2.25633 2.27026H5.08867C5.48768 2.27026 5.82486 2.61307 5.82486 3.00645C5.82486 3.39983 5.48768 3.74263 5.08867 3.74263Z" fill="#CCAB80"/>
<path d="M5.76866 5.89522H2.25633C1.85733 5.89522 1.52014 5.55804 1.52014 5.15904C1.52014 4.76004 1.85733 4.42285 2.25633 4.42285H5.82486C6.22386 4.42285 6.56105 4.76004 6.56105 5.15904C6.56105 5.55804 6.16205 5.89522 5.76866 5.89522Z" fill="#CCAB80"/>
<path d="M27.7531 1.64669H25.6007C25.2017 1.64669 24.8645 1.3095 24.8645 0.910503C24.8645 0.511502 25.2073 0.174316 25.6007 0.174316H27.7531C28.1521 0.174316 28.4893 0.511502 28.4893 0.910503C28.4893 1.3095 28.1521 1.64669 27.7531 1.64669Z" fill="#CCAB80"/>
<path d="M27.7531 3.74263H24.9207C24.5217 3.74263 24.1845 3.39983 24.1845 3.00645C24.1845 2.61307 24.5217 2.27026 24.9207 2.27026H27.7531C28.1521 2.27026 28.4893 2.61307 28.4893 3.00645C28.4893 3.39983 28.1521 3.74263 27.7531 3.74263Z" fill="#CCAB80"/>
<path d="M27.7531 5.89522H24.1845C23.7855 5.89522 23.4484 5.55804 23.4484 5.15904C23.4484 4.76004 23.7855 4.42285 24.1845 4.42285H27.7531C28.1521 4.42285 28.4893 4.76004 28.4893 5.15904C28.4893 5.55804 28.1521 5.89522 27.7531 5.89522Z" fill="#CCAB80"/>
<path d="M27.6407 22.6082C29.5683 16.3759 26.7359 9.68843 20.9532 6.79988C21.4084 3.23135 18.576 0 14.8895 0C11.2029 0 8.43242 3.17515 8.8258 6.79988C3.04871 9.74463 0.272557 16.4883 2.25071 22.6644C-0.694038 25.0416 -0.862629 29.7453 2.4193 32.2404C5.02686 34.2242 8.70778 33.769 10.8039 31.2795C13.5801 32.1842 16.581 32.128 19.2448 31.2233C21.341 33.7746 25.1399 34.2242 27.7418 32.128C30.799 29.6891 30.7428 24.991 27.6294 22.6082H27.6407ZM14.9513 1.35998C17.5027 1.35998 19.5988 3.45614 19.5988 6.0075C19.5988 6.68749 19.4864 7.31128 19.1998 7.93507C19.1249 8.08493 19.0687 8.17859 19.0312 8.21606C18.975 8.32845 18.8627 8.44085 18.8627 8.44085C18.8627 8.49704 18.7503 8.55324 18.7503 8.60944C18.6379 8.72183 18.5255 8.89043 18.4131 9.06464C18.0141 8.49704 17.4521 8.04746 16.8283 7.70466C17.1711 7.30566 17.3397 6.74369 17.3397 6.17609C17.3397 4.81612 16.2045 3.68093 14.8445 3.68093C13.4846 3.68093 12.4674 4.87231 12.4674 6.23229C12.4674 6.79988 12.6922 7.36748 13.035 7.81706C12.4112 8.15424 11.8998 8.60944 11.5064 9.17703C11.1074 8.72183 10.7702 8.21606 10.6016 7.64846C10.4892 7.36748 10.4892 7.19326 10.433 7.02467C9.75306 4.13613 11.9616 1.35998 14.9682 1.35998H14.9513ZM12.5685 10.0874C13.0799 9.23885 13.9847 8.72745 15.0019 8.72745C15.9629 8.72745 16.8733 9.23885 17.3847 10.0312C16.0809 10.8236 14.4399 10.9922 12.9675 10.3122C12.9113 10.3122 12.9113 10.256 12.8552 10.256C12.9113 10.1998 12.7428 10.1436 12.5742 10.0874H12.5685ZM13.8723 6.23229C13.8723 5.6647 14.3275 5.1533 14.9513 5.1533C15.5751 5.1533 16.0303 5.6085 16.0303 6.23229C16.0303 6.85608 15.5751 7.31128 14.9513 7.31128C14.3275 7.31128 13.8723 6.79988 13.8723 6.23229ZM3.7287 31.4481C4.24009 30.5995 5.14487 30.0881 6.16766 30.0881C7.12864 30.0881 8.03904 30.5995 8.54481 31.3919C7.07244 32.2966 5.20107 32.2966 3.7287 31.4481ZM6.11147 28.6719C5.54387 28.6719 5.03248 28.2167 5.03248 27.5929C5.03248 27.0253 5.48768 26.5139 6.11147 26.5139C6.73526 26.5139 7.19045 26.9691 7.19045 27.5929C7.13426 28.1605 6.67906 28.6719 6.11147 28.6719ZM9.6238 30.4309C9.2248 29.8633 8.66283 29.4137 8.03903 29.0709C8.37622 28.6719 8.55043 28.1099 8.55043 27.5423C8.55043 26.1824 7.41524 25.0472 6.05527 25.0472C4.69529 25.0472 3.5601 26.1824 3.5601 27.5423C3.5601 28.1099 3.78489 28.6775 4.1277 29.1271C3.50391 29.4699 2.99251 29.9195 2.59913 30.4871C0.727756 28.4471 1.07056 25.1034 3.44771 23.4624C4.69529 22.6138 6.39245 22.4452 7.80863 23.0072C7.97722 23.0634 8.20763 23.1758 8.37622 23.2882C8.37622 23.2882 8.60101 23.4006 8.88762 23.6254C11.0962 25.3844 11.3266 28.4415 9.6238 30.4253V30.4309ZM18.2894 30.0319C16.0809 30.6557 13.7543 30.6557 11.5458 30.0319C12.2819 28.5033 12.3381 26.6881 11.7143 25.1034C11.6019 24.8224 11.3772 24.3672 11.1468 24.0244C10.7477 23.4006 10.0116 22.6644 9.39339 22.2654C7.69061 21.1302 5.36966 20.9054 3.44209 21.8664C1.91352 16.5389 4.29067 10.818 9.16298 8.15424C9.55636 9.17141 10.2364 10.0818 11.1468 10.818C11.7143 11.2732 12.5629 11.6666 13.3553 11.897C13.5801 11.9532 13.8667 12.0094 14.0353 12.0094C14.3163 12.0656 14.9401 12.0656 15.1705 12.0656C16.4743 12.0094 17.7218 11.498 18.6828 10.7618C19.5314 10.0818 20.2114 9.17703 20.5542 8.15424C25.4265 10.818 27.8093 16.4827 26.3313 21.8102C25.4827 21.473 24.6341 21.2426 23.7237 21.2988C22.1952 21.2988 20.6048 21.8664 19.419 23.0578C17.6038 24.9292 17.2104 27.7615 18.2838 30.0263L18.2894 30.0319ZM21.577 31.4481C22.0884 30.5995 22.9932 30.0881 24.0103 30.0881C24.9713 30.0881 25.8817 30.5995 26.3875 31.3919C24.9151 32.2966 23.0437 32.2966 21.5714 31.4481H21.577ZM23.9036 28.6719C23.336 28.6719 22.8302 28.2167 22.8302 27.5929C22.8302 27.0253 23.2854 26.5139 23.9036 26.5139C24.4711 26.5139 24.9825 26.9691 24.9825 27.5929C24.9825 28.1605 24.5273 28.6719 23.9036 28.6719ZM27.4721 30.4309C27.0731 29.8633 26.5111 29.4137 25.8873 29.0709C26.2245 28.6719 26.3987 28.1099 26.3987 27.5423C26.3987 26.1824 25.2635 25.0472 23.9036 25.0472C22.5436 25.0472 21.4084 26.1824 21.4084 27.5423C21.4084 28.1099 21.6332 28.6775 21.976 29.1271C21.3522 29.4699 20.8408 29.9195 20.4474 30.4871C19.655 29.6385 19.256 28.5033 19.256 27.3681C19.256 24.873 21.296 22.7206 23.8474 22.7206C24.7521 22.7206 25.6063 23.0016 26.3987 23.513C26.5111 23.5692 26.5673 23.6254 26.6797 23.6254C28.8883 25.2663 29.2311 28.3853 27.4721 30.4253V30.4309Z" fill="#CCAB80"/>
<path d="M14.8333 24.2547C14.4343 24.2547 14.1533 23.9175 14.1533 23.5185C14.1533 23.1195 14.4905 22.8385 14.8895 22.8385C15.2885 22.8385 15.5695 23.1757 15.5695 23.5747C15.5695 23.9737 15.2267 24.2547 14.8333 24.2547ZM16.1371 23.5185C16.0809 23.4061 16.0809 23.3499 16.0809 23.2375C16.0809 22.9565 16.2495 22.6699 16.5361 22.5575C16.8733 22.3889 17.3285 22.6137 17.4409 22.9565C17.4971 23.0127 17.4971 23.1251 17.4971 23.2375C17.4971 23.5185 17.3285 23.8051 17.0419 23.9175C16.9857 23.9737 16.8733 23.9737 16.7609 23.9737C16.5361 23.9737 16.2495 23.8051 16.1371 23.5185ZM12.6248 23.7433C12.3438 23.6309 12.2258 23.3443 12.2258 23.1195C12.2258 23.0071 12.2258 22.9509 12.282 22.8385C12.4506 22.4957 12.8496 22.3271 13.2429 22.4957C13.5239 22.6081 13.6419 22.8947 13.6419 23.1195C13.6419 23.2319 13.6419 23.2881 13.5857 23.4005C13.4733 23.6815 13.1924 23.7995 12.962 23.7995C12.8496 23.8557 12.7372 23.7995 12.6191 23.7433H12.6248ZM17.9523 22.6643C17.8399 22.5519 17.7275 22.3215 17.7275 22.1529C17.7275 21.9843 17.7837 21.7539 17.9523 21.6415C18.2333 21.3605 18.6885 21.3605 18.9694 21.6415C19.0818 21.7539 19.1942 21.9787 19.1942 22.1529C19.1942 22.3215 19.138 22.4901 18.9694 22.6643C18.8571 22.7767 18.6323 22.8891 18.4581 22.8891C18.2895 22.8891 18.0647 22.8329 17.9467 22.6643H17.9523ZM10.8152 22.4395C10.7028 22.3271 10.6466 22.1585 10.6466 21.9843C10.6466 21.8157 10.7028 21.5853 10.8714 21.4729C11.1524 21.1919 11.6076 21.2481 11.8886 21.5291C12.001 21.6415 12.0572 21.8101 12.0572 21.9843C12.0572 22.1529 12.001 22.3833 11.8324 22.4957C11.72 22.6081 11.5514 22.6643 11.3772 22.6643C11.1524 22.6643 10.9782 22.6081 10.8096 22.4395H10.8152ZM19.3123 21.1919C19.0313 21.0795 18.8571 20.7929 18.8571 20.5119C18.8571 20.3995 18.8571 20.3433 18.9133 20.2309C19.0818 19.8938 19.4808 19.7195 19.818 19.8319C20.099 19.9443 20.2732 20.2309 20.2732 20.5119C20.2732 20.6243 20.2732 20.6805 20.217 20.7929C20.1046 21.0739 19.818 21.2481 19.537 21.2481C19.4808 21.2481 19.3685 21.2481 19.3123 21.1919ZM9.68002 20.5119C9.68002 20.4557 9.62383 20.3433 9.62383 20.2871C9.62383 20.0062 9.79242 19.7195 10.079 19.6072C10.478 19.4948 10.8714 19.6634 10.9838 20.0624C10.9838 20.1186 11.04 20.2309 11.04 20.2871C11.04 20.5681 10.8714 20.8547 10.5848 20.9671C10.5286 20.9671 10.4162 21.0233 10.36 21.0233C10.0172 20.9671 9.79242 20.7985 9.68002 20.5119ZM19.2561 18.6462C19.2561 18.3034 19.4808 18.0224 19.8237 17.9662C19.4808 17.9662 19.1999 17.7976 19.0875 17.4548C19.0875 17.3986 19.0313 17.3424 19.0313 17.23C19.0313 16.949 19.2561 16.6624 19.5427 16.55C19.936 16.4376 20.335 16.6624 20.4474 17.0052C20.4474 17.0614 20.5036 17.1176 20.4474 17.23C20.4474 17.511 20.2227 17.7976 19.936 17.91C20.335 17.91 20.6722 18.2472 20.6722 18.6462C20.6722 19.0452 20.3294 19.3824 19.936 19.3824C19.5989 19.3262 19.2561 18.9834 19.2561 18.6462ZM10.0172 19.0396C9.61821 19.0396 9.33722 18.6968 9.33722 18.3034V18.2472C9.33722 17.8482 9.68002 17.5672 10.0734 17.5672C10.4724 17.5672 10.7534 17.9044 10.7534 18.3034V18.3596C10.7534 18.7586 10.4162 19.0396 10.0172 19.0396ZM10.2476 17.0558C10.0228 16.9434 9.84862 16.6568 9.84862 16.432C9.84862 16.3196 9.84862 16.2072 9.90481 16.0892C10.0734 15.752 10.5286 15.5778 10.8658 15.752C11.0906 15.8644 11.2648 16.151 11.2648 16.3758C11.2648 16.4882 11.2648 16.6006 11.2086 16.713C11.0962 16.9378 10.8096 17.112 10.5848 17.112C10.4724 17.112 10.36 17.112 10.242 17.0558H10.2476ZM18.2895 15.9262C18.1771 15.8138 18.1209 15.6452 18.1209 15.471C18.1209 15.2462 18.2333 15.072 18.4019 14.9034C18.6828 14.6786 19.138 14.6786 19.419 15.0158C19.5314 15.1282 19.5876 15.2968 19.5876 15.471C19.5876 15.6958 19.4752 15.87 19.3066 16.0386C19.1942 16.151 19.0256 16.2072 18.8514 16.2072C18.6266 16.2072 18.4524 16.0948 18.2838 15.9262H18.2895ZM11.2086 15.3586C11.0962 15.2462 11.04 15.0776 11.04 14.9034C11.04 14.6786 11.0962 14.5044 11.2648 14.392C11.5458 14.1111 12.001 14.1672 12.282 14.4482C12.3944 14.5606 12.4506 14.7292 12.4506 14.9034C12.4506 15.1282 12.3944 15.3024 12.2258 15.4148C12.1134 15.5272 11.9448 15.5834 11.7706 15.5834C11.5458 15.5834 11.3716 15.471 11.203 15.3586H11.2086ZM16.9913 14.8472C16.7665 14.7348 16.5923 14.4482 16.5923 14.2234C16.5923 14.1111 16.5923 13.9987 16.6485 13.8863C16.8171 13.5491 17.2723 13.4311 17.6095 13.6053C17.8343 13.7177 18.0085 14.0043 18.0085 14.2291C18.0085 14.3415 18.0085 14.4539 17.9523 14.5662C17.8399 14.791 17.5533 14.9653 17.3285 14.9653C17.2161 14.9653 17.1037 14.9091 16.9913 14.8529V14.8472ZM12.7934 14.1111C12.7934 14.0549 12.7372 13.9425 12.7372 13.8863C12.7372 13.6053 12.9058 13.3187 13.2486 13.2063C13.6476 13.0939 14.0409 13.2625 14.1533 13.6615C14.1533 13.7177 14.2095 13.8301 14.2095 13.8863C14.2095 14.1672 14.0409 14.4539 13.6981 14.5662C13.6419 14.5662 13.5295 14.6224 13.4733 14.6224C13.1924 14.6224 12.9058 14.3977 12.7934 14.1111ZM15.3447 14.392C14.9457 14.3358 14.7209 14.0549 14.7209 13.712V13.6559C14.7771 13.2568 15.1199 12.9759 15.5133 13.0321C15.9123 13.0883 16.1371 13.3692 16.1371 13.712V13.7682C16.0809 14.1672 15.7999 14.392 15.4571 14.392H15.3447Z" fill="#CCAB80"/>
</svg>
