<svg width="30" height="28" viewBox="0 0 30 28" fill="none" xmlns="http://www.w3.org/2000/svg">
<path d="M25.6154 8.74963H22.4765V26.8416H25.6154V8.74963Z" fill="white"/>
<path d="M14.4043 13.8362H11.2654V26.8416H14.4043V13.8362Z" fill="white"/>
<path d="M20.0346 16.728H16.8957V26.8467H20.0346V16.728Z" fill="white"/>
<path d="M8.81856 16.728H5.67966V26.8467H8.81856V16.728Z" fill="white"/>
<path d="M8.76915 27.4399C8.41819 27.4399 8.1216 27.1433 8.1216 26.7923V17.3212H6.2778V26.8417C6.2778 27.1927 5.97627 27.4893 5.63025 27.4893C5.28423 27.4893 4.9827 27.1878 4.9827 26.8417V16.7231C4.9827 16.3722 5.28423 16.0756 5.63025 16.0756H8.76915C9.12012 16.0756 9.41671 16.3771 9.41671 16.7231V26.8417C9.41671 27.1433 9.11517 27.4399 8.76915 27.4399Z" fill="#CCAB80"/>
<path d="M14.4044 27.4398C14.0534 27.4398 13.7568 27.1432 13.7568 26.7923V14.4344H11.8636V26.7923C11.8636 27.1432 11.5621 27.4398 11.216 27.4398C10.87 27.4398 10.5685 27.1432 10.5685 26.7923V13.8363C10.5685 13.4853 10.87 13.2382 11.216 13.2382H14.3549C14.7059 13.2382 15.0025 13.5347 15.0025 13.8363V26.8417C15.0025 27.1432 14.7059 27.4398 14.4044 27.4398Z" fill="#CCAB80"/>
<path d="M19.9852 27.4399C19.6342 27.4399 19.3376 27.1433 19.3376 26.7923V17.3212H17.4444V26.8417C17.4444 27.1927 17.1428 27.4893 16.7968 27.4893C16.4508 27.4893 16.2481 27.1383 16.2481 26.8417V16.7231C16.2481 16.3722 16.5447 16.0756 16.8957 16.0756H20.0346C20.3856 16.0756 20.6821 16.3771 20.6821 16.7231V26.8417C20.6327 27.1433 20.3361 27.4399 19.9852 27.4399Z" fill="#CCAB80"/>
<path d="M25.6154 27.4399C25.2645 27.4399 24.9679 27.1433 24.9679 26.7924V9.34797H23.0746V26.7924C23.0746 27.1433 22.7781 27.4399 22.4271 27.4399C22.0761 27.4399 21.7795 27.1433 21.7795 26.7924V8.74985C21.7795 8.39888 22.0761 8.10229 22.4271 8.10229H25.566C25.917 8.10229 26.2135 8.39888 26.2135 8.74985V26.8418C26.2135 27.1433 25.917 27.4399 25.6154 27.4399Z" fill="#CCAB80"/>
<path d="M29.3524 27.4397H2.54077C2.18981 27.4397 1.89322 27.1432 1.89322 26.7922V1.87375C1.89322 1.52279 2.19475 1.2262 2.54077 1.2262C2.88679 1.2262 3.18833 1.52773 3.18833 1.87375V26.1941H29.3524C29.7034 26.1941 30 26.4956 30 26.8416C29.9506 27.1432 29.649 27.4397 29.3524 27.4397Z" fill="#CCAB80"/>
<path d="M2.54078 5.01264H0.647554C0.29659 5.01264 0 4.71605 0 4.36508C0 4.01412 0.301533 3.71753 0.647554 3.71753H2.54078C2.89175 3.71753 3.18833 4.01412 3.18833 4.36508C3.18833 4.71605 2.8868 5.01264 2.54078 5.01264Z" fill="#CCAB80"/>
<path d="M2.54078 6.90595H0.647554C0.29659 6.90595 0 6.60936 0 6.25839C0 5.90743 0.301533 5.61084 0.647554 5.61084H2.54078C2.89175 5.61084 3.18833 5.90743 3.18833 6.25839C3.18833 6.60936 2.8868 6.90595 2.54078 6.90595Z" fill="#CCAB80"/>
<path d="M2.54078 8.7497H0.647554C0.29659 8.7497 0 8.45311 0 8.10214C0 7.75118 0.301533 7.45459 0.647554 7.45459H2.54078C2.89175 7.45459 3.18833 7.75118 3.18833 8.10214C3.18833 8.45311 2.8868 8.7497 2.54078 8.7497Z" fill="#CCAB80"/>
<path d="M2.54078 10.648H0.647554C0.29659 10.648 0 10.3514 0 10.0005C0 9.64949 0.301533 9.35291 0.647554 9.35291H2.54078C2.89175 9.35291 3.18833 9.64949 3.18833 10.0005C3.18833 10.3514 2.8868 10.648 2.54078 10.648Z" fill="#CCAB80"/>
<path d="M2.54078 12.4916H0.647554C0.29659 12.4916 0 12.1901 0 11.8441C0 11.4981 0.301533 11.1965 0.647554 11.1965H2.54078C2.89175 11.1965 3.18833 11.4931 3.18833 11.8441C3.18833 12.1951 2.8868 12.4916 2.54078 12.4916Z" fill="#CCAB80"/>
<path d="M2.54078 14.385H0.647554C0.29659 14.385 0 14.0884 0 13.7374C0 13.3864 0.301533 13.0898 0.647554 13.0898H2.54078C2.89175 13.0898 3.18833 13.3864 3.18833 13.7374C3.18833 14.0884 2.8868 14.385 2.54078 14.385Z" fill="#CCAB80"/>
<path d="M2.54078 16.2287H0.647554C0.29659 16.2287 0 15.9321 0 15.5811C0 15.2302 0.301533 14.9336 0.647554 14.9336H2.54078C2.89175 14.9336 3.18833 15.2351 3.18833 15.5811C3.18833 15.9272 2.8868 16.2287 2.54078 16.2287Z" fill="#CCAB80"/>
<path d="M2.54078 18.122H0.647554C0.29659 18.122 0 17.8205 0 17.4745C0 17.1284 0.301533 16.8269 0.647554 16.8269H2.54078C2.89175 16.8269 3.18833 17.1284 3.18833 17.4745C3.18833 17.8205 2.8868 18.122 2.54078 18.122Z" fill="#CCAB80"/>
<path d="M2.54078 19.9658H0.647554C0.29659 19.9658 0 19.6692 0 19.3182C0 18.9672 0.301533 18.6707 0.647554 18.6707H2.54078C2.89175 18.6707 3.18833 18.9722 3.18833 19.3182C3.18833 19.6642 2.8868 19.9658 2.54078 19.9658Z" fill="#CCAB80"/>
<path d="M2.54078 21.8589H0.647554C0.29659 21.8589 0 21.5624 0 21.2114C0 20.8604 0.301533 20.5638 0.647554 20.5638H2.54078C2.89175 20.5638 3.18833 20.8604 3.18833 21.2114C3.18833 21.5624 2.8868 21.8589 2.54078 21.8589Z" fill="#CCAB80"/>
<path d="M2.54078 23.7028H0.647554C0.29659 23.7028 0 23.4062 0 23.0553C0 22.7043 0.301533 22.4077 0.647554 22.4077H2.54078C2.89175 22.4077 3.18833 22.7043 3.18833 23.0553C3.18833 23.4062 2.8868 23.7028 2.54078 23.7028Z" fill="#CCAB80"/>
<path d="M5.6797 13.1392H3.18835C2.83739 13.1392 2.5408 12.8426 2.5408 12.4917C2.5408 12.1407 2.83739 11.8441 3.18835 11.8441H5.27931L8.86804 4.11796C8.9669 3.92023 9.16957 3.76699 9.3673 3.76699C9.56502 3.76699 9.81712 3.81642 9.91599 4.01415L13.7519 8.94742L16.3915 5.25982C16.4904 5.11153 16.6387 5.01267 16.8413 5.01267C17.044 5.01267 17.1923 5.0621 17.3406 5.21039L18.7346 6.60436L23.0697 1.32013H22.521C22.1701 1.32013 21.8735 1.0186 21.8735 0.672577C21.8735 0.326557 22.175 0.0250244 22.521 0.0250244H24.4143C24.6614 0.0250244 24.8641 0.173319 24.9629 0.375988C25.0618 0.573714 25.0124 0.875247 24.8641 1.02354L19.2338 7.89947C19.135 8.04776 18.9372 8.09719 18.784 8.14663C18.5863 8.14663 18.433 8.09719 18.3342 7.9489L16.9896 6.60436L14.2462 10.3414C14.1473 10.4897 13.9496 10.5885 13.7469 10.5885C13.5443 10.5885 13.3465 10.4897 13.2477 10.3414L9.51065 5.55641L6.22345 12.7339C6.12459 12.981 5.87249 13.1343 5.67476 13.1343L5.6797 13.1392Z" fill="#CCAB80"/>
<path d="M24.9679 3.16893C24.7207 3.16893 24.4686 3.02063 24.3697 2.7191L23.7222 0.825873C23.6233 0.474909 23.7716 0.128888 24.1226 0.0300248C24.4736 -0.0688382 24.8196 0.0794561 24.9184 0.43042L25.566 2.32365C25.6649 2.67461 25.5166 3.02063 25.1656 3.1195C25.1162 3.1195 25.0173 3.16893 24.9679 3.16893Z" fill="#CCAB80"/>
</svg>
