<svg width="30" height="30" viewBox="0 0 30 30" fill="none" xmlns="http://www.w3.org/2000/svg">
<path d="M21.2308 8.12148L16.2481 9.96527V5.63013L21.2308 8.12148Z" fill="white"/>
<path d="M23.6233 19.7825L27.4592 28.6555H6.27779H2.54077L4.58724 19.3871L6.27779 11.8586H14.4043L15.3979 14.4489L15.65 14.35H16.2481H21.2308L23.6233 19.7825Z" fill="white"/>
<path d="M2.54078 29.3031H2.39249C2.04152 29.2536 1.8438 28.9027 1.94266 28.5566L3.98418 19.2388L5.67968 11.7153C5.72911 11.4138 5.97627 11.2161 6.2778 11.2161H14.3994C14.6466 11.2161 14.8987 11.3644 14.9975 11.6165L19.3821 22.8325C19.5304 23.1291 19.3327 23.5295 19.0361 23.6283C18.7346 23.7766 18.3391 23.5789 18.2402 23.2774L14.0534 12.4617H6.77706L5.2348 19.4909L3.19328 28.8088C3.09441 29.1053 2.84231 29.308 2.54572 29.308L2.54078 29.3031Z" fill="#CCAB80"/>
<path d="M27.4592 29.3031C27.2121 29.3031 27.0094 29.1548 26.9105 28.9027L20.8304 14.9482H15.6451C15.2941 14.9482 14.9975 14.6467 14.9975 14.3006C14.9975 13.9546 15.2941 13.6531 15.6451 13.6531H21.2259C21.4731 13.6531 21.6757 13.8014 21.7746 14.0535L24.1671 19.486L28.003 28.359C28.1513 28.6555 28.003 29.0559 27.7064 29.1548C27.6075 29.2537 27.5581 29.3031 27.4592 29.3031Z" fill="#CCAB80"/>
<path d="M29.3525 29.3029H0.696991C0.346027 29.3029 0.0494385 29.0063 0.0494385 28.6554C0.0494385 28.3044 0.350971 28.0078 0.696991 28.0078H29.3525C29.7034 28.0078 30 28.3044 30 28.6554C29.9506 29.0063 29.649 29.3029 29.3525 29.3029Z" fill="#CCAB80"/>
<path d="M16.2481 14.948C15.8972 14.948 15.6006 14.6465 15.6006 14.3004V9.91586C15.6006 9.5649 15.8972 9.26831 16.2481 9.26831C16.5991 9.26831 16.8957 9.5649 16.8957 9.91586V14.3004C16.8957 14.7008 16.5991 14.948 16.2481 14.948Z" fill="#CCAB80"/>
<path d="M16.2481 6.22843C15.8972 6.22843 15.6006 5.93184 15.6006 5.63031V4.98276C15.6006 4.63179 15.8972 4.33521 16.2481 4.33521C16.5991 4.33521 16.8957 4.63179 16.8957 4.98276V5.63031C16.8957 5.98127 16.5991 6.22843 16.2481 6.22843Z" fill="#CCAB80"/>
<path d="M16.2481 10.6128C16.0999 10.6128 16.001 10.5634 15.8972 10.5139C15.7489 10.4151 15.65 10.2173 15.65 10.0147V5.6301C15.65 5.43238 15.7489 5.22971 15.9466 5.08141C16.1443 4.98255 16.347 4.98255 16.5447 5.03198L21.5274 7.52333C21.7252 7.62219 21.8784 7.87429 21.8784 8.12145C21.8784 8.36861 21.7301 8.57128 21.478 8.67014L16.4953 10.5634C16.3964 10.5634 16.2976 10.6128 16.2481 10.6128ZM16.8957 6.62368V9.06559L19.6886 8.01765L16.8957 6.62368Z" fill="#CCAB80"/>
<path d="M6.27781 29.3031H6.12952C5.77855 29.2537 5.58083 28.9027 5.67969 28.5567L8.17104 17.3456C8.22047 16.9946 8.57143 16.7969 8.91745 16.8958C9.26842 16.9452 9.46614 17.2962 9.36728 17.6422L6.87593 28.8533C6.8265 29.1004 6.5744 29.3031 6.27781 29.3031Z" fill="#CCAB80"/>
<path d="M3.88532 19.6342C3.83589 19.5353 3.78645 19.4365 3.78645 19.2832C3.78645 19.0855 3.88532 18.8828 4.08304 18.7346C4.37963 18.5368 4.78003 18.6357 4.92832 18.9323C4.97775 19.0311 5.02718 19.13 5.02718 19.2832C5.02718 19.481 4.92832 19.6836 4.72565 19.8319C4.62679 19.8814 4.52793 19.9308 4.37469 19.9308C4.17696 19.9308 3.97429 19.8319 3.87543 19.6293L3.88532 19.6342ZM24.3203 18.9372C24.1226 18.8384 24.0237 18.5863 24.0237 18.3885C24.0237 18.2897 24.0732 18.1908 24.1226 18.0919C24.2709 17.7904 24.6713 17.6915 24.9679 17.8448C25.1656 17.9436 25.2694 18.1957 25.2694 18.3935C25.2694 18.4923 25.22 18.5912 25.1705 18.695C25.0717 18.8927 24.8196 18.9916 24.6218 18.9916C24.523 18.9916 24.4241 18.9916 24.3203 18.9422V18.9372ZM3.04004 18.0376C2.99061 17.9387 2.99061 17.8893 2.99061 17.7904C2.99061 17.5433 3.1389 17.2912 3.391 17.1923C3.68759 17.044 4.08799 17.1923 4.18685 17.5433C4.23628 17.6421 4.23628 17.6915 4.23628 17.7904C4.23628 18.0376 4.08799 18.2897 3.83589 18.3391C3.78645 18.3885 3.68759 18.3885 3.58873 18.3885C3.34157 18.3885 3.1389 18.2402 3.04004 18.0376ZM25.1656 17.39C24.9184 17.2912 24.7652 17.0391 24.7652 16.7919C24.7652 16.693 24.7652 16.6436 24.8146 16.5447C24.9629 16.2481 25.3139 16.0455 25.6105 16.1938C25.8576 16.2926 26.0109 16.5447 26.0109 16.7919C26.0109 16.8908 26.0109 16.9402 25.9614 17.0391C25.8626 17.2862 25.6105 17.4394 25.3633 17.4394C25.3139 17.4394 25.215 17.4394 25.1656 17.39ZM2.44192 16.2926V16.1443C2.44192 15.8478 2.63964 15.5957 2.89174 15.5462C3.24271 15.4474 3.58873 15.6451 3.63816 15.996V16.1443C3.63816 16.3915 3.44043 16.693 3.18833 16.7425H3.04004C2.79288 16.7425 2.54078 16.5447 2.44192 16.2926ZM25.7637 15.7439C25.4671 15.6945 25.2645 15.4474 25.2645 15.1458V14.9975C25.3633 14.6466 25.6649 14.4488 26.0109 14.5477C26.3124 14.5971 26.5101 14.8443 26.5101 15.1458V15.2941C26.4607 15.5956 26.2086 15.7934 25.912 15.7934C25.8626 15.7934 25.8131 15.7439 25.7637 15.7439ZM2.09095 14.4983V14.3994C2.09095 14.0979 2.28868 13.8013 2.63964 13.8013C2.99061 13.7519 3.28719 13.999 3.33663 14.35V14.4488C3.33663 14.7504 3.08947 14.9975 2.78794 15.047H2.68907C2.39248 15.047 2.09095 14.7998 2.09095 14.4983ZM26.1147 14.0534C25.7637 14.004 25.5166 13.7568 25.566 13.4058V13.3564C25.6154 13.0054 25.917 12.7583 26.2135 12.8077C26.5645 12.8571 26.8117 13.1092 26.8117 13.4553V13.5047C26.7622 13.8557 26.5151 14.1028 26.2135 14.1028C26.1806 14.0699 26.1476 14.0534 26.1147 14.0534ZM1.94266 12.7088C1.94266 12.3579 2.18982 12.0613 2.54078 12.0613C2.89174 12.0613 3.18833 12.3085 3.18833 12.6594C3.18833 13.0104 2.94117 13.2575 2.59021 13.307C2.18981 13.307 1.94266 13.0104 1.94266 12.7088ZM25.566 11.7103C25.566 11.3594 25.8131 11.0628 26.1641 11.0628C26.5151 11.0628 26.8117 11.3099 26.8117 11.6609V11.7103C26.8117 12.0613 26.5645 12.3085 26.2135 12.3085H26.1641C25.8675 12.3085 25.566 12.0613 25.566 11.7103ZM2.54078 11.562C2.23925 11.5126 1.99209 11.2654 1.99209 10.9639V10.8651C2.04152 10.5141 2.34305 10.2669 2.68907 10.3164C2.99061 10.3658 3.23776 10.613 3.23776 10.9145V11.0133C3.18833 11.3149 2.93623 11.562 2.63964 11.562H2.54078ZM25.3188 10.1137V9.9654C25.3188 9.66881 25.5166 9.41671 25.8181 9.36728C26.1691 9.31785 26.4656 9.51557 26.5645 9.86653V10.0148C26.5645 10.3114 26.3668 10.5635 26.0652 10.613H25.917C25.6698 10.5635 25.4177 10.3658 25.3188 10.1137ZM2.84231 9.8171C2.59515 9.71824 2.39248 9.46614 2.39248 9.21898V9.07069C2.49135 8.71972 2.84231 8.57143 3.1389 8.62086C3.38606 8.71972 3.58873 8.97182 3.58873 9.21898V9.36728C3.48986 9.66881 3.23776 9.8171 2.99061 9.8171C2.94117 9.86654 2.89174 9.86654 2.84231 9.8171ZM24.869 8.522C24.8196 8.47256 24.8196 8.3737 24.8196 8.32427C24.8196 8.07711 24.9679 7.82501 25.22 7.72615C25.5215 7.62729 25.917 7.77558 26.0158 8.07711C26.0652 8.12654 26.0652 8.22541 26.0652 8.27484C26.0652 8.522 25.917 8.7741 25.6649 8.87296C25.6154 8.92239 25.5166 8.92239 25.4671 8.92239C25.22 8.92239 24.9679 8.7741 24.869 8.522ZM3.33663 8.17103C3.08947 8.07217 2.98566 7.82007 2.98566 7.62234C2.98566 7.52348 2.98566 7.47405 3.03509 7.37518C3.18339 7.07365 3.53435 6.92536 3.88037 7.07365C4.12753 7.17252 4.23134 7.42462 4.23134 7.62234C4.23134 7.72121 4.23134 7.77064 4.18191 7.8695C4.08304 8.11666 3.83094 8.22047 3.63322 8.22047C3.48492 8.22047 3.43549 8.22046 3.33168 8.17103H3.33663ZM24.172 7.02422C24.1226 6.92536 24.0732 6.8265 24.0732 6.72763C24.0732 6.52991 24.172 6.27781 24.3697 6.17894C24.6713 6.03065 25.0667 6.12951 25.215 6.4261C25.2645 6.52496 25.3139 6.62383 25.3139 6.72763C25.3139 6.92536 25.215 7.17746 25.0124 7.27632C24.9135 7.32575 24.8146 7.37518 24.7158 7.37518C24.518 7.32575 24.2659 7.22689 24.1671 7.02422H24.172ZM4.08799 6.57439C3.89026 6.47553 3.7914 6.27286 3.7914 6.0257C3.7914 5.92684 3.84083 5.77855 3.89026 5.67474C4.08799 5.37321 4.43895 5.32378 4.73554 5.47701C4.93326 5.57588 5.03707 5.7736 5.03707 6.0257C5.03707 6.12457 4.98764 6.27286 4.93821 6.37667C4.83934 6.57439 4.64162 6.67326 4.38952 6.67326C4.29066 6.67326 4.19179 6.67326 4.09293 6.57439H4.08799ZM23.2724 5.63025C23.1735 5.53139 23.1241 5.38309 23.1241 5.22986C23.1241 5.03213 23.2229 4.87889 23.3712 4.7306C23.6184 4.53287 24.0188 4.5823 24.2659 4.82946C24.3648 4.92832 24.4142 5.07662 24.4142 5.22986C24.4142 5.42758 24.3154 5.58082 24.1671 5.72912C24.0682 5.82798 23.9199 5.87741 23.7667 5.87741C23.569 5.87741 23.3663 5.77855 23.2674 5.63025H23.2724ZM5.08156 5.13099C4.93327 5.03213 4.88383 4.82946 4.88383 4.68117C4.88383 4.53287 4.93327 4.37963 5.03213 4.28077C5.27929 4.03361 5.63025 3.97924 5.92684 4.23134C6.07513 4.3302 6.12457 4.52793 6.12457 4.68117C6.12457 4.82946 6.07513 4.97776 5.97627 5.08156C5.87741 5.22986 5.67968 5.27929 5.52644 5.27929C5.32872 5.27929 5.17548 5.22986 5.07662 5.13099H5.08156ZM22.1799 4.38458C22.0316 4.28571 21.9822 4.08799 21.9822 3.93475C21.9822 3.78646 22.0316 3.63816 22.1799 3.48492C22.4271 3.23777 22.8275 3.23777 23.0746 3.48492C23.2229 3.58379 23.2724 3.78151 23.2724 3.93475C23.2724 4.08304 23.2229 4.23628 23.0746 4.38458C22.9758 4.53287 22.7781 4.5823 22.6248 4.5823C22.4271 4.5823 22.2738 4.53287 22.175 4.38458H22.1799ZM6.22837 3.83589C6.12951 3.73702 6.08008 3.58873 6.08008 3.43549C6.08008 3.23777 6.12951 3.08453 6.2778 2.93623C6.52496 2.73851 6.92536 2.73851 7.17251 2.98566C7.27138 3.08453 7.32081 3.23282 7.32081 3.38606C7.32081 3.58379 7.27138 3.73702 7.12308 3.88532C7.02422 3.98418 6.87592 4.03361 6.72269 4.03361C6.52496 4.08305 6.37172 3.98418 6.22343 3.83589H6.22837ZM20.8799 3.33663C20.7316 3.23777 20.6327 3.04004 20.6327 2.83737C20.6327 2.68908 20.6822 2.59021 20.7316 2.48641C20.9293 2.18982 21.3297 2.13544 21.5769 2.33811C21.7252 2.43697 21.824 2.63964 21.824 2.83737C21.824 2.98566 21.7746 3.08453 21.7252 3.18833C21.6263 3.33663 21.4236 3.43549 21.2259 3.43549C21.127 3.48492 21.0282 3.43549 20.8749 3.33663H20.8799ZM7.57291 2.73851C7.52348 2.63964 7.47405 2.54078 7.47405 2.38754C7.47405 2.18982 7.57291 1.98715 7.77558 1.83885C8.07217 1.64113 8.47256 1.73999 8.62086 2.03658C8.67029 2.13544 8.71972 2.23431 8.71972 2.38754C8.71972 2.58527 8.62086 2.78794 8.42313 2.93623C8.32427 2.98566 8.22541 3.0351 8.07217 3.0351C7.92387 3.0351 7.72615 2.93623 7.57291 2.73356V2.73851ZM19.4859 2.49135C19.2882 2.39249 19.1349 2.14039 19.1349 1.94266C19.1349 1.8438 19.1349 1.74493 19.1844 1.64607C19.3327 1.34948 19.7331 1.19624 20.0297 1.39891C20.2274 1.49778 20.3806 1.74988 20.3806 1.9476C20.3806 2.04646 20.3806 2.14533 20.3312 2.24913C20.2323 2.44686 19.9802 2.6001 19.7825 2.6001C19.6836 2.55067 19.5848 2.55067 19.4859 2.50124V2.49135ZM9.07068 1.8438C9.02125 1.74493 9.02125 1.6955 9.02125 1.59664C9.02125 1.34948 9.16955 1.14681 9.42165 1.04795C9.71824 0.899653 10.1186 1.04795 10.2175 1.34948C10.2669 1.44834 10.2669 1.54721 10.2669 1.59664C10.2669 1.8438 10.1186 2.04647 9.86653 2.14533C9.76767 2.19476 9.71824 2.19476 9.61937 2.19476C9.42165 2.24419 9.16955 2.0959 9.07068 1.8438ZM17.9931 1.8438C17.7459 1.74493 17.5927 1.49283 17.5927 1.24567C17.5927 1.19624 17.5927 1.09738 17.6421 1.04795C17.741 0.696984 18.0919 0.54869 18.438 0.647553C18.6851 0.746416 18.8384 0.998517 18.8384 1.24567C18.8384 1.29511 18.8384 1.39397 18.7889 1.4434C18.6901 1.69056 18.438 1.89323 18.1908 1.89323C18.0919 1.89323 18.0425 1.8438 17.9931 1.8438ZM10.7168 1.19624V1.04795C10.7168 0.751359 10.9145 0.499258 11.1666 0.449827C11.5175 0.350964 11.8636 0.54869 11.913 0.899654V1.04795C11.913 1.34948 11.7153 1.59664 11.4632 1.64607H11.3149C11.0183 1.64607 10.7662 1.49778 10.7168 1.19624ZM16.3964 1.4434C16.0949 1.39397 15.8972 1.14681 15.8972 0.845279V0.746416C15.9466 0.395452 16.2976 0.197726 16.6436 0.247158C16.9402 0.296589 17.1429 0.54869 17.1429 0.845279V0.944142C17.0934 1.24073 16.8463 1.4434 16.5447 1.4434H16.3964ZM12.4073 0.795847V0.746416C12.4073 0.444884 12.6545 0.148294 12.956 0.148294C13.307 0.0988627 13.6036 0.346021 13.653 0.696985V0.746416C13.653 1.04301 13.4058 1.34454 13.1043 1.34454H13.0549C12.7039 1.34454 12.4073 1.09738 12.4073 0.795847ZM14.7504 1.24567C14.3994 1.24567 14.1522 0.949085 14.1522 0.598121C14.1522 0.247157 14.4488 0 14.7998 0C15.1508 0 15.3979 0.296589 15.3979 0.647553C15.3485 0.998517 15.0964 1.24567 14.7504 1.24567Z" fill="#CCAB80"/>
<path d="M5.03213 1.89325H0.647554C0.29659 1.89325 0 1.59666 0 1.2457C0 0.894734 0.301533 0.598145 0.647554 0.598145H5.03213C5.38309 0.598145 5.67968 0.894734 5.67968 1.2457C5.67968 1.59666 5.37815 1.89325 5.03213 1.89325Z" fill="#CCAB80"/>
<path d="M4.434 3.737H2.54077C2.18981 3.737 1.89322 3.44041 1.89322 3.08945C1.89322 2.73848 2.19475 2.44189 2.54077 2.44189H4.434C4.78002 2.44189 5.08155 2.73848 5.08155 3.08945C5.03212 3.48984 4.73059 3.737 4.434 3.737Z" fill="#CCAB80"/>
<path d="M29.3524 4.38446H25.6154C25.2645 4.38446 24.9679 4.08787 24.9679 3.73691C24.9679 3.38594 25.2694 3.08936 25.6154 3.08936H29.3524C29.7034 3.08936 30 3.38594 30 3.73691C29.9506 4.08787 29.649 4.38446 29.3524 4.38446Z" fill="#CCAB80"/>
<path d="M28.1068 6.22834H26.8611C26.5101 6.22834 26.2135 5.93175 26.2135 5.63022C26.2135 5.2842 26.5151 4.98267 26.8611 4.98267H28.1068C28.4577 4.98267 28.7543 5.2842 28.7543 5.63022C28.7049 5.98118 28.4033 6.22834 28.1068 6.22834Z" fill="#CCAB80"/>
</svg>
