<svg width="30" height="27" viewBox="0 0 30 27" fill="none" xmlns="http://www.w3.org/2000/svg">
<path d="M29.3524 26.8611H2.54077C2.18981 26.8611 1.89322 26.5645 1.89322 26.2136V1.29514C1.89322 0.944172 2.18981 0.647583 2.54077 0.647583C2.89174 0.647583 3.18833 0.949115 3.18833 1.29514V25.6155H29.3524C29.7034 25.6155 30 25.912 30 26.263C29.9506 26.5596 29.649 26.8611 29.3524 26.8611Z" fill="#CCAB80"/>
<path d="M2.54078 4.43402H0.647554C0.29659 4.43402 0 4.13249 0 3.78647C0 3.44045 0.29659 3.13892 0.647554 3.13892H2.54078C2.89175 3.13892 3.18833 3.4355 3.18833 3.78647C3.18833 4.13743 2.89175 4.43402 2.54078 4.43402Z" fill="#CCAB80"/>
<path d="M2.54078 6.27777H0.647554C0.29659 6.27777 0 5.97624 0 5.63022C0 5.2842 0.29659 4.98267 0.647554 4.98267H2.54078C2.89175 4.98267 3.18833 5.2842 3.18833 5.63022C3.18833 5.97624 2.89175 6.27777 2.54078 6.27777Z" fill="#CCAB80"/>
<path d="M2.54078 8.17108H0.647554C0.29659 8.17108 0 7.86955 0 7.52353C0 7.17751 0.29659 6.87598 0.647554 6.87598H2.54078C2.89175 6.87598 3.18833 7.17257 3.18833 7.52353C3.18833 7.87449 2.89175 8.17108 2.54078 8.17108Z" fill="#CCAB80"/>
<path d="M2.54078 10.0148H0.647554C0.29659 10.0148 0 9.7133 0 9.36728C0 9.02126 0.29659 8.71973 0.647554 8.71973H2.54078C2.89175 8.71973 3.18833 9.01631 3.18833 9.36728C3.18833 9.76767 2.89175 10.0148 2.54078 10.0148Z" fill="#CCAB80"/>
<path d="M2.54078 11.908H0.647554C0.29659 11.908 0 11.6114 0 11.2605C0 10.9095 0.29659 10.6129 0.647554 10.6129H2.54078C2.89175 10.6129 3.18833 10.9095 3.18833 11.2605C3.18833 11.6114 2.89175 11.908 2.54078 11.908Z" fill="#CCAB80"/>
<path d="M2.54078 13.7518H0.647554C0.29659 13.7518 0 13.4502 0 13.1042C0 12.7582 0.29659 12.4567 0.647554 12.4567H2.54078C2.89175 12.4567 3.18833 12.7533 3.18833 13.1042C3.18833 13.5046 2.89175 13.7518 2.54078 13.7518Z" fill="#CCAB80"/>
<path d="M2.54078 15.6451H0.647554C0.29659 15.6451 0 15.3485 0 14.9975C0 14.6466 0.29659 14.35 0.647554 14.35H2.54078C2.89175 14.35 3.18833 14.6466 3.18833 14.9975C3.18833 15.3485 2.89175 15.6451 2.54078 15.6451Z" fill="#CCAB80"/>
<path d="M2.54078 17.4888H0.647554C0.29659 17.4888 0 17.1922 0 16.8413C0 16.4903 0.29659 16.1937 0.647554 16.1937H2.54078C2.89175 16.1937 3.18833 16.4903 3.18833 16.8413C3.18833 17.1922 2.89175 17.4888 2.54078 17.4888Z" fill="#CCAB80"/>
<path d="M2.54078 19.3821H0.647554C0.29659 19.3821 0 19.0856 0 18.7346C0 18.3836 0.29659 18.087 0.647554 18.087H2.54078C2.89175 18.087 3.18833 18.3836 3.18833 18.7346C3.18833 19.0856 2.89175 19.3821 2.54078 19.3821Z" fill="#CCAB80"/>
<path d="M2.54078 21.2259H0.647554C0.29659 21.2259 0 20.9293 0 20.5783C0 20.2274 0.29659 19.9308 0.647554 19.9308H2.54078C2.89175 19.9308 3.18833 20.2274 3.18833 20.5783C3.18833 20.9787 2.89175 21.2259 2.54078 21.2259Z" fill="#CCAB80"/>
<path d="M2.54078 23.1241H0.647554C0.29659 23.1241 0 22.8275 0 22.4765C0 22.1256 0.29659 21.829 0.647554 21.829H2.54078C2.89175 21.829 3.18833 22.1256 3.18833 22.4765C3.18833 22.8275 2.89175 23.1241 2.54078 23.1241Z" fill="#CCAB80"/>
<path d="M28.0574 2.98564C27.9091 2.58524 27.4592 1.14184 27.4098 1.09241C27.3109 0.894686 27.1132 0.692017 26.9105 0.692017H24.9679C24.6169 0.692017 24.3203 0.988606 24.3203 1.33957C24.3203 1.69053 24.6169 1.98712 24.9679 1.98712H25.6649L22.872 6.17397L18.9867 4.5279C18.7395 4.42904 18.4874 4.47847 18.2897 4.6762L14.4538 8.51209L10.519 3.47995C10.2225 3.13393 9.67377 3.18337 9.4711 3.57882L5.28425 11.2555H3.13892C2.78795 11.2555 2.49136 11.5521 2.49136 11.9031C2.49136 12.2541 2.78795 12.5506 3.13892 12.5506H5.63027C5.87742 12.5506 6.08009 12.4023 6.17896 12.1997L10.0643 4.92336L13.8507 9.75776C13.9496 9.90605 14.1473 10.0049 14.3006 10.0049C14.4983 10.0049 14.6515 9.95549 14.7998 9.80719L18.8878 5.7192L22.8769 7.4147C23.1735 7.51357 23.475 7.4147 23.6233 7.16755L26.6634 2.63468L26.8611 3.28223C26.96 3.63319 27.3109 3.78149 27.657 3.68262C28.0079 3.63319 28.1562 3.28223 28.0574 2.98564Z" fill="#CCAB80"/>
<path d="M28.1068 24.3698H2.54077C2.18981 24.3698 1.89322 24.0732 1.89322 23.7223C1.89322 23.3713 2.18981 23.0747 2.54077 23.0747H28.1068C28.4577 23.0747 28.7543 23.3762 28.7543 23.7223C28.7049 24.0732 28.4033 24.3698 28.1068 24.3698Z" fill="#CCAB80"/>
<path d="M23.1241 11.908C22.9758 11.908 22.7731 11.8586 22.6743 11.7103C22.5754 11.6114 22.4765 11.4137 22.4765 11.2605C22.4765 11.1072 22.526 10.9095 22.6743 10.8106C22.7731 10.7118 22.9708 10.6129 23.1241 10.6129C23.2773 10.6129 23.475 10.6623 23.5739 10.8106C23.6728 10.9095 23.7716 11.1072 23.7716 11.2605C23.7716 11.4137 23.7222 11.6114 23.5739 11.7103C23.4256 11.8092 23.2773 11.908 23.1241 11.908Z" fill="#CCAB80"/>
<path d="M22.4765 11.2605C22.4765 10.9095 22.7731 10.6129 23.1241 10.6129C23.475 10.6129 23.7716 10.9095 23.7716 11.2605C23.7716 11.6114 23.475 11.908 23.1241 11.908C22.7731 11.908 22.4765 11.6114 22.4765 11.2605Z" fill="#CCAB80"/>
<path d="M22.4765 23.7222C22.4765 23.3762 22.7731 23.0747 23.1241 23.0747C23.475 23.0747 23.7716 23.3762 23.7716 23.7222C23.7716 24.0732 23.475 24.3698 23.1241 24.3698C22.7731 24.3698 22.4765 24.0732 22.4765 23.7222ZM22.4765 21.9773C22.4765 21.6263 22.7731 21.3297 23.1241 21.3297C23.475 21.3297 23.7716 21.6263 23.7716 21.9773C23.7716 22.3283 23.475 22.6248 23.1241 22.6248C22.7731 22.5754 22.4765 22.2739 22.4765 21.9773ZM22.4765 20.1829C22.4765 19.832 22.7731 19.5354 23.1241 19.5354C23.475 19.5354 23.7716 19.832 23.7716 20.1829C23.7716 20.5339 23.475 20.8305 23.1241 20.8305C22.7731 20.7811 22.4765 20.5339 22.4765 20.1829ZM22.4765 18.3886C22.4765 18.0376 22.7731 17.741 23.1241 17.741C23.475 17.741 23.7716 18.0425 23.7716 18.3886C23.7716 18.7395 23.475 19.0361 23.1241 19.0361C22.7731 19.0361 22.4765 18.7346 22.4765 18.3886ZM22.4765 16.5942C22.4765 16.2432 22.7731 15.9466 23.1241 15.9466C23.475 15.9466 23.7716 16.2432 23.7716 16.5942C23.7716 16.9452 23.475 17.2418 23.1241 17.2418C22.7731 17.2418 22.4765 16.9402 22.4765 16.5942ZM22.4765 14.8493C22.4765 14.4983 22.7731 14.2017 23.1241 14.2017C23.475 14.2017 23.7716 14.5032 23.7716 14.8493C23.7716 15.2002 23.475 15.4968 23.1241 15.4968C22.7731 15.4474 22.4765 15.2002 22.4765 14.8493ZM22.4765 13.0549C22.4765 12.7039 22.7731 12.4073 23.1241 12.4073C23.475 12.4073 23.7716 12.7089 23.7716 13.0549C23.7716 13.4059 23.475 13.7025 23.1241 13.7025C22.7731 13.653 22.4765 13.4009 22.4765 13.0549Z" fill="#CCAB80"/>
<path d="M23.1241 24.3698C22.9758 24.3698 22.7731 24.3204 22.6743 24.1721C22.5754 24.0732 22.4765 23.8706 22.4765 23.7223C22.4765 23.574 22.526 23.3762 22.6743 23.2724C22.7731 23.1736 22.9708 23.0747 23.1241 23.0747C23.2773 23.0747 23.475 23.1241 23.5739 23.2724C23.6728 23.3713 23.7716 23.574 23.7716 23.7223C23.7716 23.8706 23.7222 24.0732 23.5739 24.1721C23.4256 24.2709 23.2773 24.3698 23.1241 24.3698Z" fill="#CCAB80"/>
<path d="M18.7395 10.0148C18.5912 10.0148 18.3885 9.9654 18.2897 9.81711C18.1908 9.71824 18.0919 9.51557 18.0919 9.36728C18.0919 9.21898 18.1414 9.01631 18.2897 8.91745C18.3885 8.81859 18.5863 8.71973 18.7395 8.71973C18.8927 8.71973 19.0905 8.76916 19.1893 8.91745C19.2882 9.01631 19.3871 9.21404 19.3871 9.36728C19.3871 9.52052 19.3376 9.71824 19.1893 9.81711C19.0905 9.9654 18.8927 10.0148 18.7395 10.0148Z" fill="#CCAB80"/>
<path d="M18.1414 9.41672C18.1414 9.06575 18.4379 8.76917 18.7889 8.76917C19.1399 8.76917 19.4365 9.06575 19.4365 9.41672C19.4365 9.76768 19.1399 10.0643 18.7889 10.0643C18.3885 10.0148 18.1414 9.76768 18.1414 9.41672Z" fill="#CCAB80"/>
<path d="M18.1414 23.7222C18.1414 23.3761 18.4379 23.0746 18.7889 23.0746C19.1399 23.0746 19.4365 23.3761 19.4365 23.7222C19.4365 24.0731 19.1399 24.3697 18.7889 24.3697C18.3885 24.3697 18.1414 24.0731 18.1414 23.7222ZM18.1414 21.9278C18.1414 21.5768 18.4379 21.2802 18.7889 21.2802C19.1399 21.2802 19.4365 21.5768 19.4365 21.9278C19.4365 22.2788 19.1399 22.5753 18.7889 22.5753C18.3885 22.5753 18.1414 22.2738 18.1414 21.9278ZM18.1414 20.1334C18.1414 19.7825 18.4379 19.4859 18.7889 19.4859C19.1399 19.4859 19.4365 19.7825 19.4365 20.1334C19.4365 20.4844 19.1399 20.781 18.7889 20.781C18.3885 20.781 18.1414 20.4844 18.1414 20.1334ZM18.1414 18.3391C18.1414 17.9881 18.4379 17.6915 18.7889 17.6915C19.1399 17.6915 19.4365 17.993 19.4365 18.3391C19.4365 18.69 19.1399 18.9866 18.7889 18.9866C18.3885 18.9866 18.1414 18.69 18.1414 18.3391ZM18.1414 16.5941C18.1414 16.2432 18.4379 15.9466 18.7889 15.9466C19.1399 15.9466 19.4365 16.2432 19.4365 16.5941C19.4365 16.9451 19.1399 17.2417 18.7889 17.2417C18.3885 17.1922 18.1414 16.8907 18.1414 16.5941ZM18.1414 14.7998C18.1414 14.4488 18.4379 14.1522 18.7889 14.1522C19.1399 14.1522 19.4365 14.4488 19.4365 14.7998C19.4365 15.1507 19.1399 15.4473 18.7889 15.4473C18.3885 15.3979 18.1414 15.0963 18.1414 14.7998ZM18.1414 13.0054C18.1414 12.6544 18.4379 12.3578 18.7889 12.3578C19.1399 12.3578 19.4365 12.6594 19.4365 13.0054C19.4365 13.3564 19.1399 13.6529 18.7889 13.6529C18.3885 13.6035 18.1414 13.3564 18.1414 13.0054ZM18.1414 11.211C18.1414 10.8601 18.4379 10.5635 18.7889 10.5635C19.1399 10.5635 19.4365 10.8601 19.4365 11.211C19.4365 11.562 19.1399 11.8586 18.7889 11.8586C18.3885 11.8092 18.1414 11.557 18.1414 11.211Z" fill="#CCAB80"/>
<path d="M18.7395 24.3698C18.5912 24.3698 18.3885 24.3204 18.2897 24.1721C18.1908 24.0732 18.0919 23.8706 18.0919 23.7223C18.0919 23.574 18.1414 23.3762 18.2897 23.2724C18.3885 23.1736 18.5863 23.0747 18.7395 23.0747C18.8927 23.0747 19.0905 23.1241 19.1893 23.2724C19.2882 23.3713 19.3871 23.574 19.3871 23.7223C19.3871 23.8706 19.3376 24.0732 19.1893 24.1721C19.0905 24.2709 18.8927 24.3698 18.7395 24.3698Z" fill="#CCAB80"/>
<path d="M14.4044 13.1537C14.2561 13.1537 14.0534 13.1043 13.9545 12.956C13.8062 12.8572 13.7568 12.7089 13.7568 12.5062C13.7568 12.3035 13.8062 12.1552 13.9545 12.0564C14.0534 11.9575 14.2511 11.8586 14.4044 11.8586C14.5576 11.8586 14.7553 11.9081 14.8542 12.0564C14.953 12.1552 15.0519 12.353 15.0519 12.5062C15.0519 12.6594 15.0025 12.8572 14.8542 12.956C14.7059 13.0549 14.5576 13.1537 14.4044 13.1537Z" fill="#CCAB80"/>
<path d="M13.7568 12.5062C13.7568 12.1552 14.0534 11.8586 14.4044 11.8586C14.7553 11.8586 15.0519 12.1552 15.0519 12.5062C15.0519 12.8572 14.7553 13.1537 14.4044 13.1537C14.0534 13.1537 13.7568 12.8572 13.7568 12.5062Z" fill="#CCAB80"/>
<path d="M13.7568 23.7222C13.7568 23.3762 14.0534 23.0746 14.4044 23.0746C14.7553 23.0746 15.0519 23.3762 15.0519 23.7222C15.0519 24.0731 14.7553 24.3697 14.4044 24.3697C14.0534 24.3697 13.7568 24.0731 13.7568 23.7222ZM13.7568 21.8784C13.7568 21.5274 14.0534 21.2308 14.4044 21.2308C14.7553 21.2308 15.0519 21.5324 15.0519 21.8784C15.0519 22.2293 14.7553 22.5259 14.4044 22.5259C14.0534 22.4765 13.7568 22.2293 13.7568 21.8784ZM13.7568 19.9802C13.7568 19.6292 14.0534 19.3327 14.4044 19.3327C14.7553 19.3327 15.0519 19.6342 15.0519 19.9802C15.0519 20.3312 14.7553 20.6278 14.4044 20.6278C14.0534 20.6278 13.7568 20.3312 13.7568 19.9802ZM13.7568 18.1364C13.7568 17.7854 14.0534 17.4889 14.4044 17.4889C14.7553 17.4889 15.0519 17.7854 15.0519 18.1364C15.0519 18.4874 14.7553 18.784 14.4044 18.784C14.0534 18.7345 13.7568 18.4874 13.7568 18.1364ZM13.7568 16.2432C13.7568 15.8922 14.0534 15.5956 14.4044 15.5956C14.7553 15.5956 15.0519 15.8922 15.0519 16.2432C15.0519 16.5941 14.7553 16.8907 14.4044 16.8907C14.0534 16.8907 13.7568 16.5941 13.7568 16.2432ZM13.7568 14.3994C13.7568 14.0484 14.0534 13.7518 14.4044 13.7518C14.7553 13.7518 15.0519 14.0484 15.0519 14.3994C15.0519 14.7503 14.7553 15.0469 14.4044 15.0469C14.0534 14.9975 13.7568 14.7503 13.7568 14.3994Z" fill="#CCAB80"/>
<path d="M14.4044 24.3698C14.2561 24.3698 14.0534 24.3204 13.9545 24.1721C13.8557 24.0732 13.7568 23.8706 13.7568 23.7223C13.7568 23.574 13.8062 23.3762 13.9545 23.2724C14.0534 23.1736 14.2511 23.0747 14.4044 23.0747C14.5576 23.0747 14.7553 23.1241 14.8542 23.2724C14.953 23.3713 15.0519 23.574 15.0519 23.7223C15.0519 23.8706 15.0025 24.0732 14.8542 24.1721C14.7059 24.2709 14.5576 24.3698 14.4044 24.3698Z" fill="#CCAB80"/>
<path d="M10.0148 10.0148C9.86654 10.0148 9.66387 9.9654 9.56501 9.81711C9.46614 9.66881 9.36728 9.51557 9.36728 9.36728C9.36728 9.21898 9.41671 9.01631 9.56501 8.91745C9.66387 8.81859 9.8616 8.71973 10.0148 8.71973C10.1681 8.71973 10.3658 8.76916 10.4647 8.91745C10.5635 9.01631 10.6624 9.21404 10.6624 9.36728C10.6624 9.52052 10.613 9.71824 10.4647 9.81711C10.3164 9.91597 10.1681 10.0148 10.0148 10.0148Z" fill="#CCAB80"/>
<path d="M9.41672 9.41672C9.41672 9.06575 9.71331 8.76917 10.0643 8.76917C10.4152 8.76917 10.7118 9.06575 10.7118 9.41672C10.7118 9.76768 10.4152 10.0643 10.0643 10.0643C9.66387 10.0148 9.41672 9.76768 9.41672 9.41672Z" fill="#CCAB80"/>
<path d="M9.41672 23.7222C9.41672 23.3761 9.71331 23.0746 10.0643 23.0746C10.4152 23.0746 10.7118 23.3761 10.7118 23.7222C10.7118 24.0731 10.4152 24.3697 10.0643 24.3697C9.66387 24.3697 9.41672 24.0731 9.41672 23.7222ZM9.41672 21.9278C9.41672 21.5768 9.71331 21.2802 10.0643 21.2802C10.4152 21.2802 10.7118 21.5768 10.7118 21.9278C10.7118 22.2788 10.4152 22.5753 10.0643 22.5753C9.66387 22.5753 9.41672 22.2738 9.41672 21.9278ZM9.41672 20.1334C9.41672 19.7825 9.71331 19.4859 10.0643 19.4859C10.4152 19.4859 10.7118 19.7825 10.7118 20.1334C10.7118 20.4844 10.4152 20.781 10.0643 20.781C9.66387 20.781 9.41672 20.4844 9.41672 20.1334ZM9.41672 18.3391C9.41672 17.9881 9.71331 17.6915 10.0643 17.6915C10.4152 17.6915 10.7118 17.993 10.7118 18.3391C10.7118 18.69 10.4152 18.9866 10.0643 18.9866C9.66387 18.9866 9.41672 18.69 9.41672 18.3391ZM9.41672 16.5941C9.41672 16.2432 9.71331 15.9466 10.0643 15.9466C10.4152 15.9466 10.7118 16.2432 10.7118 16.5941C10.7118 16.9451 10.4152 17.2417 10.0643 17.2417C9.66387 17.1922 9.41672 16.8907 9.41672 16.5941ZM9.41672 14.7998C9.41672 14.4488 9.71331 14.1522 10.0643 14.1522C10.4152 14.1522 10.7118 14.4488 10.7118 14.7998C10.7118 15.1507 10.4152 15.4473 10.0643 15.4473C9.66387 15.3979 9.41672 15.0963 9.41672 14.7998ZM9.41672 13.0054C9.41672 12.6544 9.71331 12.3578 10.0643 12.3578C10.4152 12.3578 10.7118 12.6594 10.7118 13.0054C10.7118 13.3564 10.4152 13.6529 10.0643 13.6529C9.66387 13.6035 9.41672 13.3564 9.41672 13.0054ZM9.41672 11.211C9.41672 10.8601 9.71331 10.5635 10.0643 10.5635C10.4152 10.5635 10.7118 10.8601 10.7118 11.211C10.7118 11.562 10.4152 11.8586 10.0643 11.8586C9.66387 11.8092 9.41672 11.557 9.41672 11.211Z" fill="#CCAB80"/>
<path d="M10.0148 24.3698C9.86654 24.3698 9.66387 24.3204 9.56501 24.1721C9.46614 24.0732 9.36728 23.8706 9.36728 23.7223C9.36728 23.574 9.41671 23.3762 9.56501 23.2724C9.66387 23.1736 9.8616 23.0747 10.0148 23.0747C10.1681 23.0747 10.3658 23.1241 10.4647 23.2724C10.5635 23.3713 10.6624 23.574 10.6624 23.7223C10.6624 23.8706 10.613 24.0732 10.4647 24.1721C10.3658 24.2709 10.1681 24.3698 10.0148 24.3698Z" fill="#CCAB80"/>
<path d="M5.67969 15.6451C5.53139 15.6451 5.32872 15.5956 5.22986 15.4474C5.131 15.3485 5.03214 15.1508 5.03214 14.9975C5.03214 14.8443 5.08157 14.6466 5.22986 14.5477C5.32872 14.4488 5.52645 14.35 5.67969 14.35C5.83293 14.35 6.03065 14.3994 6.12951 14.5477C6.22838 14.6466 6.32724 14.8443 6.32724 14.9975C6.32724 15.1508 6.27781 15.3485 6.12951 15.4474C5.98122 15.5462 5.83293 15.6451 5.67969 15.6451Z" fill="#CCAB80"/>
<path d="M5.03214 14.9975C5.03214 14.6466 5.32872 14.35 5.67969 14.35C6.03065 14.35 6.32724 14.6466 6.32724 14.9975C6.32724 15.3485 6.03065 15.6451 5.67969 15.6451C5.32872 15.6451 5.03214 15.3485 5.03214 14.9975Z" fill="#CCAB80"/>
<path d="M5.03214 23.7223C5.03214 23.3762 5.32872 23.0747 5.67969 23.0747C6.03065 23.0747 6.32724 23.3762 6.32724 23.7223C6.32724 24.0732 6.03065 24.3698 5.67969 24.3698C5.32872 24.3698 5.03214 24.0732 5.03214 23.7223ZM5.03214 21.9773C5.03214 21.6264 5.32872 21.3298 5.67969 21.3298C6.03065 21.3298 6.32724 21.6264 6.32724 21.9773C6.32724 22.3283 6.03065 22.6249 5.67969 22.6249C5.32872 22.6249 5.03214 22.3283 5.03214 21.9773ZM5.03214 20.2324C5.03214 19.8814 5.32872 19.5848 5.67969 19.5848C6.03065 19.5848 6.32724 19.8864 6.32724 20.2324C6.32724 20.5834 6.03065 20.8799 5.67969 20.8799C5.32872 20.8799 5.03214 20.5784 5.03214 20.2324ZM5.03214 18.4875C5.03214 18.1365 5.32872 17.8399 5.67969 17.8399C6.03065 17.8399 6.32724 18.1365 6.32724 18.4875C6.32724 18.8384 6.03065 19.135 5.67969 19.135C5.32872 19.135 5.03214 18.8384 5.03214 18.4875ZM5.03214 16.7425C5.03214 16.3916 5.32872 16.095 5.67969 16.095C6.03065 16.095 6.32724 16.3965 6.32724 16.7425C6.32724 17.0935 6.03065 17.3901 5.67969 17.3901C5.32872 17.3901 5.03214 17.0885 5.03214 16.7425Z" fill="#CCAB80"/>
<path d="M5.67969 24.3698C5.53139 24.3698 5.32872 24.3204 5.22986 24.1721C5.131 24.0732 5.03214 23.8706 5.03214 23.7223C5.03214 23.574 5.08157 23.3762 5.22986 23.2724C5.32872 23.1736 5.52645 23.0747 5.67969 23.0747C5.83293 23.0747 6.03065 23.1241 6.12951 23.2724C6.22838 23.3713 6.32724 23.574 6.32724 23.7223C6.32724 23.8706 6.27781 24.0732 6.12951 24.1721C5.98122 24.2709 5.83293 24.3698 5.67969 24.3698Z" fill="#CCAB80"/>
<path d="M11.913 1.29511H5.03708C4.68612 1.29511 4.38953 0.993574 4.38953 0.647553C4.38953 0.301532 4.68612 0 5.03708 0H11.913C12.264 0 12.5606 0.301532 12.5606 0.647553C12.5606 0.993574 12.2096 1.29511 11.913 1.29511Z" fill="#CCAB80"/>
<path d="M14.4043 3.18829H11.913C11.562 3.18829 11.2654 2.88676 11.2654 2.54074C11.2654 2.19472 11.562 1.89319 11.913 1.89319H14.4043C14.7553 1.89319 15.0519 2.18978 15.0519 2.54074C15.0025 2.89171 14.7009 3.18829 14.4043 3.18829Z" fill="#CCAB80"/>
<path d="M28.1068 11.2605H26.8611V12.5062H28.1068V11.2605Z" fill="#CCAB80"/>
<path d="M29.3525 10.0149H28.1068V11.2606H29.3525V10.0149Z" fill="#CCAB80"/>
<path d="M28.1068 8.76917H26.8611V10.0148H28.1068V8.76917Z" fill="#CCAB80"/>
<path d="M29.3525 7.52344H28.1068V8.76911H29.3525V7.52344Z" fill="#CCAB80"/>
<path d="M28.1068 6.27783H26.8611V7.52351H28.1068V6.27783Z" fill="#CCAB80"/>
</svg>
