<svg width="30" height="28" viewBox="0 0 30 28" fill="none" xmlns="http://www.w3.org/2000/svg">
<path d="M18.6901 3.83586C17.6915 4.33511 16.3964 4.68113 14.953 4.68113C13.3564 4.68113 11.913 4.28074 10.865 3.68262C9.52051 5.97624 8.67029 9.26344 8.67029 12.254C8.67029 14.696 9.26841 16.9402 10.2175 18.6357C10.7168 19.5353 11.3149 20.2817 12.0119 20.781H17.4444C18.0919 20.2817 18.6901 19.5847 19.1893 18.7395C20.1878 17.044 20.786 14.7503 20.786 12.2096C20.786 9.31781 19.9901 6.12948 18.695 3.83586H18.6901Z" fill="white"/>
<path d="M2.54078 8.12158C3.23776 8.12158 3.78645 8.67027 3.78645 9.36726C3.78645 10.0642 3.23776 10.6129 2.54078 10.6129C1.8438 10.6129 1.2951 10.0148 1.2951 9.36726C1.2951 8.67027 1.8438 8.12158 2.54078 8.12158Z" fill="white"/>
<path d="M27.4592 13.7073C28.1562 13.7073 28.7049 14.256 28.7049 14.953C28.7049 15.6499 28.1562 16.1986 27.4592 16.1986C26.7622 16.1986 26.2135 15.6499 26.2135 14.953C26.2135 14.256 26.7622 13.7073 27.4592 13.7073Z" fill="white"/>
<path d="M24.9679 0.598145C26.0158 0.598145 26.8611 1.44837 26.8611 2.49137C26.8611 3.53438 26.0109 4.3846 24.9679 4.3846C23.9249 4.3846 23.0746 3.53438 23.0746 2.49137C23.0746 1.44837 23.9249 0.598145 24.9679 0.598145Z" fill="white"/>
<path d="M14.7504 10.9146C15.1508 10.9146 15.4968 11.2655 15.4968 11.661C15.4968 12.1108 15.1458 12.4074 14.7504 12.4074C14.3549 12.4074 14.004 12.0564 14.004 11.661C14.004 11.2655 14.3549 10.9146 14.7504 10.9146Z" fill="#CCAB80"/>
<path d="M14.7504 8.47241C16.5398 8.47241 17.9881 9.92076 17.9881 11.7102C17.9881 13.4996 16.5398 14.9479 14.7504 14.9479C12.9609 14.9479 11.5126 13.4996 11.5126 11.7102C11.5126 9.92076 12.9609 8.47241 14.7504 8.47241Z" fill="white"/>
<path d="M17.4444 20.7314H12.0613L9.71823 24.77C10.8156 24.77 11.7103 25.6647 11.7103 26.7621C11.7103 25.116 13.0549 23.7221 14.7504 23.7221C16.4459 23.7221 17.7904 25.0666 17.7904 26.7621C17.7904 25.6647 18.6851 24.77 19.7825 24.77L17.4394 20.7314H17.4444Z" fill="white"/>
<path d="M10.2669 18.5911L10.0198 18.7394L5.68463 17.7409L8.72467 12.2095C8.72467 14.6514 9.32279 16.8956 10.2719 18.5911H10.2669Z" fill="white"/>
<path d="M20.781 12.2095L23.8211 17.7409L19.3871 18.7394L19.1893 18.6899C20.1878 16.9944 20.786 14.7008 20.786 12.2095H20.781Z" fill="white"/>
<path d="M18.6901 3.83586C17.6915 4.33511 16.3964 4.68113 14.953 4.68113C13.3564 4.68113 11.913 4.28074 10.8651 3.68262C11.913 1.88825 13.2575 0.642578 14.7009 0.642578C16.2481 0.642578 17.6421 1.88825 18.6901 3.83091V3.83586Z" fill="white"/>
<path d="M24.9679 19.3376H23.7222V20.5833H24.9679V19.3376Z" fill="#CCAB80"/>
<path d="M24.9679 10.6179H23.7222V11.8636H24.9679V10.6179Z" fill="#CCAB80"/>
<path d="M24.9679 8.12158H23.7222V9.36726H24.9679V8.12158Z" fill="#CCAB80"/>
<path d="M23.7222 9.37231H22.4765V10.618H23.7222V9.37231Z" fill="#CCAB80"/>
<path d="M23.7222 6.87598H22.4765V8.12165H23.7222V6.87598Z" fill="#CCAB80"/>
<path d="M7.52348 20.5833H6.2778V21.8289H7.52348V20.5833Z" fill="#CCAB80"/>
<path d="M5.03214 4.38452H3.78647V5.6302H5.03214V4.38452Z" fill="#CCAB80"/>
<path d="M5.03214 1.89331H3.78647V3.13899H5.03214V1.89331Z" fill="#CCAB80"/>
<path d="M3.78645 3.13892H2.54077V4.38459H3.78645V3.13892Z" fill="#CCAB80"/>
<path d="M3.78645 0.647461H2.54077V1.89314H3.78645V0.647461Z" fill="#CCAB80"/>
<path d="M3.18833 13.7073H1.94266V14.953H3.18833V13.7073Z" fill="#CCAB80"/>
<path d="M19.3376 19.3376C19.041 19.3376 18.7889 19.1398 18.7395 18.8383C18.6406 18.4873 18.8878 18.1908 19.1893 18.0919L22.8275 17.2466L20.2373 12.5111C20.089 12.2145 20.1878 11.8141 20.4844 11.6658C20.786 11.5175 21.1814 11.6164 21.3297 11.9129L24.3698 17.4443C24.4686 17.5926 24.4686 17.8447 24.3698 17.993C24.2709 18.1908 24.1226 18.2896 23.9199 18.344L19.4859 19.3425H19.3376V19.3376Z" fill="#CCAB80"/>
<path d="M10.0148 19.3376H9.86653L5.53138 18.3391C5.33365 18.2897 5.18042 18.1908 5.08155 17.9881C4.98269 17.7904 5.03212 17.5878 5.08155 17.4395L8.12159 11.9081C8.26989 11.6065 8.67028 11.5077 8.96687 11.6609C9.26346 11.8092 9.36727 12.2096 9.21403 12.5062L6.57439 17.3406L10.1137 18.1364C10.4646 18.2353 10.6624 18.5368 10.5635 18.8829C10.5635 19.1794 10.3164 19.3327 10.0148 19.3327V19.3376Z" fill="#CCAB80"/>
<path d="M17.4444 21.379H12.0613C11.913 21.379 11.7598 21.3296 11.6609 21.2308C10.9145 20.6326 10.2669 19.8368 9.71825 18.8877C8.6703 17.0439 8.07217 14.6514 8.07217 12.2095C8.07217 9.16946 8.91745 5.77845 10.3658 3.33654C10.5141 3.035 10.9145 2.93614 11.2111 3.08938C11.5077 3.23767 11.6115 3.63807 11.4582 3.93466C10.1631 6.17885 9.36728 9.31775 9.36728 12.1601C9.36728 14.4043 9.86654 16.5941 10.8107 18.2401C11.2605 18.9866 11.7598 19.6341 12.3035 20.0839H17.2368C17.736 19.6341 18.2353 19.036 18.6308 18.339C19.6293 16.6435 20.178 14.4537 20.178 12.1601C20.178 9.42156 19.4315 6.32714 18.1859 4.0879C18.0376 3.78636 18.1364 3.39091 18.433 3.24262C18.7296 3.09432 19.13 3.19318 19.2783 3.48977C20.6228 5.88226 21.4236 9.21889 21.4236 12.1601C21.4236 14.7008 20.8255 17.0933 19.7281 18.9866C19.1794 19.8813 18.5813 20.6326 17.8349 21.1813C17.736 21.3296 17.5877 21.379 17.4345 21.379H17.4444Z" fill="#CCAB80"/>
<path d="M14.953 5.28423C13.307 5.28423 11.7647 4.88383 10.5685 4.18685C10.2719 4.03856 10.1681 3.63816 10.3707 3.34157C11.6164 1.19624 13.1636 0 14.7553 0C16.347 0 17.9931 1.24567 19.2388 3.5393C19.3376 3.68759 19.3376 3.83589 19.2882 4.03856C19.2388 4.18685 19.1399 4.33514 18.9867 4.38952C17.8399 4.93821 16.4459 5.28423 14.9481 5.28423H14.953ZM11.7598 3.391C12.6545 3.7914 13.8013 4.03856 14.9481 4.03856C15.9466 4.03856 16.9402 3.89026 17.7904 3.5393C16.8413 2.04647 15.7489 1.24567 14.7504 1.24567C13.7519 1.24567 12.7089 1.99209 11.7598 3.391Z" fill="#CCAB80"/>
<path d="M14.7504 15.6007C12.605 15.6007 10.8651 13.8558 10.8651 11.7154C10.8651 9.57501 12.61 7.83008 14.7504 7.83008C16.8908 7.83008 18.6357 9.57501 18.6357 11.7154C18.6357 13.8558 16.8908 15.6007 14.7504 15.6007ZM14.7504 9.07081C13.307 9.07081 12.1107 10.2671 12.1107 11.7105C12.1107 13.1539 13.307 14.3501 14.7504 14.3501C16.1938 14.3501 17.39 13.1539 17.39 11.7105C17.39 10.2671 16.1938 9.07081 14.7504 9.07081Z" fill="#CCAB80"/>
<path d="M14.7504 13.1092C14.004 13.1092 13.3564 12.4617 13.3564 11.7153C13.3564 10.9688 14.004 10.3213 14.7504 10.3213C15.4968 10.3213 16.1444 10.9688 16.1444 11.7153C16.1444 12.4617 15.4968 13.1092 14.7504 13.1092Z" fill="#CCAB80"/>
<path d="M11.7103 27.4098C11.3594 27.4098 11.0628 27.1132 11.0628 26.7622C11.0628 26.0158 10.4152 25.3682 9.66881 25.3682C8.92239 25.3682 8.27484 26.0158 8.27484 26.7622C8.27484 27.1132 7.97825 27.4098 7.62729 27.4098C7.27633 27.4098 6.97974 27.1132 6.97974 26.7622C6.97974 25.3188 8.17598 24.1226 9.61938 24.1226C11.0628 24.1226 12.259 25.3188 12.259 26.7622C12.3579 27.1132 12.0613 27.4098 11.7103 27.4098Z" fill="#CCAB80"/>
<path d="M7.72615 27.4099C7.37519 27.4099 7.0786 27.1133 7.0786 26.7623C7.0786 26.0159 6.43105 25.3683 5.68463 25.3683C5.33367 25.3683 5.03708 25.0718 5.03708 24.7208C5.03708 24.3698 5.33367 24.0732 5.68463 24.0732C7.12803 24.0732 8.32428 25.2695 8.32428 26.7129C8.32428 27.1133 8.07712 27.4099 7.72615 27.4099Z" fill="#CCAB80"/>
<path d="M21.7795 27.4098C21.4286 27.4098 21.132 27.1132 21.132 26.7622C21.132 26.0158 20.4844 25.3682 19.738 25.3682C18.9916 25.3682 18.3441 26.0158 18.3441 26.7622C18.3441 27.1132 18.0475 27.4098 17.6965 27.4098C17.3455 27.4098 17.049 27.1132 17.049 26.7622C17.049 25.3188 18.2452 24.1226 19.6886 24.1226C21.132 24.1226 22.3282 25.3188 22.3282 26.7622C22.4271 27.1132 22.1305 27.4098 21.7795 27.4098Z" fill="#CCAB80"/>
<path d="M21.7795 27.4098C21.4286 27.4098 21.132 27.1132 21.132 26.7622C21.132 25.9664 21.5818 25.0667 22.2788 24.5674C22.9264 24.0682 23.7222 23.9199 24.4736 24.1671C24.8245 24.2659 24.9728 24.6169 24.9234 24.9135C24.8245 25.2644 24.4736 25.4127 24.177 25.3633C23.6777 25.215 23.2773 25.4127 23.0796 25.561C22.6792 25.8576 22.432 26.3569 22.432 26.7573C22.432 27.1082 22.1305 27.4048 21.7845 27.4048L21.7795 27.4098Z" fill="#CCAB80"/>
<path d="M17.7904 27.4097C17.4394 27.4097 17.1429 27.1131 17.1429 26.7622C17.1429 25.4176 16.0455 24.3697 14.7504 24.3697C13.4553 24.3697 12.3579 25.4671 12.3579 26.7622C12.3579 27.1131 12.0613 27.4097 11.7103 27.4097C11.3594 27.4097 11.0628 27.1131 11.0628 26.7622C11.0628 24.7701 12.7088 23.124 14.7009 23.124C16.693 23.124 18.3391 24.7701 18.3391 26.7622C18.3885 27.1131 18.0919 27.4097 17.7904 27.4097Z" fill="#CCAB80"/>
<path d="M19.7875 25.4177C19.5897 25.4177 19.3376 25.3189 19.2388 25.1212L16.8957 21.0826C16.7474 20.786 16.8463 20.3856 17.1429 20.2373C17.4395 20.089 17.8398 20.1879 17.9881 20.4845L20.3312 24.523C20.4795 24.8196 20.3806 25.22 20.084 25.3683C19.9852 25.3683 19.8863 25.4177 19.7875 25.4177Z" fill="#CCAB80"/>
<path d="M9.71825 25.4176C9.61939 25.4176 9.52053 25.3682 9.41672 25.3188C9.12013 25.1705 9.01633 24.7701 9.16956 24.4735L11.5126 20.4349C11.6609 20.1334 12.0613 20.0345 12.3579 20.1878C12.6545 20.3361 12.7583 20.7365 12.6051 21.033L10.262 25.0716C10.1631 25.2693 9.91104 25.4226 9.71331 25.4226L9.71825 25.4176Z" fill="#CCAB80"/>
<path d="M14.7504 24.3204C14.3994 24.3204 14.1028 24.0188 14.1028 23.6728V17.4444C14.1028 17.0935 14.3994 16.7969 14.7504 16.7969C15.1013 16.7969 15.3979 17.0984 15.3979 17.4444V23.6728C15.3979 24.0238 15.1013 24.3204 14.7504 24.3204Z" fill="#CCAB80"/>
<path d="M29.3524 25.566C29.0015 25.566 28.7049 25.2645 28.7049 24.9184C28.7049 23.8705 27.8596 23.0252 26.8117 23.0252C25.7637 23.0252 24.9184 23.8705 24.9184 24.9184C24.9184 25.2694 24.6169 25.566 24.2709 25.566C23.9249 25.566 23.7222 25.2645 23.7222 24.9184C23.7222 23.2229 25.1162 21.7795 26.8611 21.7795C28.606 21.7795 30 23.1735 30 24.9184C29.9506 25.2694 29.649 25.566 29.3524 25.566Z" fill="#CCAB80"/>
<path d="M5.67968 25.566C5.32872 25.566 5.03213 25.2645 5.03213 24.9184C5.03213 23.8705 4.18685 23.0252 3.1389 23.0252C2.09095 23.0252 1.29511 23.8705 1.29511 24.9184C1.29511 25.2694 0.993575 25.566 0.647554 25.566C0.301533 25.566 0 25.2645 0 24.9184C0 23.2229 1.39397 21.7795 3.1389 21.7795C4.88384 21.7795 6.2778 23.2229 6.2778 24.9184C6.2778 25.2694 5.98122 25.566 5.67968 25.566Z" fill="#CCAB80"/>
<path d="M2.54078 11.2161C1.49283 11.2161 0.647552 10.3709 0.647552 9.32292C0.647552 8.27497 1.49283 7.42969 2.54078 7.42969C3.58873 7.42969 4.43401 8.27497 4.43401 9.32292C4.43401 10.3709 3.58873 11.2161 2.54078 11.2161ZM2.54078 8.71985C2.18982 8.71985 1.89323 9.01644 1.89323 9.3674C1.89323 9.71837 2.18982 10.015 2.54078 10.015C2.89174 10.015 3.18833 9.71837 3.18833 9.3674C3.18833 9.01644 2.89174 8.71985 2.54078 8.71985Z" fill="#CCAB80"/>
<path d="M27.4592 16.8463C26.4113 16.8463 25.566 16.001 25.566 14.953C25.566 13.9051 26.4113 13.0598 27.4592 13.0598C28.5072 13.0598 29.3524 13.9051 29.3524 14.953C29.3524 16.001 28.5072 16.8463 27.4592 16.8463ZM27.4592 14.3549C27.1082 14.3549 26.8117 14.6515 26.8117 15.0025C26.8117 15.3534 27.1132 15.65 27.4592 15.65C27.8052 15.65 28.1068 15.3534 28.1068 15.0025C28.1068 14.6515 27.8102 14.3549 27.4592 14.3549Z" fill="#CCAB80"/>
<path d="M24.9679 4.9827C23.5739 4.9827 22.4765 3.88532 22.4765 2.49135C22.4765 1.09738 23.5739 0 24.9679 0C26.3619 0 27.4592 1.09738 27.4592 2.49135C27.4592 3.88532 26.3619 4.9827 24.9679 4.9827ZM24.9679 1.24567C24.2709 1.24567 23.7222 1.79436 23.7222 2.49135C23.7222 3.18833 24.2709 3.73702 24.9679 3.73702C25.6649 3.73702 26.2136 3.18833 26.2136 2.49135C26.2136 1.79436 25.6649 1.24567 24.9679 1.24567Z" fill="#CCAB80"/>
</svg>
