<svg width="30" height="30" viewBox="0 0 30 30" fill="none" xmlns="http://www.w3.org/2000/svg">
<path d="M1.93827 1.93823C2.65183 1.93823 3.21357 2.49997 3.21357 3.21354C3.21357 3.9271 2.65183 4.48884 1.93827 4.48884C1.22471 4.48884 0.662964 3.9271 0.662964 3.21354C0.662964 2.49997 1.22471 1.93823 1.93827 1.93823Z" fill="white"/>
<path d="M23.6235 26.7864C24.337 26.7864 24.8988 27.3481 24.8988 28.0617C24.8988 28.7752 24.337 29.337 23.6235 29.337C22.9099 29.337 22.3482 28.7752 22.3482 28.0617C22.3482 27.3481 22.9099 26.7864 23.6235 26.7864Z" fill="white"/>
<path d="M27.4494 0.607178C28.5223 0.607178 29.3877 1.47762 29.3877 2.54544C29.3877 3.61325 28.5223 4.4837 27.4494 4.4837C26.3765 4.4837 25.5111 3.61325 25.5111 2.54544C25.5111 1.47762 26.3765 0.607178 27.4494 0.607178Z" fill="white"/>
<path d="M27.4494 13.1123V15.7641C27.4494 16.3258 27.0395 16.7863 26.4777 16.7863L24.5395 16.9382C24.2865 17.9098 23.9271 18.8258 23.416 19.6406L24.6913 21.1183C25.0506 21.5282 24.995 22.1406 24.6407 22.5455L22.7024 24.4331C22.2925 24.843 21.6802 24.843 21.2753 24.4837L19.7976 23.2084C18.9828 23.7195 18.0618 24.0738 17.0952 24.3319L16.9433 26.2701C16.8927 26.8319 16.4322 27.2418 15.9211 27.2418H13.2692C12.7075 27.2418 12.247 26.8319 12.247 26.2701L12.0952 24.2813C11.1286 24.0282 10.2075 23.6689 9.39273 23.1578L7.91499 24.4331C7.50508 24.7924 6.89273 24.7418 6.48787 24.3825L4.54961 22.5455C4.13969 22.1355 4.13969 21.5232 4.499 21.1183L5.77431 19.6406C5.26317 18.8258 4.90892 17.9048 4.65082 16.9382L2.71257 16.7863C2.15082 16.7357 1.74091 16.2752 1.74091 15.7641V13.1123C1.74091 12.5505 2.15082 12.09 2.71257 12.09L4.65082 11.9382C4.90386 10.9665 5.26317 10.0505 5.77431 9.23574L4.499 7.758C4.13969 7.34808 4.19536 6.73574 4.54961 6.33088L6.43726 4.44323C6.84718 4.03331 7.45953 4.03331 7.86439 4.39262L9.34212 5.66792C10.1569 5.15679 11.0779 4.80254 12.0445 4.54444L12.1964 2.60618C12.247 2.04444 12.7075 1.63452 13.2186 1.63452H15.8705C16.4322 1.63452 16.8927 2.04444 16.8927 2.60618L17.0445 4.54444C18.0111 4.79748 18.9322 5.15679 19.747 5.66792L21.2247 4.39262C21.6346 4.03331 22.247 4.08897 22.6518 4.44323L24.5395 6.33088C24.9494 6.7408 24.9494 7.35314 24.5901 7.758L23.416 9.18513C23.9271 9.99991 24.2814 10.921 24.5395 11.8876L26.5284 12.0394C27.0395 12.09 27.4443 12.5505 27.4443 13.1123H27.4494ZM16.0172 14.4382C16.0172 13.5728 15.3037 12.8542 14.4332 12.8542C13.5628 12.8542 12.8543 13.5677 12.8543 14.4382C12.8543 15.3086 13.5678 16.0171 14.4332 16.0171C15.2986 16.0171 16.0172 15.3035 16.0172 14.4382Z" fill="white"/>
<path d="M2.5506 26.7864H1.2753V28.0617H2.5506V26.7864Z" fill="#CCAB80"/>
<path d="M2.5506 24.2358H1.2753V25.5111H2.5506V24.2358Z" fill="#CCAB80"/>
<path d="M2.5506 21.6802H1.2753V22.9555H2.5506V21.6802Z" fill="#CCAB80"/>
<path d="M1.2753 28.0618H0V29.3371H1.2753V28.0618Z" fill="#CCAB80"/>
<path d="M1.2753 25.511H0V26.7863H1.2753V25.511Z" fill="#CCAB80"/>
<path d="M1.2753 22.9556H0V24.2309H1.2753V22.9556Z" fill="#CCAB80"/>
<path d="M15.916 27.9101H13.2642C12.3988 27.9101 11.6802 27.2471 11.5789 26.3767L11.4777 24.8483C10.7642 24.6459 10.1012 24.3372 9.43825 24.0336L8.26416 25.0052C7.96052 25.2583 7.5506 25.4151 7.19129 25.4151C6.73076 25.4151 6.3259 25.2633 6.0172 24.904L4.12955 23.0164C3.5172 22.404 3.46659 21.3817 4.02833 20.7188L4.99999 19.5447C4.64068 18.8817 4.38764 18.2188 4.18522 17.5052L2.65688 17.404C1.79149 17.3534 1.12347 16.5892 1.12347 15.7188V13.067C1.12347 12.2016 1.78643 11.488 2.65688 11.3817L4.18522 11.2805C4.38764 10.567 4.69635 9.904 4.99999 9.24105L4.02833 8.11757C3.46659 7.45461 3.5172 6.43234 4.12955 5.81999L6.0172 3.93234C6.3259 3.6287 6.78137 3.42121 7.19129 3.42121C7.60121 3.42121 7.95546 3.57303 8.26416 3.83113L9.43825 4.79773C10.1012 4.44348 10.7642 4.18538 11.4777 3.98295L11.5789 2.45461C11.6295 1.58923 12.3937 0.92627 13.2642 0.92627H15.916C16.7814 0.92627 17.5 1.58923 17.6012 2.45461L17.7024 3.98295C18.416 4.18538 19.0789 4.49408 19.7419 4.79773L20.916 3.83113C21.2247 3.57809 21.6295 3.42121 21.9889 3.42121C22.4494 3.42121 22.8542 3.57303 23.1629 3.93234L25.0506 5.81999C25.6629 6.43234 25.7136 7.45461 25.1518 8.11757L24.1802 9.29165C24.5395 9.95461 24.7925 10.6176 24.9949 11.3311L26.5283 11.4323C27.3937 11.483 28.0567 12.2471 28.0567 13.1176V15.7694C28.0567 16.6348 27.3937 17.3534 26.5283 17.4546L24.9949 17.5558C24.7925 18.2694 24.4838 18.9323 24.1802 19.5953L25.1518 20.7694C25.7136 21.4323 25.6629 22.4546 25.0506 23.067L23.1629 24.9546C22.8542 25.2583 22.4494 25.4657 21.9889 25.4657C21.5789 25.4657 21.2247 25.3139 20.916 25.0558L19.7419 24.0842C19.0789 24.4435 18.416 24.6965 17.7024 24.8989L17.6012 26.4323C17.5506 27.2471 16.7864 27.9101 15.916 27.9101ZM9.33704 22.6014C9.43825 22.6014 9.53947 22.652 9.64574 22.7026C10.4099 23.1631 11.2804 23.5174 12.1963 23.7249C12.4494 23.7755 12.6569 24.0285 12.6569 24.2866L12.8087 26.2755C12.8087 26.4779 13.0111 26.6348 13.2186 26.6348H15.8704C16.0729 26.6348 16.2804 26.483 16.2804 26.2755L16.4322 24.3372C16.4322 24.0842 16.6346 23.8261 16.8927 23.7755C17.8087 23.573 18.6285 23.2137 19.4433 22.7532C19.6963 22.6014 19.9544 22.652 20.1569 22.8038L21.6346 24.0791C21.7358 24.1803 21.837 24.1803 21.8876 24.1803C21.9889 24.1803 22.0901 24.1297 22.1913 24.0791L24.0789 22.1915C24.2308 22.0396 24.2308 21.7815 24.0789 21.6297L22.9048 20.0457C22.753 19.8433 22.7024 19.5346 22.8542 19.3321C23.3148 18.568 23.669 17.6975 23.9271 16.7815C23.9777 16.5285 24.2358 16.321 24.4889 16.321L26.4271 16.1692C26.6295 16.1692 26.7864 15.9668 26.7864 15.7593V13.1074C26.7864 12.905 26.6346 12.6975 26.4271 12.6975L24.4382 12.5457C24.1852 12.5457 23.9271 12.3433 23.8765 12.0852C23.6741 11.1641 23.3148 10.3493 22.8036 9.53457C22.6518 9.28153 22.7024 9.02344 22.8542 8.82101L24.1295 7.34327C24.2814 7.19145 24.2308 6.93335 24.1295 6.78153L22.2419 4.89388C22.1913 4.84327 22.0901 4.79267 21.9382 4.79267C21.8876 4.79267 21.7864 4.79267 21.6852 4.89388L20.2075 6.16918C20.0051 6.32101 19.6963 6.37161 19.4939 6.21979C18.6791 5.75927 17.8593 5.40501 16.9433 5.14692C16.6903 5.09631 16.4828 4.83821 16.4828 4.58518L16.331 2.64692C16.331 2.44449 16.1285 2.28761 15.921 2.28761H13.2692C13.0668 2.28761 12.8593 2.43943 12.8593 2.64692L12.7075 4.53457C12.7075 4.78761 12.5051 5.0457 12.247 5.09631C11.3816 5.29874 10.5111 5.65805 9.69635 6.16918C9.44331 6.32101 9.18521 6.2704 8.98279 6.11858L7.50505 4.84327C7.40384 4.74206 7.30262 4.74206 7.25202 4.74206C7.1508 4.74206 7.04959 4.79267 6.94837 4.84327L5.06072 6.73093C4.9089 6.88275 4.9089 7.14084 5.06072 7.29267L6.33602 8.7704C6.48785 8.97283 6.53845 9.28153 6.38663 9.48396C5.92611 10.2987 5.57185 11.1186 5.31376 12.0346C5.26315 12.2876 5.01011 12.4951 4.75202 12.4951L2.76315 12.6975C2.56072 12.6975 2.40384 12.9 2.40384 13.1074V15.7593C2.40384 15.9617 2.55566 16.1692 2.76315 16.1692L4.70141 16.321C4.95445 16.321 5.21254 16.5234 5.26315 16.7815C5.46558 17.6469 5.82489 18.5174 6.33602 19.3321C6.48785 19.5852 6.43724 19.8433 6.28542 20.0457L5.01011 21.5234C4.85829 21.6753 4.9089 21.9334 5.01011 22.0852L6.89777 23.9728C6.94837 24.0234 7.04959 24.074 7.20141 24.074C7.25202 24.074 7.35323 24.074 7.45445 23.9728L8.93218 22.6975C9.084 22.6469 9.18521 22.5963 9.3421 22.5963L9.33704 22.6014Z" fill="#CCAB80"/>
<path d="M19.6407 10.8655C19.4383 10.8655 19.2814 10.7643 19.1296 10.6124C18.669 10.0507 18.1579 9.59017 17.5456 9.23592C17.2419 9.03349 17.1356 8.67418 17.3431 8.37054C17.5456 8.06689 17.9049 7.96062 18.2085 8.16811C18.9221 8.62863 19.585 9.19037 20.1468 9.85333C20.3492 10.1064 20.3492 10.5163 20.0456 10.7693C19.8937 10.8199 19.7368 10.8705 19.6356 10.8705L19.6407 10.8655Z" fill="#CCAB80"/>
<path d="M14.4383 21.7307C10.4099 21.7307 7.09009 18.4665 7.09009 14.3825C7.09009 10.2985 10.3543 7.08496 14.4383 7.08496C14.7976 7.08496 15.1012 7.39367 15.1012 7.74792C15.1012 8.10217 14.7976 8.41087 14.4383 8.41087C11.1235 8.41087 8.36539 11.1133 8.36539 14.4837C8.36539 17.8542 11.0678 20.5566 14.4383 20.5566C16.0729 20.5566 17.5506 19.9443 18.7247 18.7702C19.8988 17.5961 20.5111 16.1184 20.5111 14.4837C20.5111 14.1244 20.8198 13.8208 21.1741 13.8208C21.5283 13.8208 21.8371 14.1244 21.8371 14.4837C21.8371 16.422 21.0729 18.259 19.6964 19.6862C18.2186 20.9615 16.3816 21.7256 14.4433 21.7256L14.4383 21.7307Z" fill="#CCAB80"/>
<path d="M14.4383 19.1803C14.0789 19.1803 13.7753 18.8766 13.7753 18.5173C13.7753 18.158 14.084 17.8544 14.4383 17.8544C16.3765 17.8544 17.9605 16.2754 17.9605 14.3321C17.9605 12.3888 16.3816 10.8098 14.4383 10.8098C12.4949 10.8098 10.916 12.3888 10.916 14.3321C10.916 15.2532 11.2702 16.1185 11.9383 16.7815C12.1913 17.0345 12.1913 17.4444 11.9383 17.6975C11.6852 17.9505 11.2753 17.9505 11.0172 17.6975C10.1518 16.8827 9.64069 15.7086 9.64069 14.4333C9.64069 11.7815 11.7814 9.63574 14.4383 9.63574C17.0951 9.63574 19.2358 11.7764 19.2358 14.4333C19.2358 17.0902 17.0445 19.1803 14.4383 19.1803Z" fill="#CCAB80"/>
<path d="M14.4382 16.6294C13.2136 16.6294 12.1913 15.6072 12.1913 14.3825C12.1913 13.1578 13.2136 12.1355 14.4382 12.1355C15.6629 12.1355 16.6852 13.1578 16.6852 14.3825C16.6346 15.6578 15.6629 16.6294 14.4382 16.6294ZM14.4382 13.4665C13.9271 13.4665 13.4716 13.8764 13.4716 14.4381C13.4716 14.9493 13.8816 15.4098 14.4382 15.4098C14.9494 15.4098 15.4099 14.9999 15.4099 14.4381C15.4099 13.8764 14.9494 13.4665 14.4382 13.4665Z" fill="#CCAB80"/>
<path d="M1.93826 5.10113C0.865385 5.10113 0 4.23574 0 3.16287C0 2.08999 0.865385 1.22461 1.93826 1.22461C3.01113 1.22461 3.87652 2.08999 3.87652 3.16287C3.87652 4.23574 2.96053 5.10113 1.93826 5.10113ZM1.93826 2.55052C1.57895 2.55052 1.2753 2.85416 1.2753 3.21348C1.2753 3.57279 1.57895 3.87643 1.93826 3.87643C2.29757 3.87643 2.60121 3.56773 2.60121 3.21348C2.55061 2.85416 2.29757 2.55052 1.93826 2.55052Z" fill="#CCAB80"/>
<path d="M23.6235 30.0001C22.5506 30.0001 21.6852 29.1347 21.6852 28.0618C21.6852 26.9889 22.5506 26.1235 23.6235 26.1235C24.6963 26.1235 25.5617 26.9889 25.5617 28.0618C25.5617 29.1347 24.6457 30.0001 23.6235 30.0001ZM23.6235 27.4494C23.2642 27.4494 22.9605 27.7531 22.9605 28.1124C22.9605 28.4717 23.2642 28.7754 23.6235 28.7754C23.9828 28.7754 24.2864 28.4667 24.2864 28.1124C24.2358 27.7025 23.9828 27.4494 23.6235 27.4494Z" fill="#CCAB80"/>
<path d="M27.4494 5.10121C26.0223 5.10121 24.8988 3.97773 24.8988 2.55061C24.8988 1.12348 26.0223 0 27.4494 0C28.8765 0 30 1.12348 30 2.55061C30 3.97773 28.8259 5.10121 27.4494 5.10121ZM27.4494 1.2753C26.7358 1.2753 26.1741 1.83704 26.1741 2.55061C26.1741 3.26417 26.7358 3.82591 27.4494 3.82591C28.1629 3.82591 28.7247 3.26417 28.7247 2.55061C28.7247 1.83704 28.1629 1.2753 27.4494 1.2753Z" fill="#CCAB80"/>
</svg>
