<svg width="30" height="33" viewBox="0 0 30 33" fill="none" xmlns="http://www.w3.org/2000/svg">
<path d="M19.6191 2.8512H14.6577H9.63983H4.67848H0.741089V31.369H23.5565V2.8512H19.6191Z" fill="white"/>
<path d="M29.2589 26.3511H26.4077V28.5178H29.2589V26.3511Z" fill="white"/>
<path d="M29.2589 28.5177V29.9433C29.2589 30.741 28.631 31.3689 27.8333 31.3689C27.0356 31.3689 26.4077 30.741 26.4077 29.9433V28.5177H29.2589Z" fill="white"/>
<path d="M29.2589 9.97927V26.3511H26.4077V9.97927L27.8333 6.38696L29.2589 9.97927Z" fill="white"/>
<path d="M4.67846 4.96143C5.24984 4.96143 5.76464 5.41966 5.76464 6.0476C5.76464 6.67555 5.30641 7.13378 4.67846 7.13378C4.05052 7.13378 3.59229 6.61898 3.59229 6.0476C3.59229 5.47623 4.05052 4.96143 4.67846 4.96143Z" fill="white"/>
<path d="M9.63986 4.96143C10.2112 4.96143 10.726 5.41966 10.726 6.0476C10.726 6.67555 10.2678 7.13378 9.63986 7.13378C9.01191 7.13378 8.61591 6.61898 8.61591 6.0476C8.61591 5.47623 9.07414 4.96143 9.63986 4.96143Z" fill="white"/>
<path d="M19.6191 4.96143C20.1904 4.96143 20.7053 5.41966 20.7053 6.0476C20.7053 6.67555 20.247 7.13378 19.6191 7.13378C18.9911 7.13378 18.5951 6.61898 18.5951 6.0476C18.5951 5.47623 19.0534 4.96143 19.6191 4.96143Z" fill="white"/>
<path d="M14.6577 4.96143C15.2291 4.96143 15.7439 5.41966 15.7439 6.0476C15.7439 6.67555 15.2857 7.13378 14.6577 7.13378C14.0298 7.13378 13.5716 6.61898 13.5716 6.0476C13.5716 5.47623 14.0298 4.96143 14.6577 4.96143Z" fill="white"/>
<path d="M23.5565 32.0536H0.741091C0.339431 32.0536 0 31.7085 0 31.3125V2.79468C0 2.39302 0.339431 2.05359 0.741091 2.05359H23.5565C23.9581 2.05359 24.2976 2.39302 24.2976 2.79468V31.3125C24.2976 31.7707 23.9581 32.0536 23.5565 32.0536ZM1.48218 30.628H22.872V3.53577H1.48218V30.628Z" fill="#CCAB80"/>
<path d="M19.6191 7.81263C18.6517 7.81263 17.8484 7.01497 17.8484 6.04194C17.8484 5.0689 18.6461 4.27124 19.6191 4.27124C20.5921 4.27124 21.3898 5.0689 21.3898 6.04194C21.3898 7.01497 20.5921 7.81263 19.6191 7.81263ZM19.6191 5.70251C19.4494 5.70251 19.2797 5.87222 19.2797 6.04194C19.2797 6.21165 19.4494 6.38702 19.6191 6.38702C19.7888 6.38702 19.9585 6.21731 19.9585 6.04194C20.0151 5.87222 19.8454 5.70251 19.6191 5.70251Z" fill="#CCAB80"/>
<path d="M19.6191 5.70243C19.2174 5.70243 18.878 5.363 18.878 4.96134V2.05355C18.878 0.910805 19.7888 0 20.9315 0H21.3898C21.7914 0 22.1309 0.345087 22.1309 0.74109C22.1309 1.13709 21.7914 1.48218 21.3898 1.48218H20.9881C20.6487 1.48218 20.3602 1.76504 20.3602 2.11013V5.07449C20.3602 5.35734 20.0207 5.70243 19.6191 5.70243Z" fill="#CCAB80"/>
<path d="M14.6578 7.81263C13.6904 7.81263 12.8871 7.01497 12.8871 6.04194C12.8871 5.0689 13.6847 4.27124 14.6578 4.27124C15.6308 4.27124 16.4284 5.0689 16.4284 6.04194C16.4284 7.01497 15.6308 7.81263 14.6578 7.81263ZM14.6578 5.70251C14.488 5.70251 14.3183 5.87222 14.3183 6.04194C14.3183 6.21165 14.488 6.38702 14.6578 6.38702C14.8275 6.38702 14.9972 6.21731 14.9972 6.04194C14.9972 5.86656 14.8275 5.70251 14.6578 5.70251Z" fill="#CCAB80"/>
<path d="M14.6577 5.70243C14.2561 5.70243 13.9167 5.363 13.9167 4.96134V2.05355C13.9167 0.910805 14.8275 0 15.9702 0H16.4284C16.8301 0 17.1695 0.345087 17.1695 0.74109C17.1695 1.13709 16.8301 1.48218 16.4284 1.48218H15.9702C15.6308 1.48218 15.3423 1.76504 15.3423 2.11013V5.07449C15.3423 5.35734 15.0594 5.70243 14.6577 5.70243Z" fill="#CCAB80"/>
<path d="M9.63984 7.81263C8.67246 7.81263 7.86914 7.01497 7.86914 6.04194C7.86914 5.0689 8.6668 4.27124 9.63984 4.27124C10.6129 4.27124 11.4105 5.0689 11.4105 6.04194C11.4105 7.01497 10.6129 7.81263 9.63984 7.81263ZM9.63984 5.70251C9.47012 5.70251 9.29475 5.87222 9.29475 6.04194C9.29475 6.21165 9.46446 6.38702 9.63984 6.38702C9.81521 6.38702 9.97927 6.21731 9.97927 6.04194C10.0358 5.87222 9.86612 5.70251 9.63984 5.70251Z" fill="#CCAB80"/>
<path d="M9.63983 5.70243C9.23817 5.70243 8.89874 5.363 8.89874 4.96134V2.05355C8.89874 0.910805 9.80955 0 10.9523 0H11.4105C11.8122 0 12.1516 0.345087 12.1516 0.74109C12.1516 1.13709 11.8065 1.48218 11.4105 1.48218H10.9523C10.6129 1.48218 10.3244 1.76504 10.3244 2.11013V5.07449C10.3809 5.35734 10.0415 5.70243 9.63983 5.70243Z" fill="#CCAB80"/>
<path d="M4.67847 7.81263C3.71109 7.81263 2.90778 7.01497 2.90778 6.04194C2.90778 5.0689 3.70544 4.27124 4.67847 4.27124C5.65151 4.27124 6.44917 5.0689 6.44917 6.04194C6.44917 7.01497 5.65151 7.81263 4.67847 7.81263ZM4.67847 5.70251C4.50876 5.70251 4.33904 5.87222 4.33904 6.04194C4.33904 6.21165 4.50876 6.38702 4.67847 6.38702C4.84819 6.38702 5.0179 6.21731 5.0179 6.04194C5.0179 5.86656 4.84819 5.70251 4.67847 5.70251Z" fill="#CCAB80"/>
<path d="M4.6785 5.70243C4.27684 5.70243 3.93741 5.363 3.93741 4.96134V2.05355C3.93741 0.910805 4.84821 0 5.99096 0H6.44919C6.85085 0 7.19028 0.345087 7.19028 0.74109C7.19028 1.13709 6.85085 1.48218 6.44919 1.48218H5.99096C5.65153 1.48218 5.36302 1.76504 5.36302 2.11013V5.07449C5.36302 5.35734 5.08016 5.70243 4.6785 5.70243Z" fill="#CCAB80"/>
<path d="M20.7053 10.6638H3.59232C3.19066 10.6638 2.85123 10.3244 2.85123 9.92273C2.85123 9.52107 3.19066 9.18164 3.59232 9.18164H20.7053C21.1069 9.18164 21.4464 9.52107 21.4464 9.92273C21.4464 10.381 21.1069 10.6638 20.7053 10.6638Z" fill="#CCAB80"/>
<path d="M20.7053 12.8306H7.87479C7.47313 12.8306 7.1337 12.4855 7.1337 12.0895C7.1337 11.6935 7.47313 11.3484 7.87479 11.3484H20.7053C21.1069 11.3484 21.4464 11.6878 21.4464 12.0895C21.4464 12.4911 21.1069 12.8306 20.7053 12.8306Z" fill="#CCAB80"/>
<path d="M14.3183 14.9406H3.59793C3.19627 14.9406 2.85684 14.6011 2.85684 14.1995C2.85684 13.7978 3.19627 13.4584 3.59793 13.4584H14.3183C14.7199 13.4584 15.0594 13.7978 15.0594 14.1995C15.0028 14.6577 14.6577 14.9406 14.3183 14.9406Z" fill="#CCAB80"/>
<path d="M20.7053 17.1073H10.726C10.3244 17.1073 9.98492 16.7679 9.98492 16.3662C9.98492 15.9646 10.3244 15.6251 10.726 15.6251H20.7053C21.1069 15.6251 21.4464 15.9702 21.4464 16.3662C21.4464 16.7622 21.1069 17.1073 20.7053 17.1073Z" fill="#CCAB80"/>
<path d="M16.4284 19.2175H3.59232C3.19066 19.2175 2.85123 18.8781 2.85123 18.4764C2.85123 18.0748 3.19066 17.7354 3.59232 17.7354H16.4284C16.8301 17.7354 17.1695 18.0748 17.1695 18.4764C17.1695 18.8781 16.8301 19.2175 16.4284 19.2175Z" fill="#CCAB80"/>
<path d="M20.7053 21.3842H3.59232C3.19066 21.3842 2.85123 21.0447 2.85123 20.6431C2.85123 20.2414 3.19066 19.902 3.59232 19.902H20.7053C21.1069 19.902 21.4464 20.2414 21.4464 20.6431C21.4464 21.0447 21.1069 21.3842 20.7053 21.3842Z" fill="#CCAB80"/>
<path d="M20.7053 29.2024H14.3183C13.9166 29.2024 13.5772 28.863 13.5772 28.4613C13.5772 28.0596 13.9166 27.7202 14.3183 27.7202H20.7618C21.1635 27.7202 21.5029 28.0596 21.5029 28.4613C21.4463 28.9195 21.1013 29.2024 20.7053 29.2024Z" fill="#CCAB80"/>
<path d="M20.7053 27.0922H10.0415C9.63984 27.0922 9.30042 26.7527 9.30042 26.3511C9.30042 25.9494 9.6455 25.61 10.0415 25.61H20.7619C21.1635 25.61 21.5029 25.9494 21.5029 26.3511C21.4464 26.7527 21.1013 27.0922 20.7053 27.0922Z" fill="#CCAB80"/>
<path d="M27.8333 32.0535C26.634 32.0535 25.6666 31.0861 25.6666 29.8868V9.92263C25.6666 9.80949 25.6666 9.75291 25.7232 9.63977L27.1488 6.04747C27.2619 5.76461 27.4882 5.58923 27.8333 5.58923C28.1784 5.58923 28.4047 5.75895 28.5178 6.04747L29.9434 9.63977C30 9.69634 30 9.80949 30 9.92263V29.8868C30 31.0861 29.0326 32.0535 27.8333 32.0535ZM27.1488 10.0923V29.9434C27.1488 30.345 27.4882 30.6845 27.8899 30.6845C28.2916 30.6845 28.631 30.345 28.631 29.9434V10.0923L27.8333 8.32165L27.1488 10.0923Z" fill="#CCAB80"/>
<path d="M29.2589 29.2024H26.4077C26.0061 29.2024 25.6666 28.863 25.6666 28.4613C25.6666 28.0596 26.0061 27.7202 26.4077 27.7202H29.2589C29.6606 27.7202 30 28.0596 30 28.4613C30 28.9195 29.6606 29.2024 29.2589 29.2024Z" fill="#CCAB80"/>
<path d="M29.2589 27.0922H26.4077C26.0061 27.0922 25.6666 26.7527 25.6666 26.3511C25.6666 25.9494 26.0061 25.61 26.4077 25.61H29.2589C29.6606 25.61 30 25.9494 30 26.3511C30 26.7527 29.6606 27.0922 29.2589 27.0922Z" fill="#CCAB80"/>
<path d="M5.01792 12.8306H3.59232C3.19066 12.8306 2.85123 12.4855 2.85123 12.0895C2.85123 11.6935 3.19066 11.3484 3.59232 11.3484H5.01792C5.41958 11.3484 5.75901 11.6878 5.75901 12.0895C5.75901 12.4911 5.41958 12.8306 5.01792 12.8306Z" fill="#CCAB80"/>
<path d="M17.854 14.9406H16.4284C16.0268 14.9406 15.6873 14.6011 15.6873 14.1995C15.6873 13.7978 16.0268 13.4584 16.4284 13.4584H17.854C18.2557 13.4584 18.5951 13.7978 18.5951 14.1995C18.5951 14.6577 18.2557 14.9406 17.854 14.9406Z" fill="#CCAB80"/>
<path d="M20.7053 14.9406H19.9642C19.5625 14.9406 19.2231 14.6011 19.2231 14.1995C19.2231 13.7978 19.5682 13.4584 19.9642 13.4584H20.7053C21.107 13.4584 21.4464 13.7978 21.4464 14.1995C21.4464 14.6577 21.107 14.9406 20.7053 14.9406Z" fill="#CCAB80"/>
<path d="M7.18462 17.1073H3.59232C3.19066 17.1073 2.85123 16.7679 2.85123 16.3662C2.85123 15.9646 3.19066 15.6251 3.59232 15.6251H7.18462C7.58628 15.6251 7.92571 15.9702 7.92571 16.3662C7.86914 16.7679 7.52405 17.1073 7.18462 17.1073Z" fill="#CCAB80"/>
<path d="M20.7053 19.2175H18.5386C18.1369 19.2175 17.7975 18.8781 17.7975 18.4764C17.7975 18.0748 18.1369 17.7354 18.5386 17.7354H20.7053C21.1069 17.7354 21.4464 18.0748 21.4464 18.4764C21.4464 18.8781 21.1069 19.2175 20.7053 19.2175Z" fill="#CCAB80"/>
</svg>
