<svg width="30" height="30" viewBox="0 0 30 30" fill="none" xmlns="http://www.w3.org/2000/svg">
<g clip-path="url(#clip0_96_3738)">
<path d="M17.5 30H12.5C12.3674 30 12.2402 29.9473 12.1465 29.8536C12.0527 29.7598 12 29.6326 12 29.5V25.732C11.825 25.664 11.599 25.585 11.365 25.502C10.785 25.298 10.087 25.052 9.51199 24.76L6.884 27.39C6.78853 27.4805 6.66202 27.5309 6.5305 27.5309C6.39899 27.5309 6.27248 27.4805 6.177 27.39L2.60899 23.824C2.56219 23.7777 2.52504 23.7226 2.49968 23.6618C2.47432 23.601 2.46127 23.5358 2.46127 23.47C2.46127 23.4041 2.47432 23.339 2.49968 23.2782C2.52504 23.2174 2.56219 23.1623 2.60899 23.116L5.23801 20.488C4.77801 19.593 4.378 18.301 4.161 17H0.5C0.367392 17 0.240222 16.9473 0.146454 16.8536C0.0526857 16.7598 0 16.6326 0 16.5V12.5C0 12.3674 0.0526857 12.2402 0.146454 12.1464C0.240222 12.0527 0.367392 12 0.5 12H4.213C4.423 11.314 4.814 10.294 5.235 9.51001L2.60899 6.883C2.51526 6.78923 2.4626 6.66206 2.4626 6.52948C2.4626 6.3969 2.51526 6.26979 2.60899 6.17603L6.17599 2.60999C6.22244 2.56342 6.27762 2.52649 6.33836 2.50128C6.39911 2.47608 6.46423 2.46313 6.53 2.46313C6.59577 2.46313 6.66089 2.47608 6.72163 2.50128C6.78238 2.52649 6.83756 2.56342 6.884 2.60999L9.509 5.23499C10.3055 4.81609 11.1395 4.4726 12 4.20898V0.5C12 0.367392 12.0527 0.240192 12.1465 0.146423C12.2402 0.0526552 12.3674 0 12.5 0H17.5C17.6326 0 17.7598 0.0526552 17.8535 0.146423C17.9473 0.240192 18 0.367392 18 0.5V4.20599C18.663 4.40399 19.699 4.80899 20.49 5.23499L23.116 2.60999C23.2098 2.51625 23.3369 2.46362 23.4695 2.46362C23.6021 2.46362 23.7292 2.51625 23.823 2.60999L27.39 6.17603C27.4367 6.22232 27.4737 6.27734 27.4989 6.33801C27.5242 6.39868 27.5372 6.46376 27.5372 6.52948C27.5372 6.5952 27.5242 6.66028 27.4989 6.72095C27.4737 6.78162 27.4367 6.8367 27.39 6.883L24.767 9.50598C25.192 10.269 25.547 11.133 25.791 12H29.5C29.6326 12 29.7598 12.0527 29.8535 12.1464C29.9473 12.2402 30 12.3674 30 12.5V16.5C30 16.6326 29.9473 16.7598 29.8535 16.8536C29.7598 16.9473 29.6326 17 29.5 17H25.853C25.606 18.956 25.234 19.727 24.773 20.498L27.389 23.116C27.4356 23.1625 27.4725 23.2176 27.4977 23.2784C27.5229 23.3391 27.5359 23.4042 27.5359 23.47C27.5359 23.5357 27.5229 23.6009 27.4977 23.6616C27.4725 23.7224 27.4356 23.7775 27.389 23.824L23.823 27.39C23.7292 27.4837 23.6021 27.5364 23.4695 27.5364C23.3369 27.5364 23.2098 27.4837 23.116 27.39L20.486 24.761C19.912 25.053 19.216 25.298 18.636 25.501C18.402 25.584 18.175 25.664 18 25.732V29.5C18 29.6326 17.9473 29.7598 17.8535 29.8536C17.7598 29.9473 17.6326 30 17.5 30ZM13 29H17V25.407C17 25.224 17.1 25.056 17.26 24.968C17.482 24.847 17.845 24.72 18.305 24.558C18.964 24.327 19.784 24.038 20.313 23.715C20.4087 23.6566 20.5213 23.632 20.6326 23.6452C20.744 23.6584 20.8477 23.7088 20.927 23.788L23.47 26.329L26.329 23.47L23.788 20.928C23.7087 20.8486 23.6584 20.745 23.6452 20.6337C23.632 20.5223 23.6565 20.4097 23.715 20.314L23.754 20.249C24.282 19.386 24.664 18.762 24.91 16.447C24.9231 16.3243 24.9811 16.2108 25.0728 16.1282C25.1646 16.0457 25.2836 16 25.407 16H29V13H25.406C25.2939 13 25.185 12.9624 25.0969 12.8931C25.0088 12.8239 24.9465 12.7269 24.92 12.618C24.6673 11.5855 24.2611 10.5969 23.715 9.685C23.6566 9.58945 23.6321 9.47703 23.6453 9.36584C23.6586 9.25466 23.7088 9.15119 23.788 9.07202L26.328 6.53003L23.469 3.67102L20.927 6.21198C20.8477 6.291 20.7443 6.34114 20.6331 6.35437C20.522 6.36761 20.4096 6.34317 20.314 6.28497C19.415 5.73797 17.889 5.17802 17.404 5.08502C17.29 5.06272 17.1873 5.0014 17.1136 4.91162C17.0399 4.82184 16.9997 4.70919 17 4.59302V1H13V4.59399C12.9999 4.70808 12.9607 4.8187 12.889 4.90747C12.8174 4.99624 12.7175 5.05778 12.606 5.08197C12.006 5.21197 10.57 5.74597 9.686 6.28497C9.59051 6.34352 9.47805 6.36817 9.36682 6.35492C9.25559 6.34167 9.15208 6.29131 9.073 6.21198L6.53 3.67102L3.67 6.53003L6.21201 9.07202C6.29127 9.15135 6.34156 9.25498 6.3548 9.36633C6.36804 9.47769 6.34345 9.59027 6.285 9.68597C5.738 10.582 5.217 12.048 5.078 12.618C5.05159 12.7268 4.98944 12.8236 4.9015 12.8928C4.81357 12.9621 4.70494 12.9998 4.593 13H1V16H4.593C4.71392 16.0001 4.8307 16.044 4.92171 16.1237C5.01272 16.2033 5.07179 16.3132 5.088 16.433C5.286 17.906 5.767 19.465 6.285 20.313C6.34345 20.4087 6.36804 20.5213 6.3548 20.6326C6.34156 20.744 6.29127 20.8477 6.21201 20.927L3.67 23.47L6.53 26.329L9.071 23.787C9.1504 23.7075 9.25425 23.657 9.36583 23.6438C9.4774 23.6306 9.5902 23.6553 9.686 23.714C10.216 24.038 11.038 24.327 11.697 24.559C12.156 24.72 12.518 24.847 12.74 24.969C12.8186 25.012 12.8842 25.0754 12.93 25.1524C12.9757 25.2295 12.9999 25.3174 13 25.407V29Z" fill="#2F324A"/>
<path d="M15 21C11.692 21 9 18.308 9 15C9 11.692 11.692 9 15 9C18.308 9 21 11.692 21 15C21 18.308 18.308 21 15 21ZM15 10C12.243 10 10 12.243 10 15C10 17.757 12.243 20 15 20C17.757 20 20 17.757 20 15C20 12.243 17.757 10 15 10Z" fill="#2F324A"/>
</g>
<defs>
<clipPath id="clip0_96_3738">
<rect width="30" height="30" fill="white"/>
</clipPath>
</defs>
</svg>
