<svg width="34" height="34" viewBox="0 0 34 34" fill="none" xmlns="http://www.w3.org/2000/svg">
<path d="M17.0374 34H16.9626C7.60952 34 0 26.3905 0 17.0374V16.9626C0 7.60951 7.60952 0 16.9626 0H17.0374C26.3905 0 34 7.60951 34 16.9626V17.0374C34 26.3905 26.3905 34 17.0374 34ZM16.9626 1.15087C8.24365 1.15087 1.15087 8.24363 1.15087 16.9626V17.0374C1.15087 25.7564 8.24365 32.8491 16.9626 32.8491H17.0374C25.7564 32.8491 32.8491 25.7564 32.8491 17.0374V16.9626C32.8491 8.24363 25.7564 1.15087 17.0374 1.15087H16.9626Z" fill="#2F324A"/>
<path d="M7.23664 8.01221L14.8116 18.1398L7.18945 26.3743H8.9054L15.5793 19.1653L20.9711 26.3743H26.8094L18.8086 15.677L25.9037 8.01221H24.1877L18.0421 14.6516L13.0761 8.01221H7.23778H7.23664ZM9.75933 9.27588H12.4409L24.2844 25.1106H21.6029L9.75933 9.27588Z" fill="#2F324A"/>
</svg>
