<svg width="34" height="34" viewBox="0 0 34 34" fill="none" xmlns="http://www.w3.org/2000/svg">
<path d="M17.0374 34H16.9626C7.60952 34 0 26.3905 0 17.0374V16.9626C0 7.60951 7.60952 0 16.9626 0H17.0374C26.3905 0 34 7.60951 34 16.9626V17.0374C34 26.3905 26.3905 34 17.0374 34ZM16.9626 1.15087C8.24364 1.15087 1.15086 8.24363 1.15086 16.9626V17.0374C1.15086 25.7564 8.24364 32.8491 16.9626 32.8491H17.0374C25.7564 32.8491 32.8491 25.7564 32.8491 17.0374V16.9626C32.8491 8.24363 25.7564 1.15087 17.0374 1.15087H16.9626Z" fill="#2F324A"/>
<path d="M24.9404 12.4595V15.5611C24.3983 15.5081 23.694 15.385 22.9148 15.0996C21.8975 14.7267 21.1402 14.2169 20.6442 13.8221V20.0909L20.6315 20.0713C20.6396 20.1956 20.6442 20.3222 20.6442 20.4499C20.6442 23.563 18.1111 26.0972 14.9969 26.0972C11.8827 26.0972 9.34961 23.563 9.34961 20.4499C9.34961 17.3368 11.8827 14.8015 14.9969 14.8015C15.3019 14.8015 15.6011 14.8257 15.8934 14.8728V17.9295C15.6126 17.8294 15.3111 17.7753 14.9969 17.7753C13.5226 17.7753 12.3223 18.9745 12.3223 20.4499C12.3223 21.9253 13.5226 23.1245 14.9969 23.1245C16.4712 23.1245 17.6715 21.9242 17.6715 20.4499C17.6715 20.3947 17.6704 20.3395 17.6669 20.2842V8.10229H20.7662C20.7777 8.36469 20.7881 8.6294 20.7996 8.8918C20.8203 9.40854 21.0044 9.90457 21.3255 10.3108C21.7018 10.7884 22.2577 11.3431 23.038 11.7862C23.7688 12.1994 24.4547 12.3778 24.9404 12.4618V12.4595Z" fill="#2F324A"/>
</svg>
