<svg width="34" height="34" viewBox="0 0 34 34" fill="none" xmlns="http://www.w3.org/2000/svg">
<path d="M17.0374 34H16.9626C7.60952 34 0 26.3905 0 17.0374V16.9626C0 7.60951 7.60952 0 16.9626 0H17.0374C26.3905 0 34 7.60951 34 16.9626V17.0374C34 26.3905 26.3905 34 17.0374 34ZM16.9626 1.15087C8.24365 1.15087 1.15086 8.24363 1.15086 16.9626V17.0374C1.15086 25.7564 8.24365 32.8491 16.9626 32.8491H17.0374C25.7564 32.8491 32.8491 25.7564 32.8491 17.0374V16.9626C32.8491 8.24363 25.7564 1.15087 17.0374 1.15087H16.9626Z" fill="#2F324A"/>
<path d="M22.0832 7.2583H11.9187C9.11064 7.2583 6.82617 9.54277 6.82617 12.3509V21.6498C6.82617 24.458 9.11064 26.7424 11.9187 26.7424H22.0832C24.8913 26.7424 27.1758 24.458 27.1758 21.6498V12.3509C27.1758 9.54277 24.8913 7.2583 22.0832 7.2583ZM8.62267 12.3509C8.62267 10.5337 10.1015 9.05479 11.9187 9.05479H22.0832C23.9004 9.05479 25.3793 10.5337 25.3793 12.3509V21.6498C25.3793 23.4671 23.9004 24.9459 22.0832 24.9459H11.9187C10.1015 24.9459 8.62267 23.4671 8.62267 21.6498V12.3509Z" fill="#2F324A"/>
<path d="M17.0006 21.7361C19.6119 21.7361 21.7376 19.6116 21.7376 16.9992C21.7376 14.3867 19.6131 12.2622 17.0006 12.2622C14.3882 12.2622 12.2637 14.3867 12.2637 16.9992C12.2637 19.6116 14.3882 21.7361 17.0006 21.7361ZM17.0006 14.0598C18.6222 14.0598 19.9411 15.3787 19.9411 17.0003C19.9411 18.6219 18.6222 19.9408 17.0006 19.9408C15.3791 19.9408 14.0602 18.6219 14.0602 17.0003C14.0602 15.3787 15.3791 14.0598 17.0006 14.0598Z" fill="#2F324A"/>
<path d="M22.1767 13.0285C22.8799 13.0285 23.453 12.4563 23.453 11.7518C23.453 11.0473 22.881 10.4751 22.1767 10.4751C21.4724 10.4751 20.9004 11.0473 20.9004 11.7518C20.9004 12.4563 21.4724 13.0285 22.1767 13.0285Z" fill="#2F324A"/>
</svg>
