<svg width="20" height="20" viewBox="0 0 20 20" fill="none" xmlns="http://www.w3.org/2000/svg">
<path d="M7.31753 14.7093H5.29504V8.42092H7.31753V14.7093ZM6.37624 7.46482H6.36175C5.71448 7.46482 5.29536 6.98299 5.29536 6.37984C5.29536 5.76565 5.72551 5.29517 6.38727 5.29517C7.04904 5.29517 7.45398 5.76219 7.46848 6.37984C7.46816 6.98299 7.04904 7.46482 6.37624 7.46482ZM14.7092 14.7093H12.6867V11.2709C12.6867 10.4472 12.3923 9.88437 11.6606 9.88437C11.1016 9.88437 10.7707 10.2625 10.6235 10.6309C10.5684 10.7633 10.5536 10.9435 10.5536 11.1275V14.7093H8.53108V8.42092H10.5536V9.29603C10.8479 8.87691 11.3077 8.27375 12.3775 8.27375C13.7052 8.27375 14.7095 9.14886 14.7095 11.0355L14.7092 14.7093Z" fill="#CCAB80"/>
<path d="M2.08319 9.99992C2.08319 6.26797 2.08319 4.40199 3.24256 3.24262C4.40193 2.08325 6.26791 2.08325 9.99986 2.08325C13.7318 2.08325 15.5978 2.08325 16.7572 3.24262C17.9165 4.40199 17.9165 6.26797 17.9165 9.99992C17.9165 13.7318 17.9165 15.5978 16.7572 16.7573C15.5978 17.9166 13.7318 17.9166 9.99986 17.9166C6.26791 17.9166 4.40193 17.9166 3.24256 16.7573C2.08319 15.5978 2.08319 13.7318 2.08319 9.99992Z" stroke="#CCAB80" stroke-linejoin="round"/>
</svg>
