<svg width="34" height="34" viewBox="0 0 34 34" fill="none" xmlns="http://www.w3.org/2000/svg">
<path d="M17 34C7.62583 34 0 26.3742 0 17C0 7.62583 7.62583 0 17 0C26.3742 0 34 7.62583 34 17C34 26.3742 26.3742 34 17 34ZM17 1.15403C8.26286 1.15403 1.15403 8.26285 1.15403 17C1.15403 25.7372 8.26286 32.846 17 32.846C25.7372 32.846 32.846 25.7372 32.846 17C32.846 8.26285 25.7372 1.15403 17 1.15403Z" fill="#2F324A"/>
<path d="M27.341 13.5968C27.2117 12.3493 26.9336 10.9702 25.91 10.2455C25.1172 9.68348 24.0751 9.6627 23.1022 9.66386C21.0457 9.66501 18.9881 9.66732 16.9316 9.66848C14.9536 9.67079 12.9756 9.67195 10.9976 9.67425C10.1713 9.67541 9.36811 9.61079 8.60068 9.96854C7.94173 10.2755 7.42588 10.8594 7.11545 11.5091C6.68499 12.4128 6.59498 13.4364 6.54305 14.4358C6.44727 16.2557 6.45765 18.0802 6.5719 19.899C6.65615 21.2261 6.86964 22.6928 7.89557 23.5387C8.80495 24.2877 10.0882 24.3246 11.2676 24.3258C15.0113 24.3293 18.7561 24.3327 22.501 24.335C22.9811 24.3362 23.4819 24.327 23.9712 24.2739C24.9337 24.17 25.8511 23.8942 26.4697 23.181C27.094 22.4621 27.2544 21.4615 27.3491 20.514C27.5799 18.2152 27.5775 15.8945 27.341 13.5968ZM14.7667 20.2221V13.7768L20.3476 16.9989L14.7667 20.2221Z" fill="#2F324A"/>
</svg>
