<svg width="34" height="34" viewBox="0 0 34 34" fill="none" xmlns="http://www.w3.org/2000/svg">
<path d="M17.0374 34H16.9626C7.60952 34 0 26.3905 0 17.0374V16.9626C0 7.60954 7.60952 0 16.9626 0H17.0374C26.3905 0 34 7.60954 34 16.9626V17.0374C34 26.3905 26.3905 34 17.0374 34ZM16.9626 1.15087C8.24364 1.15087 1.15086 8.24366 1.15086 16.9626V17.0374C1.15086 25.7564 8.24364 32.8491 16.9626 32.8491H17.0374C25.7564 32.8491 32.8491 25.7564 32.8491 17.0374V16.9626C32.8491 8.24366 25.7564 1.15087 17.0374 1.15087H16.9626Z" fill="#2F324A"/>
<path d="M19.2878 13.1879V16.7659H23.7141L23.0132 21.5857H19.2878V32.6904C18.5409 32.794 17.7768 32.8481 17.0011 32.8481C16.1057 32.8481 15.2264 32.7768 14.3702 32.6387V21.5857H10.2881V16.7659H14.3702V12.388C14.3702 9.67199 16.5718 7.46924 19.289 7.46924V7.47154C19.2971 7.47154 19.304 7.46924 19.312 7.46924H23.7152V11.6377H20.8381C19.983 11.6377 19.289 12.3316 19.289 13.1867L19.2878 13.1879Z" fill="#2F324A"/>
</svg>
