<svg width="339" height="389" viewBox="0 0 339 389" fill="none" xmlns="http://www.w3.org/2000/svg">
<g opacity="0.1">
<path d="M279.195 204.174L231.542 230.233L231.281 230.376V283.271L232.032 282.836L262.394 265.211L262.395 265.212L279.686 255.245L279.936 255.101V203.77L279.195 204.174ZM95.8076 282.485L95.5342 282.347L61.709 265.111L60.9814 264.74V290.755L10.6299 262.069L4.48438 258.229L4.43457 258.198L4.37988 258.18L3.28711 257.808L0.5 256.065V121.558L168.882 217.688L169.13 217.829L169.377 217.688L337.734 121.571V256.081L327.591 262.062L169.104 352.349L95.8076 310.481V282.485Z" stroke="#2F324A"/>
<path d="M337.759 96.8467V108.514L327.628 114.108L327.621 114.112L169.129 204.766L10.6377 114.112L10.6309 114.108L0.5 108.514V96.8467L169.129 0.575195L337.759 96.8467Z" stroke="#2F324A"/>
<path d="M6.28223 272.479V272.477L10.1338 274.762L10.1416 274.767L61.0059 303.745V326.344L10.6426 297.651H10.6436L0.5 291.67V269.079L6.28223 272.479Z" stroke="#2F324A"/>
<path d="M337.761 291.671L327.647 297.648L169.132 388.326L95.834 346.071V323.476L168.882 365.586L169.131 365.729L169.38 365.586L328.145 274.766L328.15 274.763L337.761 269.082V291.671Z" stroke="#2F324A"/>
</g>
</svg>
